<?xml version="1.0" encoding="utf-8"?>
<!-- Generator: Adobe Illustrator 16.0.0, SVG Export Plug-In . SVG Version: 6.00 Build 0)  -->
<!DOCTYPE svg PUBLIC "-//W3C//DTD SVG 1.1//EN" "http://www.w3.org/Graphics/SVG/1.1/DTD/svg11.dtd" [
	<!ENTITY ns_extend "http://ns.adobe.com/Extensibility/1.0/">
	<!ENTITY ns_ai "http://ns.adobe.com/AdobeIllustrator/10.0/">
	<!ENTITY ns_graphs "http://ns.adobe.com/Graphs/1.0/">
	<!ENTITY ns_vars "http://ns.adobe.com/Variables/1.0/">
	<!ENTITY ns_imrep "http://ns.adobe.com/ImageReplacement/1.0/">
	<!ENTITY ns_sfw "http://ns.adobe.com/SaveForWeb/1.0/">
	<!ENTITY ns_custom "http://ns.adobe.com/GenericCustomNamespace/1.0/">
	<!ENTITY ns_adobe_xpath "http://ns.adobe.com/XPath/1.0/">
]>
<svg version="1.1" id="Layer_1" xmlns:x="&ns_extend;" xmlns:i="&ns_ai;" xmlns:graph="&ns_graphs;"
	 xmlns="http://www.w3.org/2000/svg" xmlns:xlink="http://www.w3.org/1999/xlink" x="0px" y="0px" width="136.75px" height="30px"
	 viewBox="0 0 136.75 30" enable-background="new 0 0 136.75 30" xml:space="preserve">
<metadata>
	<sfw  xmlns="&ns_sfw;">
		<slices></slices>
		<sliceSourceBounds  height="29.476" width="135.667" y="-29.738" x="0" bottomLeftOrigin="true"></sliceSourceBounds>
	</sfw>
</metadata>
<g>
	<g>
		<g>
			<path fill="#D52B1E" d="M40.088,14.314h0.073l4.068-12.279h5.594L45.319,14.75l4.614,13.223h-5.595l-4.177-12.787h-0.073v12.787
				h-5.304V2.035h5.304V14.314z"/>
			<path fill="#D52B1E" d="M67.806,27.973V2.035h5.304V23.25h5.594v4.723H67.806z"/>
			<path fill="#D52B1E" d="M91.456,22.596h0.073l2.47-20.561h8.427v25.938h-5.013V5.813h-0.072l-3.27,22.159h-5.267L85.534,5.813
				h-0.072v22.159h-5.013V2.035h8.428L91.456,22.596z"/>
			<path fill="#D52B1E" d="M121.645,27.973V2.035h6.794c4.649,0,6.721,1.163,6.721,5.304v3.088c0,1.562-0.654,3.523-3.052,3.887
				v0.073c2.179,0.363,3.196,1.816,3.196,5.121v5.631c0,2,0,2.434,0.363,2.834h-5.339c-0.22-0.4-0.328-0.762-0.328-1.055v-8.826
				c0-0.871-0.617-1.309-1.708-1.309h-1.344v11.189H121.645z M126.948,12.061h1.344c1.127,0,1.563-0.363,1.563-2.651
				c0-2.144-0.292-2.652-1.563-2.652h-1.344V12.061z"/>
		</g>
		<path fill-rule="evenodd" clip-rule="evenodd" fill="#D52B1E" d="M56.769,16.908v11.068h-5.304V9.407V7.615
			c0-4.889,2.167-6.084,6.836-6.084c4.65,0,6.855,1.195,6.855,6.084v20.362h-5.342V16.908H56.769z M59.813,12.112h-3.044V8.399
			c0-1.812,0.431-2.165,1.532-2.165c1.083,0,1.513,0.353,1.513,2.165V12.112z"/>
		<path fill-rule="evenodd" clip-rule="evenodd" fill="#D52B1E" d="M110.61,16.908v11.068h-5.304V9.407V7.615
			c0-4.889,2.167-6.084,6.836-6.084c4.649,0,6.855,1.195,6.855,6.084v20.362h-5.342V16.908H110.61z M113.656,12.112h-3.046V8.399
			c0-1.812,0.432-2.165,1.532-2.165c1.084,0,1.514,0.353,1.514,2.165V12.112z"/>
	</g>
	<rect y="0.262" width="29.476" height="29.476"/>
	<path fill="#FFFFFF" d="M23.009,14.614c0.733,0,1.326-0.595,1.326-1.327c0-0.731-0.593-1.326-1.326-1.326
		c-0.732,0-1.326,0.595-1.326,1.326C21.683,14.019,22.277,14.614,23.009,14.614"/>
	<path fill="#FFFFFF" d="M23.23,18.539c-0.803-0.162-1.675-0.676-2.428-1.48c-1.068-1.118-1.892-2.767-2.162-4.674
		c-0.257-1.825-0.271-2.008-0.3-2.091c-0.107-0.325-0.399-0.55-0.741-0.564c-0.43-0.02-0.733,0.326-0.771,0.761
		c-0.061,0.71-0.069,1.432-0.022,2.187c0.212,3.423,1.547,6.435,3.413,8.241c0.31,0.299,0.653,0.59,0.852,0.713
		C21.635,20.625,22.381,19.535,23.23,18.539"/>
	<path fill="#FFFFFF" d="M14.735,16.197c-0.017-0.006-0.03,0.012-0.053,0.033c-0.806,0.805-1.762,1.264-3.157,1.264
		c-2.196,0-3.976-1.78-3.976-3.975c0-2.195,1.78-3.976,3.976-3.976c0.946,0,1.846,0.327,2.545,0.876
		c0.5,0.434,1.171,1.463,1.361,2.368c0.129,0.524,0.208,1.016,0.264,1.497c0.743,4.076,1.812,6.555,4.662,8.729
		c-0.764,1.691-1.142,3.498-1.051,4.955H1.768V2.031h25.939v6.207c-2.556,1.58-6.14,1.112-8.854-1.146l-0.869-0.641
		c-1.981-1.617-4.551-2.489-6.3-2.489c-4.438,0-8.036,3.584-8.036,8.081c0,4.496,3.598,8.14,8.036,8.14
		c1.085,0,2.122-0.148,3.067-0.545v-3.395C14.751,16.244,14.753,16.203,14.735,16.197"/>
</g>
</svg>
