<?xml version="1.0" encoding="utf-8"?>
<!-- Generator: Adobe Illustrator 16.0.0, SVG Export Plug-In . SVG Version: 6.00 Build 0)  -->
<!DOCTYPE svg PUBLIC "-//W3C//DTD SVG 1.1//EN" "http://www.w3.org/Graphics/SVG/1.1/DTD/svg11.dtd">
<svg version="1.1" id="Layer_1" xmlns="http://www.w3.org/2000/svg" xmlns:xlink="http://www.w3.org/1999/xlink" x="0px" y="0px"
	 width="130px" height="71px" viewBox="588.5 218 130 71" enable-background="new 588.5 218 130 71" xml:space="preserve">
<g transform="translate(0.000000,507.000000) scale(0.100000,-0.100000)">
	<path fill="#BB001E" d="M6093.125,2784.321c-9.99-1.582-17.002-3.755-24.521-7.515c-16.113-8.11-28.867-20.962-36.387-36.382
		c-6.621-13.75-8.301-22.153-7.607-38.076c0.586-14.531,2.168-21.255,7.607-32.329c11.768-24.126,34.316-40.439,60.811-43.999
		c22.744-2.964,46.67,4.648,63.584,20.366c18.291,17.007,26.885,38.267,25.605,62.793c-0.693,12.456-2.471,19.57-7.617,30.449
		c-12.754,26.797-37.471,43.208-67.734,45.088C6102.519,2785.01,6096.289,2784.814,6093.125,2784.321z M6120.517,2751.396
		c12.363-6.128,21.855-18.491,25.312-32.729c1.484-6.133,1.582-19.38,0.195-25.312c-2.861-12.163-6.924-19.58-15.029-27.192
		c-20.859-19.473-52.705-12.754-65.85,13.848c-4.746,9.492-7.021,24.424-5.244,34.111c2.676,14.531,9.395,26.099,19.385,33.223
		c8.799,6.323,15.625,8.403,25.811,8.003C6112.011,2755.054,6114.189,2754.556,6120.517,2751.396z"/>
	<path fill="#BB001E" d="M6404.492,2784.321c-26.807-4.155-48.652-20.068-60.42-44.004c-6.123-12.651-7.715-19.375-7.812-33.613
		c0-13.945,2.08-24.126,6.924-34.805c22.051-48.052,82.559-61.499,123.301-27.49c19.873,16.616,30.645,43.701,27.48,69.214
		c-1.484,11.87-3.359,18.193-8.496,28.184c-8.213,16.113-19.58,26.987-36.494,35.195
		C6435.527,2783.628,6418.134,2786.396,6404.492,2784.321z M6432.47,2751.592c31.338-15.327,36.084-64.961,8.398-87.505
		c-7.803-6.426-14.727-8.701-25.996-8.799c-8.506,0-9.99,0.298-16.123,3.164c-8.105,3.853-17.1,12.456-20.869,19.971
		c-3.848,7.417-6.514,18.984-6.514,27.588c0,18.091,8.994,35.103,23.232,43.604c7.91,4.746,13.35,6.133,23.037,5.635
		C6424.462,2754.956,6427.031,2754.36,6432.47,2751.592z"/>
	<path fill="#BB001E" d="M5888.847,2765.532v-13.843h23.242h23.232v-61.299v-61.304h16.807h16.807v61.304v61.299h23.242h23.232
		v13.843v13.843h-63.281h-63.281V2765.532z"/>
	<path fill="#BB001E" d="M6184.492,2778.979c0-0.195,12.949-20.962,28.672-45.972l28.672-45.586v-29.165v-29.17h17.305h17.305
		v28.774v28.77l11.27,17.998c6.133,9.785,19.277,30.649,29.062,46.372l17.9,28.374l-19.775-0.195l-19.766-0.298l-17.51-30.356
		c-9.59-16.611-17.695-30.552-17.998-30.747c-0.293-0.298-8.496,13.447-18.291,30.454l-17.793,31.045l-19.482,0.098
		C6193.291,2779.375,6184.492,2779.18,6184.492,2778.979z"/>
	<path fill="#BB001E" d="M6504.843,2765.532v-13.843h23.242h23.232v-61.299v-61.304h16.807h16.807v61.304v61.299h23.232h23.242
		v13.843v13.843h-63.281h-63.281V2765.532z"/>
	<path fill="#BB001E" d="M6678.076,2772.256c-15.625-37.969-48.252-116.968-58.232-140.894c-0.41-0.991,3.857-1.289,19.277-1.289
		h19.668l6.328,16.812l6.338,16.812l30.645-0.303l30.654-0.195l6.328-16.509l6.328-16.616h19.58h19.668l-0.889,2.275
		c-0.488,1.187-8.096,19.575-16.904,40.737c-8.701,21.26-22.148,53.789-29.863,72.476l-13.936,33.813h-20.967h-21.055
		L6678.076,2772.256z M6712.48,2716.196c5.439-14.336,9.893-26.206,9.893-26.401s-9.092-0.396-20.273-0.396
		c-11.172,0-20.273,0.298-20.273,0.688c0,0.498,13.545,36.191,19.287,51.025c0.4,0.986,0.889,1.582,1.084,1.387
		C6702.402,2742.3,6707.05,2730.435,6712.48,2716.196z"/>
	<path fill="#BDBCBC" d="M5889.843,2540.591v-14.331h645.645h645.664v14.331v14.336h-645.664h-645.645V2540.591z"/>
	<path fill="#231F20" d="M7127.265,2376.953c-22.734-3.066-37.08-20.674-37.08-45.684c0-10.176,1.484-16.699,5.732-24.814
		c3.955-7.617,9.785-13.35,17.5-17.012c7.217-3.35,12.461-4.346,22.841-4.443c12.461,0,20.469,2.568,32.334,10.283l4.648,3.066
		v17.002v17.109h-19.277h-19.277v-5.439v-5.439h13.35h13.34v-8.398v-8.408l-4.453-2.871c-13.936-8.896-34.697-7.705-45.175,2.568
		c-11.973,11.67-12.168,39.551-0.4,53.398c6.328,7.51,21.259,11.074,32.529,7.803c7.021-2.07,12.852-7.012,15.127-13.037
		c1.777-4.658,2.578-4.951,8.408-3.174c2.373,0.693,3.857,1.689,3.857,2.666c-0.098,2.09-3.369,9.395-6.035,13.154
		C7159.003,2373.994,7142.597,2379.023,7127.265,2376.953z"/>
	<path fill="#231F20" d="M5894.785,2330.977v-44.98h5.928h5.938v37.363c0,20.469,0.391,36.582,0.889,35.801
		c0.391-0.791,6.23-17.598,12.949-37.383l12.168-35.879l5.537,0.293l5.537,0.293l12.354,35.596l12.363,35.586l0.293-35.791
		l0.195-35.879h5.938h5.938v44.98v45.088l-8.115-0.293l-8.105-0.293l-12.949-37.773l-12.959-37.773l-12.656,38.066l-12.656,37.969
		h-9.287h-9.297V2330.977z"/>
	<path fill="#231F20" d="M6024.013,2374.775c-10.771-27.676-33.32-87.012-33.32-87.803c0-0.684,2.178-0.977,6.133-0.781l6.123,0.293
		l5.049,13.35l4.941,13.35l18.486,0.293l18.389,0.195l5.049-12.949c2.773-7.119,5.039-13.35,5.039-13.848
		c0-0.488,3.164-0.879,6.924-0.879c3.857,0,6.924,0.293,6.924,0.781c0,0.4-8.105,20.566-17.998,44.99l-18.096,44.199h-6.523
		C6026.777,2375.967,6024.306,2375.576,6024.013,2374.775z M6035.478,2352.227c2.48-6.816,5.84-16.006,7.52-20.459l2.969-8.213
		h-14.736h-14.736l2.578,6.729c4.941,12.959,11.172,31.338,11.172,33.223C6030.244,2366.572,6030.83,2365.283,6035.478,2352.227z"/>
	<path fill="#231F20" d="M6067.812,2370.527v-5.439h14.336h14.336l0.205-39.258l0.293-39.346l6.23-0.293l6.133-0.293v39.639v39.551
		h14.834h14.824v5.439v5.439h-35.596h-35.596V2370.527z"/>
	<path fill="#231F20" d="M6150.869,2330.977v-44.98h33.623h33.613v5.43v5.439h-27.686h-27.783l0.293,15.127l0.303,15.029
		l25.01,0.293l25.02,0.195l-0.293,5.244l-0.303,5.146l-24.922,0.293l-25.01,0.195v13.35v13.35h26.699h26.689v5.439v5.439h-32.627
		h-32.627V2330.977z"/>
	<path fill="#231F20" d="M6234.912,2330.977v-44.98h5.938h5.928v19.766v19.775h10.186c7.617,0,10.879-0.391,13.545-1.777
		c4.355-2.178,10.283-9.6,20.273-25.312l7.812-12.451h7.314c6.025,0,7.217,0.293,6.719,1.475c-0.293,0.791-4.346,7.314-8.896,14.541
		c-8.496,13.242-13.545,19.375-18.779,23.135l-2.871,2.07l3.857,0.703c6.621,1.074,13.35,5.537,16.709,10.869
		c2.373,3.965,2.959,6.133,3.262,11.865c0.293,6.23,0,7.617-2.471,12.461c-3.457,6.621-8.701,10.479-16.025,11.855
		c-2.861,0.508-15.908,0.996-28.867,0.996h-23.633V2330.977z M6283.066,2364.6c9.492-2.764,13.154-10.684,8.994-19.082
		c-3.76-7.617-6.719-8.516-27.686-8.906l-17.598-0.391v14.932v14.932h15.625C6273.476,2366.084,6279.511,2365.674,6283.066,2364.6z"
		/>
	<path fill="#231F20" d="M6326.865,2330.977v-44.98h5.938h5.928v44.98v44.99h-5.928h-5.938V2330.977z"/>
	<path fill="#231F20" d="M6383.32,2373.789c-1.475-3.848-28.867-75.049-31.338-81.67l-2.373-6.221l6.523,0.293l6.631,0.293
		l4.941,13.545l4.941,13.643h18.496h18.486l5.244-13.838l5.234-13.838h6.719c3.76,0,6.826,0.293,6.826,0.781
		c-0.098,0.4-8.203,20.469-18.096,44.697l-18.096,44.004l-6.621,0.293C6384.707,2376.064,6384.121,2375.869,6383.32,2373.789z
		 M6402.304,2332.754l3.467-9.199h-14.736c-8.105,0-14.727,0.205-14.727,0.41c0,0.195,2.373,6.719,5.342,14.521
		c2.959,7.812,6.123,17.012,7.109,20.469l1.787,6.23l4.15-11.67C6396.972,2347.1,6400.332,2337.705,6402.304,2332.754z"/>
	<path fill="#231F20" d="M6442.558,2330.977v-44.98h28.174h28.184v5.43v5.439h-22.246h-22.256v39.551v39.551h-5.928h-5.928V2330.977
		z"/>
	<path fill="#231F20" d="M6543.398,2330.977v-44.98h5.947h5.928v21.25v21.26h23.232h23.232v-21.26v-21.25h5.938h5.928v44.98v44.99
		h-5.928h-5.938v-18.301v-18.281h-23.232h-23.232v18.281v18.301h-5.928h-5.947V2330.977z"/>
	<path fill="#231F20" d="M6657.207,2373.789c-2.959-7.51-31.143-81.074-32.324-84.141l-1.279-3.75l6.514,0.293l6.523,0.293
		l4.951,13.545l4.941,13.643h18.486h18.496l5.244-13.838l5.234-13.838h6.816c6.143,0,6.826,0.195,6.338,1.768
		c-0.303,0.898-8.506,21.074-18.193,44.697l-17.598,43.018l-6.631,0.293C6658.593,2376.064,6658.007,2375.869,6657.207,2373.789z
		 M6676.191,2332.754l3.467-9.199h-14.736c-8.105,0-14.727,0.205-14.727,0.508c0,0.195,1.982,5.43,4.248,11.562
		c4.453,11.475,7.91,21.748,9.102,26.992c0.586,2.666,1.182,1.68,4.941-8.896
		C6670.751,2347.197,6674.218,2337.705,6676.191,2332.754z"/>
	<path fill="#231F20" d="M6716.64,2331.27l0.293-44.785l5.635-0.293l5.742-0.293l0.195,34.893l0.293,34.902l23.232-34.805
		l23.232-34.795l6.24-0.098h6.123v44.98v44.99h-5.928h-5.928l-0.205-34.209l-0.303-34.209l-23.037,34.209l-23.037,34.209h-6.416
		h-6.328L6716.64,2331.27z"/>
	<path fill="#231F20" d="M6807.402,2331.074v-45.078h19.082c27.1,0,34.912,1.768,43.018,10.078
		c8.203,8.203,12.051,19.473,12.051,35.098c0,20.957-6.611,34.209-20.557,41.035l-6.631,3.271l-23.428,0.293l-23.535,0.391V2331.074
		z M6856.152,2361.836c9.092-5.342,12.754-14.053,12.852-29.863c0-17.607-4.248-27.598-13.848-32.236
		c-4.248-2.08-6.426-2.373-20.264-2.676l-15.615-0.391v34.307v34.307l16.104-0.293
		C6850.81,2364.6,6851.601,2364.502,6856.152,2361.836z"/>
	<path fill="#231F20" d="M6897.382,2330.977v-44.98h28.184h28.174v5.43v5.439h-22.246h-22.246v39.551v39.551h-5.938h-5.928V2330.977
		z"/>
	<path fill="#231F20" d="M6969.56,2330.977v-44.98h5.938h5.928v44.98v44.99h-5.928h-5.938V2330.977z"/>
	<path fill="#231F20" d="M7002.187,2330.977v-44.98h5.938h5.928l0.195,34.697l0.293,34.805l23.145-34.805l23.135-34.697h6.328h6.23
		v44.98v44.99h-5.938h-5.928v-34.805v-34.805l-23.428,34.805l-23.447,34.805h-6.221h-6.23V2330.977z"/>
</g>
</svg>
