<?xml version="1.0" encoding="utf-8"?>
<!-- Generator: Adobe Illustrator 24.0.2, SVG Export Plug-In . SVG Version: 6.00 Build 0)  -->
<svg version="1.1" id="Layer_1" xmlns="http://www.w3.org/2000/svg" xmlns:xlink="http://www.w3.org/1999/xlink" x="0px" y="0px"
	 viewBox="0 0 130 71" style="enable-background:new 0 0 130 71;" xml:space="preserve">
<style type="text/css">
	.Drop_x0020_Shadow{fill:none;}
	.Outer_x0020_Glow_x0020_5_x0020_pt{fill:none;}
	.Blue_x0020_Neon{fill:none;stroke:#8AACDA;stroke-width:7;stroke-linecap:round;stroke-linejoin:round;}
	.Chrome_x0020_Highlight{fill:url(#SVGID_1_);stroke:#FFFFFF;stroke-width:0.3629;stroke-miterlimit:1;}
	.Jive_GS{fill:#FFDD00;}
	.Alyssa_GS{fill:#A6D0E4;}
	.st0{fill:#BF2126;}
	.st1{fill:#231F20;}
</style>
<linearGradient id="SVGID_1_" gradientUnits="userSpaceOnUse" x1="0" y1="0" x2="6.123234e-17" y2="-1">
	<stop  offset="0" style="stop-color:#656565"/>
	<stop  offset="0.618" style="stop-color:#1B1B1B"/>
	<stop  offset="0.6292" style="stop-color:#545454"/>
	<stop  offset="0.9831" style="stop-color:#3E3E3E"/>
</linearGradient>
<g>
	<g>
		<path class="st0" d="M37.94,25.21c0.12-0.88-0.17-1.7-0.53-2.45c-0.37-0.75-0.85-1.44-1.37-2.09c-0.53-0.64-1.11-1.24-1.73-1.77
			c-0.62-0.53-1.28-1.01-1.96-1.42c-0.69-0.4-1.39-0.74-2.11-0.97c-0.72-0.23-1.45-0.38-2.16-0.41c-0.71-0.02-1.41,0.04-2.07,0.22
			c-0.33,0.09-0.66,0.2-0.98,0.34c-0.32,0.14-0.63,0.3-0.93,0.48c-0.3,0.18-0.6,0.38-0.88,0.6l-0.11,0.08
			c-0.06,0.05,0.08-0.06,0.06-0.05l-0.01,0.01l-0.02,0.01l-0.03,0.03l-0.06,0.05l-0.13,0.11l-0.06,0.05
			c-0.01,0.01-0.02,0.02-0.03,0.03l-0.26,0.29c-0.43,0.49-0.86,1.14-1.26,1.81c-0.4,0.68-0.78,1.4-1.13,2.14
			c-0.36,0.74-0.7,1.49-1.03,2.26c-0.33,0.77-0.64,1.55-0.94,2.34c-0.3,0.79-0.59,1.58-0.87,2.37c-0.28,0.8-0.54,1.6-0.78,2.39
			c-0.24,0.8-0.48,1.59-0.66,2.36l-3.17-2.9c1.47-0.5,2.94-0.94,4.42-1.34c1.48-0.4,2.98-0.73,4.49-1.01
			c1.51-0.29,3.04-0.52,4.58-0.69c1.55-0.17,3.12-0.26,4.76-0.21c0.82,0.03,1.66,0.09,2.53,0.24l0.16,0.03l0.08,0.01l0.14,0.03
			l0.14,0.03l0.08,0.02l0.13,0.03c0.09,0.02,0.18,0.05,0.26,0.07l0.22,0.07c0.14,0.05,0.29,0.11,0.43,0.17c0.57,0.25,1.1,0.6,1.55,1
			c0.45,0.4,0.82,0.86,1.12,1.32c0.3,0.46,0.53,0.94,0.71,1.41c0.36,0.94,0.55,1.86,0.64,2.76c0.18,1.79,0.02,3.49-0.35,5.15
			c-0.39,1.65-0.99,3.26-1.95,4.78l-0.19,0.28l-0.06,0.08l-0.01,0.01l-0.02,0.03l-0.04,0.06l-0.08,0.11
			c-0.08,0.11-0.31,0.39-0.49,0.6c-0.37,0.39-0.74,0.74-1.18,1.03c-0.85,0.6-1.81,0.97-2.72,1.18c-1.84,0.41-3.53,0.3-5.1,0.08
			c-1.58-0.23-3.07-0.56-4.53-0.93c-1.46-0.37-2.89-0.76-4.3-1.14c-1.42-0.38-2.83-0.73-4.24-1.01c-1.41-0.28-2.83-0.49-4.26-0.55
			c-1.42-0.06-2.85,0.03-4.24,0.38c-0.69,0.18-1.38,0.41-2.03,0.73c-0.66,0.32-1.28,0.7-1.88,1.15c0.96-1.14,2.22-2.07,3.62-2.7
			c1.41-0.64,2.94-0.99,4.47-1.16c1.54-0.16,3.08-0.16,4.6-0.05c1.52,0.1,3.03,0.29,4.51,0.51c1.48,0.21,2.95,0.47,4.39,0.68
			c1.44,0.21,2.87,0.42,4.24,0.49c1.36,0.07,2.69,0.01,3.73-0.31c0.51-0.17,0.95-0.39,1.29-0.67c0.17-0.13,0.33-0.31,0.46-0.46
			c0.05-0.08,0.07-0.08,0.2-0.28l0.08-0.12l0.04-0.06l0.02-0.03l0.01-0.01c-0.09,0.13-0.02,0.03-0.04,0.06l0.11-0.19
			c0.58-1.01,0.99-2.24,1.21-3.48c0.24-1.24,0.3-2.53,0.14-3.68c-0.08-0.57-0.22-1.11-0.41-1.55c-0.19-0.44-0.42-0.75-0.63-0.92
			c-0.1-0.09-0.2-0.14-0.32-0.19c-0.03-0.01-0.06-0.02-0.09-0.03l-0.05-0.01c-0.01,0-0.01,0-0.01,0l0,0c0,0,0,0-0.02,0l-0.03-0.01
			l-0.14-0.03l-0.02,0c-0.02,0,0.11,0.02,0.05,0.01l-0.03,0l-0.06-0.01l-0.11-0.02c-0.59-0.09-1.23-0.13-1.89-0.14
			c-1.32-0.02-2.71,0.09-4.11,0.24c-1.39,0.16-2.8,0.38-4.19,0.66c-1.4,0.27-2.79,0.6-4.17,0.95c-1.38,0.36-2.75,0.76-4.09,1.21
			l-4.29,1.45l1.13-4.35c0.24-0.92,0.49-1.8,0.78-2.66c0.29-0.86,0.59-1.71,0.91-2.55c0.32-0.84,0.65-1.68,1-2.51
			c0.36-0.83,0.73-1.65,1.13-2.46c0.79-1.64,1.66-3.24,2.74-4.82c0.55-0.79,1.12-1.57,1.91-2.33c0.1-0.1,0.19-0.18,0.31-0.29
			c0.13-0.11,0.25-0.22,0.38-0.32l0.09-0.08l0.07-0.05l0.13-0.09l0.2-0.15l0.16-0.1c0.43-0.27,0.89-0.51,1.36-0.73
			c0.94-0.44,1.97-0.74,3.02-0.88c1.05-0.14,2.12-0.1,3.13,0.09c1.01,0.2,1.98,0.54,2.85,1c0.88,0.46,1.68,1.01,2.4,1.63
			c0.72,0.63,1.37,1.31,1.94,2.04c0.57,0.74,1.07,1.52,1.48,2.34c0.41,0.82,0.74,1.69,0.93,2.59c0.09,0.45,0.14,0.91,0.13,1.37
			C38.22,24.35,38.14,24.82,37.94,25.21z"/>
		<path class="st0" d="M45.78,24.43c0,0-0.01,0.79-0.09,2.15c-0.02,0.34-0.04,0.72-0.07,1.12c-0.03,0.41-0.06,0.85-0.1,1.32
			c-0.03,0.47-0.08,0.97-0.12,1.5c-0.04,0.53-0.09,1.08-0.15,1.65c-0.05,0.57-0.11,1.17-0.17,1.79c-0.03,0.31-0.06,0.62-0.09,0.94
			c-0.03,0.32-0.06,0.64-0.1,0.97c-0.12,1.3-0.25,2.68-0.38,4.1c-0.07,0.71-0.12,1.43-0.17,2.15c-0.03,0.36-0.05,0.73-0.08,1.09
			c-0.02,0.36-0.04,0.73-0.06,1.1c-0.09,1.47-0.14,2.96-0.15,4.43l0,0.14l0,0.12l0,0.14l0,0.11c0,0.13,0.02,0.3,0.03,0.44
			c0.03,0.29,0.07,0.56,0.13,0.79c0.06,0.23,0.13,0.42,0.21,0.55c0.07,0.13,0.14,0.2,0.2,0.26c0.07,0.06,0.15,0.12,0.3,0.16
			c0.15,0.05,0.35,0.08,0.59,0.08c0.48,0.02,1.07-0.06,1.67-0.21c0.6-0.14,1.22-0.33,1.82-0.55c0.61-0.22,1.21-0.45,1.79-0.7
			c1.17-0.49,2.28-1.01,3.32-1.5c1.04-0.49,2-0.95,2.84-1.35c0.86-0.4,1.61-0.75,2.24-1.02c0.63-0.27,1.14-0.47,1.49-0.59
			c0.35-0.13,0.54-0.18,0.54-0.18s-0.14,0.14-0.41,0.39c-0.26,0.25-0.65,0.63-1.14,1.1c-0.49,0.48-1.09,1.04-1.8,1.68
			c-0.36,0.31-0.74,0.65-1.15,1c-0.41,0.34-0.84,0.7-1.31,1.07c-0.93,0.73-1.97,1.49-3.14,2.22c-1.18,0.73-2.48,1.45-4.04,1.99
			c-0.79,0.26-1.64,0.49-2.65,0.54c-0.5,0.02-1.05-0.01-1.63-0.14c-0.58-0.13-1.19-0.39-1.74-0.78c-0.55-0.39-0.99-0.91-1.3-1.43
			c-0.31-0.53-0.52-1.06-0.66-1.57c-0.14-0.51-0.22-1-0.26-1.47c-0.02-0.24-0.03-0.46-0.04-0.71l0-0.18v-0.14l0-0.32
			c0.01-1.61,0.16-3.2,0.33-4.75c0.05-0.39,0.1-0.77,0.15-1.15c0.06-0.38,0.11-0.76,0.17-1.13c0.12-0.75,0.26-1.49,0.4-2.21
			c0.14-0.72,0.3-1.43,0.46-2.11c0.15-0.69,0.33-1.36,0.5-2c0.34-1.3,0.7-2.51,1.05-3.62c0.35-1.11,0.7-2.13,1.03-3.02
			c0.32-0.89,0.62-1.67,0.88-2.3C45.44,25.14,45.78,24.43,45.78,24.43z"/>
		<path class="st1" d="M11.59,51.38c0,0-0.03-0.09-0.09-0.25c-0.03-0.08-0.03-0.21-0.04-0.36c0.01-0.07,0.02-0.15,0.04-0.24
			c0.02-0.09,0.07-0.17,0.11-0.27c0.2-0.38,0.67-0.72,1.19-0.87c0.53-0.16,1.13-0.2,1.76-0.13c0.63,0.08,1.3,0.26,1.98,0.63
			c0.34,0.18,0.68,0.42,1.01,0.74c0.33,0.3,0.64,0.72,0.88,1.22c0.24,0.5,0.37,1.14,0.33,1.77c-0.01,0.32-0.09,0.61-0.17,0.91
			c-0.05,0.14-0.1,0.27-0.16,0.41c-0.03,0.07-0.06,0.14-0.09,0.2l-0.1,0.18c-0.07,0.12-0.14,0.24-0.21,0.35l-0.23,0.3
			c-0.16,0.21-0.32,0.37-0.49,0.54l-0.13,0.13l-0.18,0.15l-0.19,0.16l-0.1,0.08c-0.04,0.03-0.05,0.05-0.12,0.09l-0.33,0.23
			c-0.11,0.07-0.23,0.15-0.34,0.21l-0.33,0.17c-0.22,0.12-0.46,0.2-0.7,0.28c-0.48,0.17-1.02,0.24-1.54,0.25
			c-1.06,0-2.05-0.36-2.8-0.88c-0.75-0.52-1.3-1.18-1.68-1.87c-0.37-0.7-0.57-1.45-0.55-2.23c0.02-0.2,0.03-0.39,0.09-0.59
			c0.03-0.1,0.04-0.19,0.08-0.28c0.04-0.1,0.08-0.19,0.12-0.28c0.19-0.35,0.47-0.66,0.78-0.81c0.08-0.04,0.15-0.08,0.22-0.11
			c0.07-0.02,0.14-0.04,0.21-0.06c0.07-0.02,0.14-0.04,0.2-0.05c0.06,0,0.13-0.01,0.19-0.01c0.24-0.02,0.44,0.03,0.62,0.06
			c0.34,0.09,0.58,0.2,0.73,0.3c0.15,0.09,0.23,0.14,0.23,0.14s-0.09,0.03-0.25,0.09c-0.08,0.03-0.18,0.05-0.29,0.1
			c-0.11,0.05-0.23,0.09-0.36,0.16c-0.24,0.13-0.5,0.34-0.54,0.54c-0.03,0.1,0.01,0.18,0.04,0.26c0.04,0.08,0.09,0.18,0.16,0.3
			c0.15,0.24,0.4,0.53,0.7,0.78c0.31,0.25,0.67,0.46,1.01,0.58c0.35,0.11,0.67,0.13,0.95,0.09c0.14-0.04,0.28-0.06,0.44-0.13
			c0.08-0.03,0.15-0.06,0.24-0.11l0.12-0.06c0.04-0.02,0.06-0.04,0.09-0.06c0.03-0.02,0.06-0.03,0.09-0.05
			c0.01,0,0.05-0.04,0.08-0.06l0.1-0.08l0.2-0.16l0.05-0.04l0.03-0.02c0.02-0.01-0.13,0.12-0.07,0.06l0,0l0.01-0.01l0.05-0.05
			c0.07-0.07,0.16-0.13,0.21-0.19c0.03-0.03,0.06-0.06,0.09-0.09c0.02-0.03,0.04-0.05,0.06-0.07l0.03-0.03
			c0.01-0.01,0.01-0.02,0.02-0.03c0.01-0.02,0.03-0.03,0.04-0.05c0.01-0.02,0.04-0.04,0.05-0.05c0.03-0.02,0.07-0.04,0.07-0.13
			c0.02-0.17-0.14-0.53-0.41-0.84c-0.26-0.32-0.59-0.62-0.93-0.85c-0.34-0.23-0.68-0.41-0.97-0.51c-0.3-0.11-0.54-0.14-0.75-0.08
			c-0.11,0.03-0.19,0.09-0.28,0.15c-0.06,0.07-0.13,0.13-0.18,0.2C11.63,51.29,11.59,51.38,11.59,51.38z"/>
		<path class="st1" d="M28.22,51.38c0,0-0.03-0.09-0.09-0.25c-0.03-0.08-0.03-0.21-0.04-0.36c0.01-0.07,0.02-0.15,0.04-0.24
			c0.02-0.09,0.07-0.17,0.11-0.27c0.2-0.38,0.67-0.72,1.19-0.87c0.53-0.16,1.13-0.2,1.76-0.13c0.63,0.08,1.3,0.26,1.99,0.63
			c0.34,0.18,0.68,0.42,1.01,0.74c0.33,0.3,0.64,0.72,0.88,1.22c0.24,0.5,0.37,1.14,0.33,1.77c-0.01,0.32-0.09,0.61-0.17,0.91
			c-0.05,0.14-0.1,0.27-0.16,0.41c-0.03,0.07-0.06,0.14-0.09,0.2l-0.1,0.18c-0.07,0.12-0.14,0.24-0.21,0.35l-0.23,0.3
			c-0.16,0.21-0.32,0.37-0.49,0.54l-0.13,0.13l-0.18,0.15l-0.19,0.16l-0.1,0.08c-0.04,0.03-0.05,0.05-0.12,0.09l-0.33,0.23
			c-0.11,0.07-0.23,0.15-0.34,0.21l-0.33,0.17c-0.22,0.12-0.46,0.2-0.7,0.28c-0.48,0.17-1.02,0.24-1.54,0.25
			c-1.06,0-2.05-0.36-2.8-0.88c-0.75-0.52-1.3-1.18-1.68-1.87c-0.37-0.7-0.57-1.45-0.55-2.23c0.02-0.2,0.03-0.39,0.09-0.59
			c0.03-0.1,0.04-0.19,0.08-0.28c0.04-0.1,0.08-0.19,0.12-0.28c0.19-0.35,0.47-0.66,0.78-0.81c0.08-0.04,0.15-0.08,0.22-0.11
			c0.07-0.02,0.15-0.04,0.21-0.06c0.07-0.02,0.14-0.04,0.2-0.05c0.06,0,0.13-0.01,0.19-0.01c0.24-0.02,0.44,0.03,0.62,0.06
			c0.34,0.09,0.58,0.2,0.73,0.3c0.15,0.09,0.23,0.14,0.23,0.14s-0.09,0.03-0.25,0.09c-0.08,0.03-0.18,0.05-0.29,0.1
			c-0.11,0.05-0.23,0.09-0.36,0.16c-0.24,0.13-0.5,0.34-0.54,0.54c-0.03,0.1,0.01,0.18,0.04,0.26c0.04,0.08,0.09,0.18,0.16,0.3
			c0.15,0.24,0.4,0.53,0.7,0.78c0.31,0.25,0.67,0.46,1.01,0.58c0.35,0.11,0.67,0.13,0.95,0.09c0.14-0.04,0.28-0.06,0.44-0.13
			c0.08-0.03,0.15-0.06,0.23-0.11l0.12-0.06c0.04-0.02,0.06-0.04,0.09-0.06c0.03-0.02,0.06-0.03,0.09-0.05
			c0.01,0,0.05-0.04,0.08-0.06l0.1-0.08l0.2-0.16l0.05-0.04l0.03-0.02c0.02-0.01-0.13,0.12-0.07,0.06l0,0l0.01-0.01l0.05-0.05
			c0.07-0.07,0.16-0.13,0.21-0.19c0.03-0.03,0.06-0.06,0.09-0.09c0.02-0.03,0.04-0.05,0.06-0.07l0.03-0.03
			c0.01-0.01,0.01-0.02,0.02-0.03c0.01-0.02,0.03-0.03,0.04-0.05c0.01-0.02,0.04-0.04,0.05-0.05c0.03-0.02,0.07-0.04,0.07-0.13
			c0.02-0.17-0.14-0.53-0.41-0.84c-0.26-0.32-0.59-0.62-0.93-0.85c-0.34-0.23-0.67-0.41-0.97-0.51c-0.3-0.11-0.54-0.14-0.75-0.08
			c-0.11,0.03-0.19,0.09-0.28,0.15c-0.06,0.07-0.13,0.13-0.18,0.2C28.27,51.29,28.22,51.38,28.22,51.38z"/>
	</g>
	<g>
		<g>
			<g>
				<path class="st1" d="M57.73,34.29c1.9,0,3.47,0.37,3.47,1.64c0,0.36-0.15,0.81-0.44,1.33c0-1.32-1.56-1.6-3.02-1.6
					c-1.15,0-1.98,0.33-1.98,1.23c0,2.18,5.76,0.04,5.76,4.22c0,1.95-1.64,2.92-3.88,2.92c-1.65,0-3.49-0.41-3.49-1.65
					c0-0.34,0.15-0.75,0.48-1.23c0,1.28,1.73,1.52,3.01,1.52c1.37,0,2.05-0.54,2.05-1.44c0-2.44-5.74-0.34-5.74-4.15
					C53.94,34.95,55.64,34.29,57.73,34.29z"/>
				<path class="st1" d="M64.74,44.02c0,0-1.77,0-1.77-0.86v-8.85c0,0,1.77,0,1.77,0.86v3.08c1.35-0.28,2.22-1.4,3.17-3.1
					c0.38-0.7,1.04-0.86,1.52-0.86c0.33,0,0.81,0.12,0.81,0.12c-1.03,1.62-1.86,3.79-3.58,4.45c1.47,0.41,2.53,2.27,3.22,3.67
					c0.24,0.46,0.42,0.86,0.75,1.33c0,0-0.53,0.13-0.81,0.13c-0.46,0-1.25-0.16-1.64-0.86c-0.83-1.49-1.58-3.29-3.45-3.66V44.02z"/>
				<path class="st1" d="M72.91,43.88c0,0-1.44,0-1.44-0.86v-8.71c0,0,1.77,0,1.77,0.86v7.41h2.94c1.12,0,1.47-0.21,1.47-0.21
					c0,0.69-0.18,1.52-0.99,1.52H72.91z"/>
				<path class="st1" d="M84.79,38.18l1.12,3.47c0.32,0.99,0.55,1.78,0.82,2.18c0,0-0.44,0.15-0.74,0.15
					c-1.24,0-1.54-1.07-1.87-2.06l-0.22-0.7h-3.33l-0.22,0.7c-0.33,0.99-0.63,2.06-1.87,2.06c-0.3,0-0.74-0.15-0.74-0.15
					c0.26-0.4,0.5-1.19,0.82-2.18l1.12-3.47c0.88-2.72,2.36-3.91,2.56-4.04C82.43,34.27,83.91,35.46,84.79,38.18z M81.36,38.52
					l-0.41,1.37h2.56l-0.41-1.37c-0.33-1.11-0.87-2.23-0.87-2.23C82.02,36.62,81.69,37.41,81.36,38.52z"/>
				<path class="st1" d="M89.07,43.88c-0.13,0-1.41-0.04-1.41-0.86v-8.58h3.83c2.11,0,4.11,0.7,4.11,3.25v2.94
					c0,2.55-1.99,3.25-4.11,3.25H89.07z M89.43,35.75v6.83h2.06c1.31,0,2.34-0.5,2.34-2.07v-2.69c0-1.57-1.03-2.06-2.34-2.06H89.43z
					"/>
				<path class="st1" d="M97.31,34.31c0,0,1.77,0,1.77,0.86v8.85c0,0-1.77,0-1.77-0.86V34.31z"/>
				<path class="st1" d="M104.32,34.29c1.9,0,3.47,0.37,3.47,1.64c0,0.36-0.15,0.81-0.44,1.33c0-1.32-1.56-1.6-3.02-1.6
					c-1.15,0-1.98,0.33-1.98,1.23c0,2.18,5.76,0.04,5.76,4.22c0,1.95-1.64,2.92-3.88,2.92c-1.65,0-3.49-0.41-3.49-1.65
					c0-0.34,0.15-0.75,0.48-1.23c0,1.28,1.73,1.52,3.01,1.52c1.37,0,2.05-0.54,2.05-1.44c0-2.44-5.74-0.34-5.74-4.15
					C100.53,34.95,102.23,34.29,104.32,34.29z M104.26,32.58c0,0,1.21-0.84,0.83-1.45c1.98,0.73,1.07,1.37-0.63,2.65h-0.4
					c-1.7-1.27-2.64-1.93-0.65-2.65C103.02,31.71,104.26,32.58,104.26,32.58z"/>
				<path class="st1" d="M115.82,41.26c0,0-0.16-0.75-0.16-1.4v-5.41c0,0,1.77,0,1.77,0.86v8.71c-1.99,0-2.4-0.95-2.4-0.95
					l-3.84-6.1c0,0,0.15,0.75,0.15,1.4v5.65c0,0-1.77,0-1.77-0.86v-8.71c1.06,0,1.93,0,2.39,0.75L115.82,41.26z"/>
				<path class="st1" d="M125.41,38.18l1.12,3.47c0.32,0.99,0.55,1.78,0.82,2.18c0,0-0.44,0.15-0.74,0.15
					c-1.24,0-1.54-1.07-1.87-2.06l-0.22-0.7h-3.33l-0.22,0.7c-0.33,0.99-0.63,2.06-1.87,2.06c-0.3,0-0.74-0.15-0.74-0.15
					c0.26-0.4,0.5-1.19,0.82-2.18l1.12-3.47c0.88-2.72,2.36-3.91,2.56-4.04C123.05,34.27,124.53,35.46,125.41,38.18z M121.98,38.52
					l-0.41,1.37h2.56l-0.41-1.37c-0.33-1.11-0.87-2.23-0.87-2.23C122.64,36.62,122.31,37.41,121.98,38.52z"/>
			</g>
		</g>
		<g>
			<g>
				<path class="st1" d="M63.98,57.93c0,0-1.44,0-1.44-0.86v-8.71c0,0,1.77,0,1.77,0.86v7.41h2.94c1.12,0,1.47-0.21,1.47-0.21
					c0,0.69-0.18,1.52-0.99,1.52H63.98z"/>
				<path class="st1" d="M77.54,54.96c0,1.95-1.27,3.13-3.97,3.13c-2.72,0-3.97-1.18-3.97-3.13v-3.5c0-1.95,1.25-3.13,3.97-3.13
					c2.71,0,3.97,1.18,3.97,3.13V54.96z M75.77,51.63c0-1.25-0.36-1.99-2.22-1.99c-1.84,0-2.19,0.74-2.19,1.99v3.16
					c0,1.25,0.36,1.99,2.19,1.99c1.86,0,2.22-0.74,2.22-1.99V51.63z"/>
				<path class="st1" d="M79.13,51.58c0-2.4,1.86-3.25,3.97-3.25c1.77,0,3.68,0.49,3.68,1.8c0,0.33-0.12,0.71-0.41,1.16
					c-0.33-1.23-1.94-1.58-3.27-1.58c-1.29,0-2.2,0.49-2.2,2.06v2.88c0,1.57,0.91,2.07,2.2,2.07c1.29,0,2.2-0.26,2.2-1.94v-0.42
					h-1.52c-0.86,0-1.1-0.67-1.1-1.48c0,0,0.36,0.17,1.32,0.17h3.06v1.93c0,2.35-1.86,3.12-3.97,3.12c-2.11,0-3.97-0.84-3.97-3.25
					V51.58z"/>
				<path class="st1" d="M88.79,48.36c0,0,1.77,0,1.77,0.86v8.85c0,0-1.77,0-1.77-0.86V48.36z"/>
				<path class="st1" d="M95.8,48.33c1.9,0,3.47,0.37,3.47,1.64c0,0.36-0.15,0.81-0.44,1.33c0-1.32-1.56-1.6-3.02-1.6
					c-1.15,0-1.98,0.33-1.98,1.23c0,2.18,5.76,0.04,5.76,4.22c0,1.95-1.64,2.92-3.88,2.92c-1.65,0-3.49-0.41-3.49-1.65
					c0-0.34,0.15-0.75,0.48-1.23c0,1.28,1.73,1.52,3.01,1.52c1.37,0,2.05-0.54,2.05-1.44c0-2.44-5.74-0.34-5.74-4.15
					C92.01,48.99,93.71,48.33,95.8,48.33z"/>
				<path class="st1" d="M104.39,49.8v8.26c0,0-1.77,0-1.77-0.86V49.8H101c-1.1,0-1.25-0.83-1.25-1.52c0,0,0.46,0.21,1.47,0.21h4.63
					c1,0,1.47-0.21,1.47-0.21c0,0.69-0.16,1.52-1.25,1.52H104.39z"/>
				<path class="st1" d="M108.26,48.36c0,0,1.77,0,1.77,0.86v8.85c0,0-1.77,0-1.77-0.86V48.36z"/>
				<path class="st1" d="M113.65,58.06c0,0-1.77,0-1.77-0.86v-8.85c0,0,1.77,0,1.77,0.86v3.08c1.35-0.28,2.22-1.4,3.17-3.1
					c0.38-0.7,1.04-0.86,1.52-0.86c0.33,0,0.81,0.12,0.81,0.12c-1.03,1.62-1.86,3.79-3.58,4.45c1.47,0.41,2.53,2.27,3.22,3.67
					c0.24,0.46,0.42,0.86,0.75,1.33c0,0-0.53,0.13-0.81,0.13c-0.46,0-1.25-0.16-1.64-0.86c-0.83-1.49-1.58-3.29-3.45-3.66V58.06z"/>
				<path class="st1" d="M126.52,52.23l1.12,3.47c0.32,0.99,0.55,1.78,0.82,2.18c0,0-0.44,0.15-0.74,0.15
					c-1.24,0-1.54-1.07-1.87-2.06l-0.22-0.7h-3.33l-0.22,0.7c-0.33,0.99-0.63,2.06-1.87,2.06c-0.3,0-0.74-0.15-0.74-0.15
					c0.26-0.4,0.5-1.19,0.82-2.18l1.12-3.47c0.88-2.72,2.36-3.91,2.56-4.04C124.16,48.32,125.64,49.51,126.52,52.23z M123.09,52.57
					l-0.41,1.37h2.56l-0.41-1.37c-0.33-1.11-0.87-2.23-0.87-2.23C123.75,50.67,123.42,51.46,123.09,52.57z"/>
			</g>
		</g>
	</g>
</g>
</svg>
