<?xml version="1.0" encoding="utf-8"?>
<!-- Generator: Adobe Illustrator 16.0.0, SVG Export Plug-In . SVG Version: 6.00 Build 0)  -->
<!DOCTYPE svg PUBLIC "-//W3C//DTD SVG 1.1//EN" "http://www.w3.org/Graphics/SVG/1.1/DTD/svg11.dtd" [
	<!ENTITY ns_extend "http://ns.adobe.com/Extensibility/1.0/">
	<!ENTITY ns_ai "http://ns.adobe.com/AdobeIllustrator/10.0/">
	<!ENTITY ns_graphs "http://ns.adobe.com/Graphs/1.0/">
	<!ENTITY ns_vars "http://ns.adobe.com/Variables/1.0/">
	<!ENTITY ns_imrep "http://ns.adobe.com/ImageReplacement/1.0/">
	<!ENTITY ns_sfw "http://ns.adobe.com/SaveForWeb/1.0/">
	<!ENTITY ns_custom "http://ns.adobe.com/GenericCustomNamespace/1.0/">
	<!ENTITY ns_adobe_xpath "http://ns.adobe.com/XPath/1.0/">
]>
<svg version="1.1" xmlns:x="&ns_extend;" xmlns:i="&ns_ai;" xmlns:graph="&ns_graphs;"
	 xmlns="http://www.w3.org/2000/svg" xmlns:xlink="http://www.w3.org/1999/xlink" x="0px" y="0px" width="1140px" height="600px"
	 viewBox="-263.755 -0.294 1140 600" enable-background="new -263.755 -0.294 1140 600" xml:space="preserve">
<metadata>
	<sfw  xmlns="&ns_sfw;">
		<slices></slices>
		<sliceSourceBounds  width="1080.802" height="575.151" x="-390.587" y="-136.694" bottomLeftOrigin="true"></sliceSourceBounds>
	</sfw>
</metadata>
<g id="Layer_1" xmlns:rdf="http://www.w3.org/1999/02/22-rdf-syntax-ns#" xmlns:mapsvg="http://mapsvg.com" xmlns:dc="http://purl.org/dc/elements/1.1/" xmlns:svg="http://www.w3.org/2000/svg" mapsvg:geoViewBox="13.491998 46.542613 19.405604 42.403924">
	<g>
		<path id="HR-01" fill="#CCCCCC" d="M287.697,98.041l0.639,2.742l1.223,0.797l0.315,2.687l1.677,1.399l3.845-1.964l0,0l1.964,1.789
			l0.556-0.908l1.288,0.324l2.604,2.428l2.038-0.686l1.445,1.093l0.352,1.89l2.048,0.973l0.454,4.058l3.261-1.927l0.778,1.297
			l2.779-0.361l5.114,5.309l1.343-0.991l2.113,1.334l2.269-0.491l0.65-0.982l3.557,0.843l0,0l-0.186,4.568l0.76,2.641l-1.631,3.659
			l0.528,2.076l-1.751-1.316l-2.52,0.713l-0.557-1.575l-0.648,1.807l-3.233,1.575l0.38,3.567l-2.64-1.538l-6.755,0.658l0.724,1.881
			l-1.271,1.167l1.992,1.52l-1.657,1.908l-0.187,2.65l2.058,0.602l1.687,2.223l2.917,0.056l1.261,1.131l0.158,2.27l1.398-0.575
			l2.13,2.807l0,0h0.074l0,0l-2.603,6.245L316,160.484l-4.271,3.947l-1.455,3.03l-1.084,0.167l-1.677-3.622l-1.677-1.084
			l-2.27-0.056l-0.815-2.918l-1.353-1.297l-4.104,1.029v-2.214l-0.927-1.195l-4.206,2.047l-1.13,1.918l-0.473-0.853l-0.926,0.103
			l-1.27,1.241l0.259,0.889l-1.992,1.408l-0.945-1.241l-2.298,0.445l-6.689-4.457l-4.984,5.123l0.63,1.927l-2.816,2.354l3.641,3.66
			l0.408,4.252l-1.028,1.186l0.583,4.419l-1.797,0.695l-0.583,1.27l-3.484-4.707l-2.289-0.658l-3.001,2.474l-5.123-0.305l0,0
			l-0.223-0.028l0,0l-1.371-1.705l0.797-1.77l-0.288-2.094l-1.806-2.177l-3.029,0.167l-0.223-2.26l-2.78-0.259l-2.52,3.187
			l-1.853,0.481l-0.843-2.223l-1.195,0.176l-2.659-3.539l0.853-1.788l-0.436-3.141l-1.917,1.612l-2.743-1.872l-3.048,0.204
			l-4.957-3.094l-7.875,6.55l-0.797-1.427l1.232-2.872l-1.946,0.815l-0.88-0.862l1.028-2.687l-0.509-1.705l-3.919-2.845l-1.27-0.102
			l-0.185-2.159l-1.501-2.159l-3.141-0.361l-1.51-3.595l-3.576-2.344l-2.103-0.287l-0.083-1.112l1.112-1.056l-0.083-2.576l0,0
			l3.493-1.093l2.78-2.001l5.948-0.352l-0.713-2.956l2.418-1.695l1.065,1.325l2.251-0.204l1.306-3.419l2.039,1.362l1.186-1.89
			l5.383,2.771l1.307,1.742l2.233-2.854l3.789-0.51l0.083-0.833l-2.019-1.594l0.639-0.889l-1.084-4.697l2.612-2.696l0.046-6.596l0,0
			l1.492,0.686l3.669-0.741l0.769,1.14l1.269-3.039l3.197-0.037l8.236,4.095l4.03,3.78l0.297,3.076l0,0l-10.784,7.087l-1.612,3.094
			l1.649,5.568l-1.937,2.39l5.021,3.316l-0.667,2.789l-1.649,1.278l-1.149-1.621l-2.455,0.102l-0.945-1.427l-1.38,0.899
			l-1.492,3.001l0.797,3.53l4.244,2.641l4.308,1.427l3.446,3.4l-0.333,3.058h3.465l1.945-1.612l3.298-7.013l0.843-5.504l2.288-0.417
			l1.093-3.808l5.077-2.622l1.779-2.529l2.992-1.038l1.149-1.158l-0.148-0.982l5.132,1.464l0.473-4.549l2.844-1.473l-2.937-6.791
			l-2.334-1.075l-0.833-3.344l0.676-2.131l-2.15-4.447l0,0l-0.472-1.121l0.593-1.733l3.076-2.27l-0.463-1.687l3.206-0.537
			l-1.76-4.309l2.066,0.204L287.697,98.041z"/>
		<path id="HR-02" fill="#CCCCCC" d="M250.221,69.691l1.01,1.464l0.362,4.336l4.363,1.454l1.149,1.02l0.287,1.658l3.882,0.89l0,0
			l1.223,1.139l2.779,0.056l0,0l6.318-1.362l1.964,0.204l0.778,1.88l3.076,0.121l1.881-2.77l3.168-1.177l0.806,0.955l-1.232,1.39
			l5.096,0.528l-1.593,2.177l2.075,2.668l-1.148,8.153l1.232,3.567l0,0l-3.41,2.446l-2.066-0.204l1.76,4.309l-3.206,0.537
			l0.463,1.687l-3.076,2.27l-0.593,1.733l0.473,1.121l0,0l-3.688-0.083l-0.648,1.76l-3.243,0.333l-2.854,2.28l-9.283,4.206l0,0
			l-0.296-3.076l-4.03-3.78l-8.236-4.095l-3.196,0.037l-1.269,3.039l-0.769-1.139l-3.669,0.741l-1.491-0.686l0,0l-0.649-4.141
			l1.028-0.519l0.074-1.343l0.445-0.797l-0.139-2.076l1.51-1.269l-1.622-2.076l-4.178-2.057l-1.149,0.528l-0.111-1.427l-1.019-0.88
			l-1.464,0.473l-1.02-0.676l0.232-1.187l-1.001-0.37l-0.843-2.122l0.686-2.909l-1.399-1.26l1.649-0.954l-0.936-1.473l3.91-3.4
			l0.25-2.288l-0.648-0.528l0.732-1.297l2.983-1.464l4.502,0.695l0.176,0.899l2.048-0.723l-0.019,1.492l1.575,0.176l1.899-1
			l1.371-3.039l-0.787-2.427l3.029-0.371l0.797-1.075l1.649,0.111L250.221,69.691z"/>
		<path id="HR-03" fill="#CCCCCC" d="M247.896,213.238l-2.798-1.529l-1.427-2.288l1.038-3.585l1.955-1.362l-3.845-7.699l0.518-2.214
			l4.114-1.631l1.074-1.213l-1.093-5.985l1.538-3.826l-1.742-0.861l1.788-2.131l1.232-1.176l2.418-0.325l3.196,2.863l0.769-0.843
			l0,0l0.223,0.028l0,0l5.123,0.305l3.002-2.474l2.288,0.658l3.484,4.707l0.583-1.27l1.797-0.695l-0.583-4.419l1.028-1.186
			l-0.408-4.252l-3.641-3.66l2.816-2.354l-0.629-1.927l4.984-5.123l6.689,4.457l2.298-0.445l0.944,1.241l1.992-1.408l-0.26-0.889
			l1.27-1.241l0.926-0.103l0.473,0.853l1.13-1.918l4.206-2.047l0.927,1.195v2.214l4.104-1.029l1.353,1.297l0.815,2.918l2.27,0.056
			l1.676,1.084l1.677,3.622l1.084-0.167l1.455-3.03l4.271-3.947l4.438-1.074l2.603-6.245l0,0l0.168,0.009l0,0l3.511-0.667
			l0.575,1.955l1.981,0.306l0,0l1.307-0.315l0,0l1.761,1.13l1.491,3.021l1.944,0.833l1.595,0.13l1.232-1.065l1.362,0.583l0.49,4.327
			l1.279,2.789l3.751,2.427l1.455,3.168l-1.324,2.326l-2.066-0.565l-0.612,0.981l2.308,2.057l1.556-0.871l0.14,1.278l3.206,1.177
			l0.639,1.992l1.964-0.639l0.436-1.288l0,0l2.067,3.456l3.798-0.046l1.889,1.538l1.279,3.928l0.751-0.055l-0.148-1.362l1.5-0.204
			l-0.249-2.001l1.307,0.241l0.667,2.103l-1.271,0.797l-0.528,2.798l6.162,2.798l1.538,1.565l0.481,2.27l4.095-0.667l0,0
			l-0.416,1.89l0.936,1.269l-1.141,2.039l0.594,2.307l-1.891,0.843l-4.086,5.059l-3.853,1.547l-0.789,2.159l4.067,3.215l3.15,6.086
			l0,0l-9.08-5.299l-1.407-3.243l-1.482,1.371l-1.065-0.046l1.093-2.779l-1.473-0.315l-0.102,1.64l-1.057,0.639l-0.861-1
			l-0.047-1.992l-1.26-0.954l-0.704,0.963l1.167,0.815l0.084,1.306l-1.538-0.538l-1.845,0.713l-0.333-2.362l1.64-1.723l-1.981-2.613
			l-1.27,0.463l-0.751,2.501l-2.121,1.167l-1.065,1.881l-0.983-0.556l-1,1.075l-1.019,0.879l-1.204,0.834l0.833,2.835l-2.287,1.353
			l-8.505-3.011l-3.503,1.436l-4.752-1.649l-4.217-2.918l-4.594,1.232l-2.076-0.815l-3.817,2.418l-1.695,3.66l0.009,3.076
			l-1.177,2.437l-6.364,3.947l0.769,2.956l-1.464,1.797l-0.5,3.521l-0.853,0.028l-1.621,2.687l-0.259,3.854l-4.271,0.481
			l-3.919-0.398l-0.648-1.26l-3.391,0.185l-0.769-2.594l-1.955-0.982l-4.938-5.642l-6.318-2.992l-0.519-3.613l-1.427-1.751
			l-0.093-1.733l-1.315-0.148l-0.612-2.78l-2.974-0.231l1.279-2.149l-0.686-2.316l-2.251-0.5l-2.103-1.64l-3.53,2.659l-1.075-1.334
			l-0.13-2.363l-0.722,0.742l-2.15-0.398l0.139,1.436L247.896,213.238z"/>
		<path id="HR-04" fill="#CCCCCC" d="M200.609,138.555l0.083,2.576l-1.112,1.056l0.084,1.112l2.103,0.287l3.576,2.344l1.51,3.595
			l3.141,0.361l1.501,2.159l0.185,2.159l1.27,0.102l3.919,2.845l0.509,1.705l-1.028,2.687l0.88,0.862l1.946-0.815l-1.232,2.872
			l0.797,1.427l7.875-6.55l4.957,3.094l3.048-0.204l2.742,1.872l1.917-1.612l0.436,3.141l-0.852,1.788l2.659,3.539l1.195-0.176
			l0.843,2.223l1.853-0.481l2.52-3.187l2.78,0.259l0.223,2.26l3.029-0.167l1.807,2.177l0.287,2.094l-0.797,1.77l1.371,1.705l0,0l0,0
			l0,0l-0.769,0.843l-3.196-2.863l-2.418,0.325l-1.232,1.176l-1.788,2.131l1.742,0.861l-1.538,3.826l1.093,5.985l-1.075,1.214
			l-4.114,1.631l-0.519,2.214l3.845,7.699l-1.955,1.362l-1.038,3.585l1.427,2.288l2.798,1.529l0,0l-1.279,2.408l-1.732-0.315
			l-0.491,1.427l-2.27,1.464l-1.788,3.001l2.001,7.189l-3.493,6.8l3.715,7.931l0.167,4.326l-3.215,0.593l-0.009,2.464l-1.344,2.872
			l0,0l-2.594,2.076l-1.918-0.454l-3.001-2.863l-4.855,1.973l-1.251-0.936l-0.926-2.455l-1.964-1.01l-1.788,3.252l-1.723,1.39
			l0.704,1.927l2.687,2.334l-0.667,1.362l-1.89-2.437l-0.899,0.296l-1.047-2.604l-5.151-0.472l-2.103-1.056l-7.356-10.849
			l-1.806-0.945l-1.437,0.38l-2.798-1.584l-1.436-2.622l-4.874-2.65l-2.742-2.9l-1.186-3.243l-3.381,1.214l-2.177,3.224
			l-4.494-1.473l-0.287-1.288l-2.001-1.843l-5.392-2.224l0,0l-3.919-5.837l1.603-4.873l-0.825-3.011l0.769-0.816l0.093-2.732
			l-2.289-2.752l1.89-1.27l-0.074-2.066l1.047-1.973l2.334-0.963l1.844,2.816l4.234,0.361l0.324,1.862l1.621,0.473l2.14-2.983
			l2.835-0.111l2.39-1.26l0.398-1.398l-0.806-1.038l5.216-9.116l-0.333-2.029l0.843-1l-0.908-1.325l0,0l1.973-3.613l2.77-1.714
			l5.596,1.76l1.52-0.519l1.223-2.594l2.631-1.622l-5.29-3.335l-1.695-1.788l0.083-1.01l-1.251-0.556l-0.259-6.393l-2.075-2.826
			l2.909-1.297l-0.473-2.418l4.669-0.824l-0.38-1.362l2.362,0.074l1.52,1.121l1.937-1.464l-0.973-0.556l-2.65-5.281l-0.787,1.816
			l-1.149,0.621l0.158-1.779l0.908-0.25l0.26-1.131l-0.547-2.631l-1.742,0.046l-1.862,2.381l0.194,3.085l-1.399-2.039l0.315-1.306
			l-0.936,0.037l-0.269,1.427l-1.436-3.085l-1.083,0.371l-0.612-1.372l-1.473,0.195l-1.075-0.797l2.224-0.788l3.511-3.659
			L200.609,138.555z"/>
		<path id="HR-05" fill="#CCCCCC" d="M281.035,54.432l0.806,1.028l1.64,0.037l1.437-0.871l1.732,0.473l1.455-1.112l1.288,2.224
			l1.668-0.296l0,0l3.882,2.038l2.974,4.919l3.511,0.019l1.13,1.288l1.093-0.676l0.871,0.583l1.491-1.76l0.612,1.732l2.89-0.056
			l2.503,1.177l0.166-0.982l2.732,0.148l1.742-2.381l4.206,3.215l2.113,0.259l1.954-2.02l1.871,1.084l1.437-1.251l2.011,1.881
			l3.204-2.399l-0.528,2.622l2.373,0.695l0,0l0.982,0.083l0,0l0.351-0.083l0,0l0.575,3.076l-0.974,3.187l-7.456,7.819l-4.559,0.353
			l-2.734-1.251l-6.596,3.558l0.547,2.187l-10.858,0.611l-0.695,2.011l-4.54,3.187l-0.111,2.928l-1.13,0.945l-0.751,3.956
			l-1.64,2.094l-0.315,2.992l0,0l-3.845,1.964l-1.677-1.399l-0.315-2.687l-1.223-0.797l-0.639-2.742l0,0l-1.232-3.567l1.148-8.153
			l-2.075-2.668l1.593-2.177l-5.096-0.528l1.232-1.39l-0.806-0.955l-3.168,1.177l-1.881,2.77l-3.076-0.121l-0.778-1.88l-1.964-0.204
			l-6.318,1.362l0,0h-2.612l-1.39-1.195l0,0l-3.882-0.89l-0.287-1.658l-1.149-1.02l-4.363-1.454l-0.362-4.336l-1.01-1.464l0,0
			l0.603-1.417l2.826-1.195l4.41,0.028l2.224-1.084l1.205-1.88l3.243-0.028l2.251-3.225l3.363-0.333l-0.046-3.048l-1.705-3.585
			l2.557,0.861l1.501-0.667l1.408,0.389l1.148-1.955l1.937-1.278l3.326,2.001L281.035,54.432z"/>
		<path id="HR-06" fill="#CCCCCC" d="M345.842,59.639l1.574,1.593l-0.307,3.363l0.918,1.658l-0.009,3.132l4.012,2.251l2.464,2.669
			l1.89-0.343l0.335,2.529l3.399,0.519l5.188,2.687l1.814,2.122l0.695-0.704l1.148,0.444l0.882,1.64l0.944-0.315l0.397,1.307
			l1.158-0.63l2.049,0.445l-0.029,1.557l2.197,1.074l-0.52,5.874l3.418-0.769l0.575,0.843l-0.852,1.224l2.139-0.028l-1.287,2.372
			l1.612,0.426l0.509,1.789l-0.88,0.806l3.751,0.481l-1.259,1.445l-0.342,2.232l1.601-0.444l2.363,0.899l-3.548,1.769l2.26,1.732
			l2.325-0.129l-1.138,1.492l0.193,0.954l0,0l-3.465,0.825l-4.455-0.575l-1.873,3.919l-5.984,7.69l-0.778,2.761l0,0h-1.52
			l-1.538-2.714l-2.381-0.797l-1.548-4.29l-2.464,1.019l-2.214-0.815l-1.575,0.556l0.89-3.484l-0.715-1.705l-2.379-1.603
			l-2.104-0.88l-4.696,0.371l3.001-5.04l-2.094-0.01l-0.473-1.778l-1.371-1.075l0.26-1.464l-1.39-0.824l0.36-2.26l-2.519-0.63
			l-1.158-1.612l-0.834,0.417l0.713,3.28l-1.046,1.955l-4.281,1.538l0.694-1.732l-1.286-0.611l-5.143,3.131l-0.057,2.492
			l-1.509,2.465l-0.547,10.57l0,0l-3.557-0.843l-0.65,0.982l-2.269,0.491l-2.113-1.334l-1.343,0.991l-5.114-5.309l-2.779,0.361
			l-0.778-1.297l-3.262,1.927l-0.453-4.058l-2.048-0.973l-0.352-1.89l-1.445-1.093l-2.039,0.686l-2.603-2.428l-1.288-0.324
			l-0.556,0.908l-1.964-1.789l0,0l0.315-2.992l1.64-2.094l0.75-3.956l1.13-0.945l0.111-2.928l4.54-3.187l0.695-2.011l10.858-0.611
			l-0.547-2.187l6.596-3.558l2.734,1.251l4.559-0.353l7.456-7.819l0.974-3.187l-0.575-3.076l0,0l0.112-0.75l0.509,0.778l1.048-0.89
			l0.51,1.288l1.36-1.77l0.481,3.502l2.233-0.333l0.641-3.474l1.36-1.659l0.27-4.113l0,0L345.842,59.639z"/>
		<path id="HR-07" fill="#CCCCCC" d="M330.008,118.691l0.547-10.57l1.509-2.465l0.057-2.492l5.143-3.131l1.286,0.611l-0.694,1.732
			l4.281-1.538l1.046-1.955l-0.713-3.28l0.834-0.417l1.158,1.612l2.521,0.63l-0.362,2.26l1.39,0.824l-0.259,1.464l1.37,1.075
			l0.473,1.778l2.095,0.01l-3.002,5.04l4.696-0.371l2.104,0.88l2.381,1.603l0.713,1.705l-0.89,3.484l1.575-0.556l2.214,0.815
			l2.464-1.019l1.548,4.29l2.381,0.797l1.538,2.714h1.52l0,0l5.818,2.927l1.454,3.345l2.325,0.945l1.955,2.214l3.076,0.584
			l-0.129,1.853l1.167,2.631l2.705,0.621l0.223,2.344l1.612,0.732l0.954-2.288l1.666,1.473l0.187,1.529l-1.529,2.668l0.454,1.491
			l2.278-1.834l1.243,3.668l1.769-0.843l0.732-1.547l2.631-1.038l0.954,0.816l-0.055,1.121l2.408,0.315l2.076,1.797l-1.817,2.65
			l0.167,1.853l-3.074,3.947l0.018,3.511l-2.224,1.297l0.036,2.937l1.695-0.528l0,0l0.844,1.278l-1.139,2.214L401.308,172
			l-2.871,2.427l-4.428-0.75l-0.39-1.306l-6.013,0.741l-0.974,1.213l-5.66-0.167l-4.095-3.484l-1.057,0.111l-0.009,1.492
			l-1.028,0.806l-3.809-1.094l-3.899,2.539l-2.539-2.214l-1.464,0.584l-0.445,1.167l-1.574,0.324l-3.067-1.538l-1.797,0.028
			l-0.815-1.122l0.177-2.789l-2.808,4.762l0.444,4.512l0,0l-0.436,1.288l-1.964,0.639l-0.639-1.992l-3.206-1.177l-0.14-1.278
			l-1.556,0.871l-2.308-2.057l0.612-0.981l2.066,0.565l1.324-2.326l-1.455-3.168l-3.751-2.427l-1.279-2.789l-0.49-4.327
			l-1.362-0.583l-1.232,1.065l-1.593-0.13l-1.946-0.833l-1.491-3.021l-1.761-1.13l0,0l-1.307,0.315l0,0l-1.981-0.306l-0.575-1.955
			l-3.511,0.667l0,0l-0.24-0.009l0,0l-2.132-2.807l-1.398,0.575l-0.158-2.27l-1.259-1.131l-2.919-0.056l-1.687-2.223l-2.058-0.602
			l0.187-2.65l1.657-1.908l-1.992-1.52l1.271-1.167l-0.724-1.881l6.755-0.658l2.64,1.538l-0.38-3.567l3.233-1.575l0.648-1.807
			l0.557,1.575l2.52-0.713l1.751,1.316l-0.528-2.076l1.631-3.659l-0.76-2.641L330.008,118.691z"/>
		<path id="HR-08" fill="#CCCCCC" d="M124.323,316.372l1.844,0.63l1.102,1.862l-2.066-0.806l-0.269,0.76l-1.473-0.231l-1-1.604
			l1.27-1.39L124.323,316.372z M103.08,309.543l-2.233,1.863l-1.834-3.04l2.297,0.547L103.08,309.543z M98.216,286.206l0.797,1.186
			l-0.111,1.964l-0.723,0.658l-1.816-1.427l0.778,3.678l1.325,3.502l-0.093,1.195l-2.372-1.946l-1.76-0.064l-0.333-1.13l1.51-0.816
			l-0.825-3.456l2.298-3.104l1.454-0.797L98.216,286.206L98.216,286.206z M104.275,282.667l0.704-0.13l1.047,1.88l0.815-0.417
			l0.936,0.037l1.501,1.223l0.788,4.41l-0.315,5.503l4.642,8.319l2.622,2.566l0.769-0.176l0.222,1.538l2.835,0.833l0.972,2.521
			l1.418,0.741l0.435,1.084l-1.223,1.649l-1.158,0.11l-1.76-1.89l-0.889-1.204l0.194-0.899l-3.947-2.482l0.88-0.861l-1.223,0.037
			l-0.556-2.279l2.622,1.825l-3.418-4.374l-0.741-0.323l0.009,0.954l-1.297-1.807l-0.556,0.084l0.278,1.908l-0.936-0.121
			l-0.361,0.844l-2.418-0.955l0.76-1.918l-0.38-1.731l0.676-0.779l0.473,0.63l0.769-1.834l-1.621-3.613l-2.427-1.964l-1.464-6.532
			L104.275,282.667z M152.229,286.067l-7.17-7.56l5.512,4.521L152.229,286.067L152.229,286.067z M136.229,271.067l3.104,1.566
			l4.688,4.79l-1.983-1.306l-2.242,0.306l-1.473-0.027l-1.668-1.075l-0.871-2.112l-1.39-0.927l0.991-1.668L136.229,271.067z
			 M151.58,263.721l0.389,1.631l-1.028,0.092l-0.046,1.807l-0.936-1.714l-1.204-0.158l-0.417-1.603L151.58,263.721z
			 M141.231,263.832l2.334-0.148l0.121,1.334l1.029,0.037l-0.565,2.01l-1.622,1.186l8.533,8.227l2.993,5.383l0.407-0.723
			l0.361,2.261l-0.834-0.426l-0.843,1.223l-1.288-0.176l-5.513-6.42l-1.316-0.213l0.083-0.769l-5.559-3.631l-0.982-3.391l2.714,0.88
			l-4.66-5.661l2.232-0.009l2.066,1.334l-0.51-1.213L141.231,263.832L141.231,263.832z M144.835,260.487l1.844,2.437l-3.215-0.176
			l-1.445-2.066l1.028-0.111l-0.121-1.371L144.835,260.487z M146.225,252.77l3.697,2.39l1.927,4.29l-6.504-3.928l-0.305-2.9
			L146.225,252.77z M122.684,246.377l1.974,3.279l-1.705,0.148l-4.901-3.623l2.372,0.204l1.242-1.093L122.684,246.377z
			 M102.83,220.482l3.02,1.26l1.288,2.344l-0.825,0.417l-0.852,3.697l4.419,13.99l3.261,4.308l3.465-0.389l1.603,3.706l-1.621,0.88
			l-0.834-0.528l-0.111,6.504l-1.297,3.789l2.168,11.581l-1.594-0.741l-0.454,1.25l2.167,2.743l0.853,2.798l-1.501,2.437
			l1.371,4.438l2.196,2.446l1.204,1.761l-0.889,3.243l1.334-0.603l0.352,1.584l1.25-0.39l1.084,0.408l-1.547,0.296l-0.158,1.528
			l-1.13,1.084l-0.853,0.019l-0.815,0.992l-2.659-2.187l-1.205-0.769l0.046-1.353l-1.112-0.454l-0.871-2.474l-1.77-2.066
			l-0.37-0.473l-2.362-2.511l0.787-2.233L109,279.22l0.705,0.056l-0.019-0.991l-1.307-0.926l-0.241,0.796l-1.065-1.371l0.065-3.113
			l-0.853-1.269l0.436-2.029l-1.288-2.057l-0.741,0.982l-0.908-0.5l-0.269-5.346l-1.334-2.714l0.13-1.594l-1.065-3.085l-0.51-0.528
			l-0.269-3.196l1.288-2.149l4.549,6.605l0.769-0.713l1.927,0.908l1.103-1.353l-0.889-3.613l-0.806-0.5l0.732-1.779l2.371,1.269
			l-0.722-1.75l-1.63-0.065l-1.344-4.132l-2.585-1.612l0.88-3.308l-1.121-3.511l-4.141-2.298l-1.39-4.03l-1.39-0.649l-0.436-2.233
			l1.779-1.936l0.991-3.799l0.833-1.204l1.547-0.473L102.83,220.482L102.83,220.482z M125.639,210.94l1.25,1.084l0.037-1.047
			l1.353,0.463l0.992,1.761l-1.844-0.353l4.744,8.45l-2.437-0.704l-0.945,2.668l0.797,0.259l2.974-1.667l2.974,1.909l1.13,1.88
			l-1.232,1.705l0.241,2.149l-0.64,1.797l1.02,1.88l2.816,1.742l1.417-0.862l0.917,1.121l0.695,0.695l1.075,0.565l-0.232,2.418
			l7.394,7.615l-0.056,1.122l-0.732,0.111l-0.399,0.945l-5.188-0.824l-0.538,1.38l1.353,1.686l-0.26,0.954l-2.418,0.584
			l-4.363-1.909l-1.093-2.103l-2.428,0.139l-3.103-1.89l-0.353-0.862l1.149-0.658l-0.306-6.782l-1.649,1.677l1.111,0.705
			l0.065,1.139l-3.947-1.714l-1.649,1.853l-3.456-0.38l-1.649-1.205l-0.898,0.343l-0.926-0.584l-5.114-5.651l-0.056-3.252
			l3.298-0.871l-0.39-2.612l0.992-1.381l2.798,1.649l2.122-1.111l0.25-2.668l-0.676-0.89l1.009-0.065l1.26-2.196l-1.057-2.047
			l-0.009-2.362l1.167-0.186l0.445-0.871l-0.019-2.316l-1.381-1.556l1.27,0.027l0.371-1.306L125.639,210.94L125.639,210.94z
			 M126.899,152.656l0.769,0.491l1.39-0.602l1.463,0.982l-1.751,4.966l2.854,1.816l2.529,2.992l2.613,0.371l1.26,1.649l0.658,1.909
			l-1.065,1.213l-0.398,2.631l0.649,1.102l0.806-0.083l0.324-1.093l1.454,0.111l3.762,3.085l3.743,1.241l1.917,5.782l8.708-2.308
			l0.528-5.688l1.742-1.408l4.901,4.178l2.854,0.324l1.408,1.5l2.696-1.148l2.974,1.529l0.093,2.251l4.929,3.178l1.973,2.529
			l2.196,0.223l1.167-1.789l1.038,1.325l1.742-0.037l0,0l0.899,1.325l-0.843,1.009l0.333,2.029l-5.216,9.116l0.806,1.038
			l-0.389,1.399l-2.39,1.26l-2.835,0.111l-2.14,2.992l-1.622-0.473l-0.324-1.862l-4.234-0.371l-1.844-2.816l-2.325,0.963
			l-1.056,1.974l0.074,2.066l-1.89,1.278l2.289,2.742l-0.093,2.742l-0.769,0.816l0.825,3.011l-1.603,4.864l3.91,5.836l0,0
			l1.399,4.966l-1.945,3.141l-3.261-0.296l-2.594,0.964l-0.871-2.27l-1.909,1.39l-0.102,1.241l-2.187,0.343l0.278,1.881
			l-1.177,1.056l0,0l-3.65-8.588l0.481-2.696l-1.361,1.056l0.037-1.038l-1.927,0.167l-9.691-4.836l-0.213-1.436l-5.494-5.578
			l-4.049-2.214l0.389-1.084l-1.325-1.519l-2.733-1.492l0.204-1.028l-0.732-2.075l-0.398-1.399l1.584,0.148l-1.02-1.548
			l-3.131-2.029l2.159,3.141l-0.658,0.871l-0.963-0.148l-4.317-2.326l-2.029-2.047l0.463-0.695l-0.713,0.583l-1.464-1.306
			l-9.431-2.946l-3.011-1.834l-4.457,6.883l-3.641,12.841l0.12,3.131l-1.834,4.855l0,0l-2.353-1.548l0.677-6.411l-1.482-6.105
			L90.656,203l0.649-1.695l1.306-0.547l-1.408-6.115l-1.528-1.686l0.074-1.455l1.76-1.649l-7.329-4.661l-1.603-2.816l0.538-1.788
			l-0.556-2.233l0,0l1.585,0.686l3.872-0.723l2.854,1.066l0.065-1.677l1.631-2.455l2.205-0.732l1.742,2.677l2.196-0.926l1.64,1.362
			h1.297l0.982,1.742l1.797-1.677l4.669-1.158l2.094-2.084l1.445,0.371l5.401-4.197l1.761-6.81l-0.297-2.446l3.15-1.01l2.474-3.604
			l1.269-4.419L126.899,152.656L126.899,152.656z"/>
		<path id="HR-09" fill="#CCCCCC" d="M157.444,316.974l7.125,7.171l-2.724-0.974l-4.28-3.909l-1.307-1.991L157.444,316.974z
			 M155.323,315.472l-2.39-2.64l1.713,0.899L155.323,315.472z M148.467,291.645l8.134,9.83l-1.455-4.632l3.669-0.788l0.676,0.889
			l-0.834,0.389l1.149,0.019l2.483,3.058l1.158,0.186l2.557,5.864l4.317,1.083l1.39,1.622l0.741-0.157l0.593,2.668l1.955,2.548
			l-2.965-1.529l0.121-1.241l-2.622-0.713l-0.862,0.815l-0.713-2.168l-3.715-1.445l-1.344-1.825l-3.4-1.418l-0.019,1.316
			l1.732,0.444l10.358,12.321l0.871-1.241l-0.991-3.807l5.364,4.576l1.52,0.38l2.362,4.15l3.521,1.845l0.973,2.75l1.482-0.148
			l4.391,3.827l1.13,2.445l-0.25,1.158l-8.283-5.836l6.217,6.216l-2.251,0.064l1.093,2.095l-0.917-1.029l-7.439-2.844l-0.01,1.279
			l4.317,3.955l-0.287,0.537l-6.309-3.789l-1.807-2.742l1.186-0.36l0.046-1.039l-1.751-1.686l0.825-1.353l1.64,0.056l0.231-0.991
			l-3.289-2.659l-1.445-0.055l0.028,1.333l-2.547-0.546l-0.278-2.225l-4.095-4.993l-2.788-2.326l-0.982,0.306l0.195-1.139
			l-0.241,0.937l-1.362-0.104l-2.992-2.548l-0.742-1.621l2.029-0.472l-0.491-1.918l-4.308-4.465l0.315-0.816l0.917,0.204
			l-0.223-0.751l-1.917-0.907l0.463-0.444l-0.778-1.141l-2.177-1.296l-0.26-1.371l-4.271-4.428l-5.291-8.098l-0.167-1.946
			L148.467,291.645L148.467,291.645z M168.405,226.921l5.401,2.224l1.992,1.843l0.287,1.288l4.494,1.473l2.177-3.224l3.381-1.214
			l1.177,3.252l2.742,2.9l4.873,2.649l1.437,2.622l2.798,1.584l1.436-0.38l1.807,0.945l7.356,10.849l2.103,1.056l5.16,0.473
			l1.047,2.603l0.898-0.296l1.89,2.446l0.658-1.362l-2.687-2.334l-0.705-1.927l1.714-1.39l1.797-3.252l1.964,1.01l0.917,2.455
			l1.26,0.927l4.854-1.974l3.002,2.863l1.917,0.463l2.595-2.076l0,0l1.148,7.894l3.224,3.187l-2.733,2.344l-3.298,0.093
			l-0.621,1.538l2.993,3.585l2.946,5.708l2.835,1.454l1.01,2.076l3.279-0.5l0.797-1.482l0.927,0.306l1.705-1.705l1.028-0.009
			l2.372,3.326l3.308,1.399l0.065,1.88l1.788,3.363l3.381,2.233l1.927,0.333l1.037,3.048l1.39,1.251l-0.046,1.436l-1.807,0.214
			l0.25,2.473l-2.474-0.065l-0.481,0.788l2.075,4.243l7.597,4.503l1.511,0.083l1.797,4.734l-1.177,3.827l0.574,0.306l0,0
			l-2.057,1.464l-2.205,0.064l0,0l-1.297-1.361l-1.816-0.26l-0.259,4.215l-1.815-1.75l0,0l0.194-2.79l0,0l-3.048-3.891l-2.659-1.167
			l-3.308-0.26l0,0l-1.945,1.362l0,0l-3.048,3.048h-2.01l-0.583,2.011l-7.458,3.502l-0.973,1.88l-2.399,1.039l3.113,0.843
			l0.908,1.686l-2.399,2.854l0,0l0.908,1.816l0,0l3.243-0.065l1.103,1.816l-0.389,5.643l-1.232,2.074l-1.751,1.168l-8.171,0.259
			l-3.243-0.843l-2.14-1.687l-4.864,0.064l-2.789-1.361l-2.27-4.734l-3.9-2.973l0,0l-10.052-3.901l0,0l-3.233-1.899l0,0
			l-0.185-0.093l0,0l-4.012-2.251l0,0l-3.373,6.698l0,0l-1.084-0.343l-8.894-10.969l-0.963-0.056l-1.556-2.159l-2.224-1.205
			l-3.363-5.53l-2.974-2.02l-0.176,0.63l-0.065-1.344l-3.678-3.622l-1.13,0.148l-1.066-1.474l-1.491-0.453l0.222-0.751l-0.361,0.417
			l-1.992-3.798l-0.519-3.465l-3.141-3.02l-0.13-2.307l-2.956-3.548l-0.546-4.493l0.723-1.853l-1.742-6.513l0.194-7.022l0.232-2.131
			l0.852-2.631l1.27-3.79l1.918-5.901l-0.834-2.946l-2.112-1.659l0.213-1.594l-1.621-4.743l0,0l1.177-1.056l-0.278-1.881
			l2.187-0.333l0.102-1.241l1.909-1.39l0.871,2.27l2.604-0.963l3.261,0.296l1.945-3.141L168.405,226.921L168.405,226.921z"/>
		<path id="HR-10" fill="#CCCCCC" d="M392.869,111.048l0.583,0.519l-0.018,1.195l-0.398,1.158l-1.269-0.917l0.342,2.391l3.659-0.704
			l0.741,2.251l1.807-1.14l0.261,1.27l2.028,0.296l-0.52-2.474l0.686-0.556l8.914,2.195l3.696-0.361l5.346,4.595l2.881,7.708
			l1.205,1.408l2.844-0.111l1.602,0.982l2.688,0.186l1.835,2.464l1.992-0.658l3.261,1.751l1.037-0.833l1.14,3.141l1.398,0.741
			l1.122,2.223l2.928-3.057l2.233-0.102l0,0l-0.021,2.372l2.058,5.346l6.188,2.261l2.788,10.886l1.808,0.288l-1.104,2.974
			l-4.169,5.43l0.278,2.659l-2.648,1.158l-1.325,3.836l-1.789,2.214l-4.761,2.26l0,0l-0.538-0.222l0,0l-1.621-0.603l-2.705,1.584
			l-4.697,0.167l1.324-1.278l-2.084-1.76l-6.504-0.538l-2.622-1.621l-5.196-0.186l-1.716-1.38l-1.814-3.252l-2.325-0.259
			l-3.735-3.465l-1.824,0.028l-1.205,2.279l-3.056-1.436l-0.76-1.677l-1.41,0.742l0,0l-1.695,0.528l-0.036-2.937l2.224-1.297
			l-0.018-3.511l3.074-3.947l-0.167-1.853l1.817-2.65l-2.076-1.797l-2.408-0.315l0.055-1.121l-0.954-0.816l-2.631,1.038
			l-0.732,1.547l-1.769,0.843l-1.243-3.668l-2.278,1.834l-0.454-1.491l1.529-2.668l-0.187-1.529l-1.666-1.473l-0.954,2.288
			l-1.612-0.731l-0.223-2.344l-2.705-0.621l-1.167-2.631l0.129-1.853l-3.076-0.584l-1.955-2.214l-2.325-0.945l-1.454-3.345
			l-5.818-2.928l0,0l0.778-2.761l5.984-7.69l1.873-3.919l4.455,0.575l3.465-0.825l0,0l1.01,0.454l0.454-1.167l1.027,0.065
			l-1.398,2.631l1.816,0.343l0.963-1.816l-1.046-1.307l0.603-0.815L392.869,111.048z"/>
		<path id="HR-11" fill="#CCCCCC" d="M443.667,178.078l0.193,3.548l0.872,0.704l4.271,0.713l0.63,1.575l2.132,0.713l1.259,1.584
			l2.688,0.63l0.944,1.816l1.9,0.713l2.37-0.955l2.289,0.63l1.417,1.343l0.715,1.344l-0.362,2.733l-2.232,1.649l2.141,1.594
			l1.574,4.604l-3.994,4.429l0,0l-8.559-2.307l-8.655,0.204l-1.5,3.326l-1.084,0.111l0.731,1.677l-1.916,1.473l-1.854,3.298
			l-3.456-1.01l-0.501,1.974l-1.417,0.861l0.861,0.927l-3.733,0.444l-4.418-1.704l1.806-2.362l-0.992-2.076l0.354-2.39l-1.271-2.474
			l-8.902-0.139l-2.984-1.112l-2.427-2.714l-4.483-2.159l-1.241-1.52l-0.297-2.696l-2.566-0.732l-1.677-2.816l-3.92-2.9l-5.79,0.612
			l-0.454,1.955l-1.907,0.686l-3.373-1.186l-1.334-1.982l-2.559-0.26l-6.429,4.948l0,0l-4.095,0.667l-0.481-2.27l-1.538-1.565
			l-6.162-2.798l0.528-2.798l1.269-0.797l-0.665-2.103l-1.307-0.241l0.249,2.001l-1.5,0.204l0.148,1.362l-0.751,0.055l-1.279-3.928
			l-1.889-1.538l-3.798,0.046l-2.067-3.456l0,0l-0.444-4.512l2.807-4.762l-0.176,2.789l0.815,1.121l1.797-0.028l3.067,1.538
			l1.574-0.324l0.445-1.167l1.464-0.584l2.539,2.214l3.899-2.539l3.809,1.093l1.028-0.806l0.009-1.492l1.057-0.111l4.095,3.484
			l5.66,0.167l0.974-1.214l6.013-0.741l0.39,1.306l4.428,0.75l2.871-2.427l0.102-3.094l1.141-2.214l-0.844-1.278l0,0l1.41-0.742
			l0.758,1.677l3.058,1.436l1.205-2.279l1.824-0.028l3.735,3.465l2.325,0.259l1.814,3.251l1.714,1.381l5.198,0.186l2.622,1.621
			l6.504,0.538l2.084,1.76l-1.324,1.278l4.697-0.167l2.705-1.584l1.621,0.603l0,0L443.667,178.078z"/>
		<path id="HR-12" fill="#CCCCCC" d="M376.526,195.403l6.431-4.948l2.557,0.26l1.334,1.982l3.373,1.186l1.907-0.686l0.454-1.955
			l5.79-0.612l3.92,2.9l1.677,2.816l2.566,0.732l0.297,2.696l1.241,1.52l4.483,2.159l2.427,2.714l2.984,1.112l8.902,0.139
			l1.271,2.474l-0.354,2.39l0.992,2.076l-1.806,2.362l4.418,1.704l3.733-0.444l-0.861-0.927l1.417-0.861l0.501-1.974l3.456,1.01
			l1.854-3.298l1.918-1.473l-0.733-1.677l1.084-0.111l1.502-3.326l8.653-0.204l8.559,2.307l0,0l1.03,1.343l2.037,0.704l2.788-0.306
			l0.974,1.677l1.194-0.556l2.826,0.889l1.037,2.057l1.642,0.611l4.863-0.788l2.955-2.334l5.865-0.583l2.918,0.723l1.13,1.556
			l3.215,1.77l7.552,1.223l3.085,2.26l0,0l-5.068,9.136l1.77,3.752l1.954,0.611l0,0l-0.435,0.917l1.907,1.677l-1.315,1.455
			l-0.526,2.483l-0.649-2.205l-1.937,0.371l-3.177-0.964l-4.615-5.966l-9.847,0.917l-1.307-1.881l-2.399,0.148l-0.658-2.585
			l-1.779-0.75l-4.196,2.186l-0.187,1.584l1.113,1.964l-1.705,2.187l-2.03,0.667l-4.029-1.251l-1.862,0.705l-4.715-3.678
			l1.407-1.723l-1.547-2.881l-2.075-0.028l-1.204,2.251l-1.511-3.271l-1.111-0.352l-2.095,0.88l-2.02,4.077l-3.057,0.963
			l0.371,3.632l-3.976,3.168l-4.558,1.834l-2.132-0.973l-3.938-4.142l-2.807-0.556l-8.282-6.513l-1.899,0.408l-2.483,2.316
			l-2.491,1.075l-2.094-1.186l-2.075,0.899l0.213-2.029l-0.75-0.815l-1.752,2.826l-1.667,0.046l-0.938-0.898l-1.823,0.824
			l-0.454-0.658l1.259-1.464l-0.018-1.557l-1.723,1.186l-2.271,0.019l0.52-2.548l-0.787-1.909l-0.872,0.148l-0.601,1.946
			l-1.567,1.343l-5.188-0.445l-3.243-1.937l-0.056-1.927l-1.657,0.093l-0.11-1.667l-2.263,0.306l-1.167-1.695l-2.835,5.855
			l-6.42-0.204l-3.048-2.076l0,0l-3.15-6.086l-4.067-3.215l0.787-2.159l3.854-1.547l4.086-5.059l1.891-0.843l-0.594-2.307
			l1.141-2.039l-0.936-1.269L376.526,195.403z"/>
		<path id="HR-13" fill="#CCCCCC" d="M215.998,396.826l1.019,1.149l-1.797,0.213l-1.417-2.039l1.288,0.686l0.083-0.834
			L215.998,396.826z M193.113,375.757l1.863,0.214l0.713,1.398l2.807,1.141l3.29,3.771l1.565-0.213l1.325,1.538l0.056,2.417
			l6.282,5.458l-0.39,1.342l-1-1.139l-1.362,0.714l-4.058-3.299l0.019,1.01l-1.057-0.027l-1.297-0.575l-0.713-1.834l-0.093-1.038
			l-0.5-0.454l-0.825-0.917l-2.835-1.509l-0.954-2.325l-3.141-3.652l0.084-0.907l-1.372-0.853l1.13-1.01L193.113,375.757z
			 M172.842,372.312l0.76,0.036l-0.296,1.038l1.677,1.409l0.574,1.963l-3.021-2.075l0.658-0.907l-1.028-1.808L172.842,372.312
			L172.842,372.312z M174.714,367.012l2.576,1.891l0.481,2.13l0.732,0.037l1.371,2.381l1.511,0.649l0.167,1.5l1.807,2.715
			l-8.671-7.652l-0.584-3.993L174.714,367.012L174.714,367.012z M176.798,359.499l0.64,1.011l2.029,0.36l2.622,2.474l0.917,0.491
			l0.658,0.417l1.593,1.093l-0.352,1.196l1.825,2.436l2.14,1l2.853,2.864l-0.75,0.389l1.26,1.611l-1.028,1.168l-0.686,0.334
			l0.167-1.724l-1.288-0.343l-1.158-2.715l-0.593-0.389l-0.426,1.731l-0.806,0.603l-6.726-7.394l-1.27-2.565l-1.807-0.427
			l-2.983-2.825l0.63-1.158l-1.13-1.649l0.269-0.936L176.798,359.499L176.798,359.499z M171.852,357.21l0.824,0.24l0.121,1.482
			l-2.122-1.028l-1.547-2.446l0.621-0.573L171.852,357.21L171.852,357.21z M160.178,356.061l2.057,2.465l-2.724-1.195l-2.751-2.77
			L160.178,356.061z M154.267,355.07l0.732,0.936l1.25,0.01l-0.102,0.732l2.65,2.093l1.121,2.65l2.27,0.556l-0.556,1.074
			l0.704,1.065l4.725,3.058l-0.019-1.186l1.158,0.547l0.074,1.093l-0.833,0.12l2.205,1.428l0.584,3.604l2.927,4.716l1.084,0.25
			l2.399,2.779l0.093-1.63l2.131,1.538l-0.399,1.194l2.808,1.964l1.371,2.242l0.908-0.147l0.426,1.871l4.799,2.788l0.296,1.103
			l-1.13-0.343l0.491,1.084l-0.89,0.362l-1.584-1.02l-0.38-0.12l-1.204-0.983l-1.075,0.177l-0.111-1.038l-1.742-0.74l-0.686-1.353
			l-0.963,0.611l0.491,0.927l0.796,0.722l1.51,1.575l0.862-0.028l1.315,1.854l1.76,0.593l0.093,1.816l-9.339-8.172l-10.608-17.037
			l-5.226-4.021l-4.845-5.763l-1.307-0.731l0.084,1.491l-4.753-2.928l-0.518-1.482l1.241-1.074l0.519,0.463l-1.214,0.49l0.917,1.521
			l2.529,1.362l-1.482-1.853l1.009-0.214l2.289,1.482l-2.205-3.659l0.056-1.158L154.267,355.07L154.267,355.07z M161.252,354.625
			l0.213,0.731l-3.261-2.761l1.13-0.185L161.252,354.625z M162.244,351.215l4.41,5.105l1.242-0.065l2.112,2.048l0.667,1.065
			l-0.38,1.464l-2.233-1.704l-0.259,0.695l-3.03-3.05l-2.687-3.825L162.244,351.215L162.244,351.215z M148.829,342.785l1.575,2.159
			l4.142,2.112l1.353,1.769l0.556-1.76l1.491,1.011l-0.788,0.583l1.742,0.991l-1.14,0.343l-0.408,1.558l-2.557-1.214l0.426-0.825
			l-2.372-0.464l-0.917-1.454l-2.381-1.111l2.677,4.252l-0.102,0.63l-1.103-0.223l-4.012-7.596L148.829,342.785L148.829,342.785z
			 M138.684,339.171l1.056-0.157l1.686,2.206l-1.019,0.296l-0.926-0.223l-1.881-1.881L138.684,339.171z M146.864,340.673
			l1.399,1.232l-1.362,0.897l-2.038-1.324l0.38,2.224l-2.14-1.149l-0.88-2.066l2.307,0.325l-0.843-2.214L146.864,340.673
			L146.864,340.673z M170.804,334.577l0.88-0.37l1.065,1.259l0.825-0.537l1.445,1.271l1.778-0.028l3.326,2.622l-0.019,0.723
			l-1.315,0.695l-0.037-1.363l-2.335-0.944l-1.649,0.564l0.093,1.066l-2.668,0.306l-3.104-4.438l0.222-1.094L170.804,334.577
			L170.804,334.577z M131.235,333.168l2.029,1.028l2.603,3.271l-2.714-0.991l-2.159-1.881l0.185-0.611l-2.251-0.704l-1.437-2.325
			l0.843-0.723L131.235,333.168L131.235,333.168z M137.618,322.811l1.789,1.991l-0.38,3.475l1.807,0.898l0.639,2.27l-0.742,0.251
			l-2.14-1.483l-1.223-4.131l-2.251-0.778l0.26-1.899L137.618,322.811z M147.874,322.144l1.529,2.26l-1.649,2.224l2.576,3.9
			l-0.584,1.76l-1.917-0.064l-2.465-2.445l-2.279-1l3.039-1.474l-1.64-5.031l1.149,0.398l1.288-1.195L147.874,322.144
			L147.874,322.144z M267.842,320.198l0.973,1.168l0.26-4.216l1.816,0.26l1.297,1.361l0,0l2.205-0.065l2.066-1.464l0,0l0.333,3.614
			l2.131,2.881l-2.326,1.195l-2.27-0.51l0.445,2.232l8.023,2.836l0.806,1.547l-0.629,2.075l0.361,6.569l1.871,9.236l0,0
			l-5.216,1.751l0,0l-2.399,0.064l-1.167,2.53l0.778,4.279l-0.843,2.141l0,0l-2.205,1.751l0,0l-2.141,1.232l-9.144-4.216
			l-0.195-1.815l-1.686-2.399l0,0l-1.816-0.13l0,0l-3.956,6.679l0,0l-1.751,0.714l0,0l-1.102,1.621l0,0l-1.297,1.882l-2.205,0.454
			l0,0l-1.167,2.723l-3.502-1.167l-1.167,0.713l0,0l1.102,1.621l0,0l1.816,0.131l3.308,2.205l0.129,2.01l0,0l-1.751,2.336
			l0.908,2.074l0,0l-2.725,2.528l-2.334,0.65l2.493,3.575l-1.779,1.131l-0.778-0.288l0,0l-2.029,1.132l0,0l0.269,0.665l0,0
			l0.759,0.315l0,0l0.278,0.371l0,0l-0.047,0.278l0,0l-0.676,0.463l0,0l-0.314,0.435l0,0l-0.677,1.687l0,0l-1.046,0.557l0,0
			l-1.177,0.557l0,0l0.861,0.972l0,0l-0.528,1.177l0,0l-0.241,1.038l0,0l-0.269,1.76l-3.233-1.844l0,0l-0.519-0.148l0,0
			l-2.372-1.037l0,0l-4.095,1.936l-1.881-0.583l0,0l-3.168-2.854l-2.492,2.186l-0.871-0.185l-1.334-0.861l-0.491-0.899l0.583-0.268
			l-1.232-1.419l-6.448-3.261l-1.464-1.815l0.325-1.344l-3.391-2.391l-6.133-8.384l-4.29-2.048l0.955-0.056l0.064-1.01l-2.511-1.277
			l-1.76-4.337l-1.455-0.815l-0.12,0.741l-2.316-2.297l-0.324-0.974l-0.028-1.25l-1.742-0.437l0.908-0.861l-0.287-1.093
			l-6.365-6.531l1.696-1.121l0.769-3.308l-3.382-1.548l-0.528-2.121l-1.5-0.482l1.408-2.482l1.881-0.065l3.206,3.688l-0.63,0.186
			l0.834,1.252l0.731-0.882l1.057-0.092l1.325-1.298l-2.214-3.371l0.973-0.611l1.148,0.796l-0.417-1.547l7.254,6.206l1.575-0.555
			l-1.825-4.059l1.705,0.297l0.64-1.251l-4.299-4.354l1.325-1.659l0.25,1.048l4.697,2.742l0.621,0.814l-0.472,0.787l7.013,4.484
			l1.575,0.482l2.501-1.038l5.809,1.64l0.973,2.892l-0.13,2.593l-3.762,1.493l4.215,3.825l5.318-1.297l2.659,3.307l0.973,4.282
			l1.492-0.455l0.454-1.556l-2.27-3.827l0.26-1.687l-2.011-2.528l-3.372-0.778l-2.465-2.725l-0.194-3.178l1.065,0.01l-0.111-1.585
			l-3.104-1.723l-2.566,0.64l-0.945-1.899l-1.427,0.416l-3.317-4.279l-7.477-3.335l-4.929-3.364l0,0l3.335-6.726l0,0l4.012,2.251
			l0,0l0.186,0.094l0,0l3.233,1.898l0,0l10.052,3.9l0,0l3.9,2.974l2.27,4.734l2.788,1.362l4.864-0.065l2.14,1.687l3.243,0.844
			l8.171-0.26l1.751-1.167l1.232-2.076l0.389-5.642l-1.103-1.816l-3.242,0.065l0,0l-0.908-1.816l0,0l2.399-2.854l-0.908-1.686
			l-3.113-0.844l2.399-1.037l0.973-1.881l7.458-3.502l0.583-2.011h2.011l3.048-3.048l0,0l1.946-1.362l0,0l3.308,0.26l2.659,1.168
			l3.048,3.891l0,0l-0.194,2.788l0,0L267.842,320.198z"/>
		<path id="HR-14" fill="#CCCCCC" d="M523.046,119.433l8.172,4.79l1.381-0.185l0.416-4.086l1.075,0.853l0.694,4.206l2.586,2.03
			l-0.575,7.532l3.299,3.696l2.224,9.441l1.945,2.149l3.575,1.834l-2.649,7.282l-2.538,0.139l-0.871,0.899l1.094,2.029l-2.114,3.373
			l0.271,1.621l3.919,3.669l1.889,0.444l3.187-1l0.853-1.983l2.179-0.102l1.139,3.011l3.188,0.481l3.271,2.354l-0.25,2.02
			l-1.493,1.723l-3.789,0.343l-2.981-1.492l-1.289,0.241l-1.027,5.54l0.917,1.788l0,0l-0.834,0.611l-3.91-0.157l-3.252-4.438
			l-3.13-1.964l-2.633-0.028l-0.481,1.241l-3.585,0.325l-1.52,1.056l1.861,5.938l-1.844,0.139l-0.102,1.797l-2.455,0.528
			l-0.695-1.38l-1.14-0.296l-4.048,0.732l-2.177,2.02l-3.798,0.575l-0.021,4.808l-2.519,1.408l0.647,3.724l-3.825,0.287
			l-1.621,2.548l-2.687-0.472l-2.651,1.612l-0.009,6.087l4.05,2.428l1.927-0.186l-0.751,4.039l-1.954,0.639l0,0l-3.085-2.26
			l-7.552-1.223l-3.215-1.77l-1.13-1.556l-2.918-0.723l-5.865,0.583l-2.955,2.334l-4.863,0.788l-1.642-0.611l-1.037-2.057
			l-2.826-0.889l-1.194,0.556l-0.974-1.677l-2.788,0.306l-2.037-0.704l-1.03-1.343l0,0l3.994-4.429l-1.574-4.604l-2.141-1.594
			l2.232-1.649l0.362-2.733l-0.715-1.344l-1.417-1.343l-2.289-0.63l-2.37,0.955l-1.9-0.713l-0.944-1.816l-2.688-0.63l-1.259-1.584
			l-2.132-0.713l-0.63-1.575l-4.271-0.713l-0.872-0.704l-0.193-3.548l0,0l0.528,0.213l0,0l4.761-2.26l1.789-2.214l1.325-3.836
			l2.648-1.158l-0.278-2.659l4.169-5.43l1.104-2.974l-1.808-0.288l-2.788-10.886l-6.188-2.261l-2.058-5.346l0.021-2.371l0,0
			l5.464-0.028l2.494-0.945l2.622,2.251l5.455,1.769l2.066-0.528l1.797-2.788l2.679,0.185l1.778,1.584l1.695-1.556l4.143,1.186
			l1.36,2.325l3.188,0.917l1.889-0.741l3.54,1.019l0.371,0.899l1.889-2.844l0.658-0.788l2.919,1.973l0.259,1.881l0.908,0.63
			l3.891,0.454l-0.13-3.345l1-1.028l2.411,0.454l0.888-3.882l2.919,1.52l1.203-1.409l1.817-0.009l0.519-1.315l1.51,0.361
			l-0.009-1.945l1.882-0.769l0.769-1.853l2.056-0.75l0.065-2.001l0.722-3.011l0.742,1.195l1.445-1.093l-1.178-1.742l2.021-1.167
			l0.823-1.993L523.046,119.433z"/>
		<path id="HR-15" fill="#CCCCCC" d="M226.05,420.887l1.056,0.703l1.417-0.306l1.992,1.325l0.519-0.621l2.214,2.983l2.714,0.443
			l1.64,1.455l-1.899,0.065l-1.046-0.473l-0.76,0.426l-3.243-1.269l-3.011-3.344l-2.02-0.288l-0.426-1.604L226.05,420.887
			L226.05,420.887z M239.511,417.663l1.937,0.888l0.241,1.464l-2.835-1.12l-0.139-2.547L239.511,417.663z M249.434,417.856
			l1.186,1.715l0.093,3.012l-4.661-4.873l1.427,0.157l0.362-1.547L249.434,417.856z M229.95,417.671l2.362,0.677l1.538,2.01
			l-1.482-0.037L229.95,417.671L229.95,417.671z M232.081,415.041l1.649,0.13l0.769,1.398l1.64,2.27l1.121-0.193l-1.075,1.398
			l0.435,1.269l-2.279-1.203l-0.222-0.992l1.501,0.214l-2.835-2.179L232.081,415.041L232.081,415.041z M240.335,413.698l1.974,1.648
			l-1.158-0.121l0.611,1.39l-2.362-2.658l0.519-0.891L240.335,413.698z M244.894,414.235l-1.315,0.657l-1.019-3.067L244.894,414.235
			z M199.71,408.036l2.307,1.473l-0.76,0.398l-3.9-2.222l0.945-0.455L199.71,408.036z M225.549,400.698l-0.121,1.595l2.372,1.963
			l-0.092,0.853l1.51-0.528l0.806,1.493l-0.797,0.49l1.399,0.667l0.713,1.824l-3.919-1.269l0.009-1.269l-4.493-3.696l-1.343-2.809
			l0.982-0.306l1.39,1.668l0.713-1.761L225.549,400.698L225.549,400.698z M190.14,394.26l0.102,0.647l2.492,0.204l0.417,0.667
			l-1.556,0.186l0.324,0.621l7.931,6.132l4.419,5.115l-2.381-1.131l-2.872-0.703l-2.649-1.854l0.167-1.271l-4.215-2.305l-1.825-3.67
			l-1.927-1.871l0.129-0.797L190.14,394.26L190.14,394.26z M193.076,391.916l2.808,1.01l-1.14,0.241l1.093,1.231l0.63-0.527
			l1.204,0.77l0.103-1.817l1.278,1.501l-0.538,1.261l2.418,2.307l0.13,1.455l2.029,2.278l-0.639,0.288l-1.038-1.779l-4.401-2.835
			l-2.937-3.169l-1.77-0.176l-0.648-0.926L193.076,391.916L193.076,391.916z M295.562,362.621l2.631,3.846l5.531-0.122l1.473,7.023
			l5.67,0.454l3.371,5.847l0.427,3.103l0,0l-4.067-0.223l-4.632,3.225l-1.742-0.427l-1.955,0.918l-0.241,1.065l1.307,0.88
			l-0.186,0.861l-2.798,0.316l-3.168-1.085l-1.538,4.976l9.441,8.932l-3.669,2.741l-0.871,1.659l-4.076,2.316l1.139,2.658
			l-1.853,1.992l1.871,1.547l0.037,0.953l-2.816,3.169l-7.347-0.537l-1.76,2.484l-4.308-0.354l-1.13,3.067l-4.123,0.119
			l-2.918,4.662l-2.705,0.611l-0.528,1.612l-2.316,1.462l1.232,3.114l2.612,0.435l0.621,3.456l-1.176,1.019l-3.058,0.028
			l-0.584,2.299l-2.316,1.036l0,0l-1.612,1.807l-0.742-0.648l0.769-0.936l-1.77,0.027l-1.306,0.63l-0.723-0.592l-1.13-1.261
			l1.25-0.194l1.066,0.01l1.427-1.177l-0.862-2.345l1.26-0.315l-1.575-0.223l-0.343,0.947l-1.084-0.057l-0.046,1.648l-0.824-0.843
			l0.704-1.658l-2.501-0.62l-0.833-1.066l0.417-0.87l1.482,0.157l-0.111-1.52l-1.084,0.778l-1.371-0.835l1.315-2.046l-1.399-0.63
			l0.723-0.398l-0.556-1.733l0.704-0.656l-1.306-2.011l0.63-0.816l4.938,0.195l-6.559-2.057l2.242,0.083l0.204-0.965l2.131,1.864
			l-0.306-2.494l-3.029-2.417l-1.9-2.91l-1.25,0.594l-2.649-3.353l-6.865-4.93l-1.065,0.823l-2.576-0.675l-0.037,0.526l-1.658-0.861
			l0.213-0.777l-3.381-0.055l-0.982-2.401l-2.214-2.13l-2.112-0.175l-2.159-1.752l-0.195-1.241l1.547,1.704l0.75-0.917l1.417,0.102
			l2.279,1.362l0.379,1.241l0.037-2.565l-1.677-0.104l-3.78-3.548l-3.307-0.565l-1.594-1.287l0.13-1.204l-1.482,0.991l-0.213-1.354
			l2.437-2.454l3.168,2.854l0,0l1.881,0.583l4.095-1.936l0,0l2.372,1.036l0,0l0.519,0.148l0,0l3.233,1.845l0.269-1.761l0,0
			l0.241-1.037l0,0l0.528-1.177l0,0l-0.861-0.964l0,0l1.177-0.556l0,0l1.046-0.556l0,0l0.686-1.687l0,0l0.315-0.436l0,0l0.685-0.464
			l0,0l0.047-0.276l0,0l-0.278-0.371l0,0l-0.76-0.314l0,0l-0.269-0.668l0,0l2.029-1.13l0,0l0.779,0.297l1.779-1.131l-2.492-3.576
			l2.334-0.648l2.724-2.53l0,0l-0.908-2.074l1.751-2.335l0,0l-0.129-2.011l-3.308-2.205l-1.816-0.129l0,0l-1.102-1.621l0,0
			l1.167-0.713l3.502,1.167l1.167-2.725l0,0l2.205-0.454l1.297-1.881l0,0l1.102-1.621l0,0l1.751-0.713l0,0l3.956-6.68l0,0
			l1.815,0.129l0,0l1.686,2.399l0.195,1.816l9.153,4.215l2.14-1.231l0,0l2.205-1.751l0,0l0.843-2.141l-0.778-4.28l1.167-2.528
			l2.4-0.065l0,0l5.216-1.752l0,0l3.539,5.615l5.188,4.374l0.676,2.917L295.562,362.621L295.562,362.621z"/>
		<path id="HR-16" fill="#CCCCCC" d="M507.584,217.693l1.954-0.639l0.751-4.039l-1.927,0.186l-4.05-2.428l0.011-6.087l2.649-1.612
			l2.687,0.472l1.621-2.548l3.825-0.287l-0.647-3.725l2.519-1.408l0.021-4.808l3.798-0.575l2.177-2.02l4.048-0.732l1.14,0.296
			l0.695,1.38l2.455-0.528l0.102-1.797l1.844-0.139l-1.861-5.938l1.52-1.056l3.585-0.325l0.481-1.241l2.633,0.028l3.13,1.964
			l3.252,4.438l3.91,0.157l0.834-0.611l0,0l2.316,1.918l-0.038,1.742l-0.76,1.399l-1.723,0.315l-2.058,3.224l4.818,4.345l6.56,1.427
			l1.854,5.299l13.351,6.976l14.183,1.51l0.492,4.707l-0.936,1.723l0.324,1.807l-3.882,0.556l-3.762-4.327l-2.26,0.213l-0.715,3.66
			h-2.187l-8.162-4.151l-0.38,0.834l1.371,1.575l-0.333,1.714l-3.901,5.707l-1.333,0.649l-3.816-0.482l-0.083,2.529l1.5,2.261
			l-0.853,1.64l1.741,1.964l-0.055,2.186l-1.687,1.76l0.677,3.882l-0.917,1.714l-3.967,2.474l5.728,0.907l2.779-1.38l1.176,3.447
			l-1.131,1.603l-3.706,1.584l-2.353,2.863l-6.598,0.945l1.336,6.281l-5.181,0.769l-11.395-0.602l-8.412-6.967l0.796-2.011
			l-1.945-2.789l0.853-0.417l2.575,1.307l1.695-0.936l-1.928-3.4l0.947-3.41l-3.623-0.991l-2.809,0.63l0.78-2.975l-2.066-2.594
			l-2.066-0.528l-2.353-2.974l1.788-1.964l-0.965-1.992l-1.027-0.186l-0.983,1.158l0.455,3.168l-0.668,0.723l-4.633-1.14
			l0.065-0.825l2.613-2.001l-0.371-1.251l-0.907,0.065l-1.178,1.834l-3.632-1.789l-0.351,0.732l1.352,1.557l-0.686,1.473
			l-0.99-2.084l-2.864-1.473l0,0l-1.954-0.611l-1.77-3.752L507.584,217.693z"/>
		<path id="HR-17" fill="#CCCCCC" d="M281.035,498.784l-0.121,0.695l1.39,0.166l-1.278,1.771l0.945,0.406l2.251-2.093l1.816,0.166
			l0.408,0.982l1.325-1.074l-0.083,2.788l-2.214,1.5l-0.12,1.362l-1.696,1.158l-1.501,0.324l-2.399,0.472l-5.604,1.084l-4.188-0.092
			l2.131-2.066l0.083-1.945l-0.908-1.298l-1.677,0.891l-1.242-1.909l4.354-2.417L281.035,498.784L281.035,498.784z M329.795,496.468
			l1.861,0.193l1.881,0.261l0.937,1.084l-2.585,1.055l-4.938-0.944l1.01-1.363L329.795,496.468L329.795,496.468z M297.091,486.583
			l2.807,1.574l1.834-0.603l0.176,1.511l-1.834,0.407l-1.603-0.065l-1.992-1.157l-1.344-0.473l0.778-1.39L297.091,486.583
			L297.091,486.583z M317.427,479.142l0.98-0.055l-0.592,1.705l0.315,0.823l1.14-0.148l-0.148,1.074l2.539-1.612l0.639,0.853
			l2.51-0.072l0.474-0.094l0.518-0.657l1.705,0.76l-0.277,1.928l3.271,2.565l-2.539-0.454l2.168,1.398l0.917,1.141L333.02,489
			l2.177-1.111l1.046-0.029l1.789,0.982l4.864-0.519l1.286,0.732l3.466-0.789l1.992,1.372l5.809-0.036l14.018,2.408l3.846-0.861
			l4.873,1.992l-7.922,1.453l-1.622-0.574l-4.095,0.704l-1.269-0.666l-3.225,0.666l-2.687-0.193l-4.086,0.306l-15.62-2.058
			l-10.534,0.797l-9.339-2.668l-2.38,0.212l-6.013-3l-1.325,0.787l-2.464-0.891l0.268-1.036l-1.593-0.029l-0.5-0.906l-5.327-2.058
			l1.315-0.603l3.743,0.724l1.834-1.149l1.501-0.694l1.176,0.314l0.695-0.677l5.179,0.954l3.91,3.225l2.834-0.695l-1.945-0.694
			l-0.176-1.648l-1.354-0.279l-0.38-1.907l-1.704,0.999l-1.807-1.842l0.899-0.659l0.464,0.787l1.574,0.029l-0.398-1.196
			L317.427,479.142L317.427,479.142z M306.041,458.222l6.458,0.881l3.539-0.751l5.734,1.094l6.791,1.223l5.363,1.307l4.226,0.481
			l0.231,1.102l1.52-0.713l1.928,1.075l-1.975,0.594l0.13,0.76l2.094-0.566l0.974,1.065l0.093-1.12l0.787-0.186l4.771,3.058
			l0.982,1.14l-1.232,0.481l0.796,1.158l-1.259,0.416l-0.047,1.761l-1.631-0.499l-0.843,1.945l-6.152,1.203l-3.549-0.407
			l-11.433,1.269l-1.954-0.916l-8.172-0.974l-1.889-0.787L311.432,473l-1.167-0.908l-0.314-0.936l-1.158-0.167l-0.908-0.603
			l-1.02-0.101l0.481-0.974l-0.713-0.63l-0.815,0.157l0.167,0.814l-0.954-0.342l-0.565-0.445l-1.76-0.87l-0.185-2.261l1.593,1.51
			l2.214-0.398l-1.296-0.686l-0.12-1.88l2.686-1.028l-1.324-0.724l0.389-1.446l-2.029-1.954l-0.167-0.778L306.041,458.222
			L306.041,458.222z M286.742,455.166l4.957,1.37l0.509,1.381l0.908-0.695l0.723,0.632l0.973-0.214l2.335,3.271l0.88-0.277
			l0.269,1.88l2.687,2.076l0.593,1.77l-1.733,0.342l-0.306-1.01l-1.028,0.057l-0.945-0.131l-0.695-1.001l-3.048-0.87l-1.176-0.686
			l0.269-0.944l-1.964-0.371l-1.028-0.371l-4.465-2.521l-2.409-0.093l-0.158-0.972l0.343-1.464l-0.63-0.852L286.742,455.166
			L286.742,455.166z M271.947,449.755l0.769,1.12l-1.029,1.334l-0.732-1.167l-2.501-0.277l0.194-0.603L271.947,449.755
			L271.947,449.755z M276.857,449.384l2.427,0.214l0.871,1.74l-0.705,1.307l-1.427-0.694l-0.88,1.093l-3.354,0.092l0.936-1.749
			l0.676,0.128l-0.065-1.25l0.769-0.445L276.857,449.384L276.857,449.384z M290.263,442l2.14,0.064l4.836,2.679l3.706,0.897
			l-7.421,0.677l-4.123-1.372l-0.463,1.001l-2.113,0.741l-3.891-2.001l1.325-0.751l3.567,0.853l0.269-1.937l-1.75-0.677L290.263,442
			L290.263,442z M265.017,443.724l2.325-1.038l0.584-2.289l3.058-0.027l1.176-1.019l-0.621-3.456l-2.603-0.437l-1.223-3.112
			l2.326-1.464l0.528-1.612l2.706-0.601l2.918-4.661l4.123-0.119l1.13-3.067l4.308,0.361l1.76-2.484l7.347,0.538l2.816-3.169
			l-0.037-0.953l-1.872-1.548l1.853-1.992l-1.14-2.658l4.076-2.315l0.871-1.66l3.669-2.741l-9.432-8.932l1.538-4.975l3.168,1.084
			l2.798-0.315l0.186-0.862l-1.307-0.87l0.241-1.065l1.955-0.917l1.742,0.426l4.633-3.225l4.066,0.223l0,0l4.596,3.104l3.196,4.513
			l7.81,5.586l0.778,1.381l0.038,4.122l2.5,4.104l1.576,1.632l4.205,0.953l2.641,4.614l3.346,2.316l1.77,2.899l2.436,1.445
			l2.085,3.965l3.539,3.197l7.569,9.986l1.186-0.879l1.715,0.686l1.907,2.186l2.957,1.678l2.287,3.021l7.782-0.307l3.067,2.085
			l2.075,2.845l0.454,2.444l-0.353,2.752l-2.427,5.29l7.318,13.646l0.777,4.151l4.968,0.927l2.527,1.954l2.123,3.854l-0.481,2.808
			l1.398,0.352l0,0l-3.308,3.094l-4.873-1.203l-2.011,1.01l0.158,1.871l3.308,1.065l-0.057,2.668l-2.474,2.77l0,0l-1.315-2.436
			l-4.456-2.039l-0.547-1.398l-2.344-1.779l-8.171-2.973l-2.049-2.455l-1.37-0.131l-2.493-1.909l-0.583-2.436l-2.631-0.852
			l-2.622-4.828l-2.992-2.111l-0.945-0.954l-6.096-8.709l-4.697-3.798l-0.891-1.604l-9.319-0.344l-6.384-1.325l-3.261-3.982
			l-4.576,0.685l-2.132-1.881l-3.91-1.445l-3.938-3.437l-1.223-0.974l-4.576-0.74l-2.659,0.491l-2.391-0.102l-3.715-1.093
			l1.482-0.946l1.668-0.814l1.686-0.882l0.76-0.157l2.734,0.371l0.055-0.621l-0.612-0.647l-11.228-1.992l-3.669,1.557l-1.899,1.861
			l-6.81,1.093l-1.14,0.882l-2.566,0.434l-0.305-0.713l-2.02,0.148l-2.594-1.065l-1.482,1.029l5.503,1.399l0.278,1.176l-1.816,1.315
			l-2.334,0.185l-0.454,0.315l-1.38,1.057l-2.066-0.25l-2.446-1.565l-0.741,1.287l-1.223-0.787l-0.862,0.353l0.491-1.567
			l-1.695-0.306l-0.991,0.927L265.017,443.724L265.017,443.724z"/>
		<path id="HR-18" fill="#CCCCCC" d="M47.529,253.631l0.861,0.862l0.788-0.288l0.917,0.389l-0.26,1.112l0.88,0.445l-1.603,0.769
			l-0.056-0.713l-0.723,0.093l-0.463,2.548l-0.621-2.391l0.788-1.594l-1.89-1.009L47.529,253.631L47.529,253.631z M73.229,174.187
			l4.864,3.724l4.447,0.408l0,0l0.556,2.233l-0.538,1.788l1.604,2.816l7.328,4.66l-1.751,1.649l-0.074,1.454l1.529,1.686
			l1.408,6.115l-1.307,0.547l-0.648,1.695l-0.603,6.096l1.482,6.105l-0.667,6.411l2.353,1.547l0,0l-0.176,2.057l-1.667,2.761
			l-0.862,1.288l-1.945,3.438l-1.186,1.204l-1.121-0.917l-0.676,1.584l1.195,1.213l0.343,2.391l-0.222,1.111l-0.482,0.676
			l1.214,2.354l0.389,3.298l-2.205,3.854l-1.177-1.408l-1.297,0.862l-0.51-1.122l-1-0.064l-4.049,3.446l0.788-3.373l2.048-0.871
			l-1.344-1.278l-0.315-2.539l-1,0.648l-1.223-0.528l0.481-1.964l-1.306-3.261l-0.621,1.64l0.732,2.149l-0.862,1.937l2.955,0.769
			l0.713,2.149l-1.14,0.028l0.083,1.417l-1.195,0.593l-0.027,2.084l-1.927-0.833l1.714,2.159l-1.112,2.77l-0.843,0.565l-0.213,1.103
			l-2.113,1.649l-2.362-1.297l0.009,1.297l2.223,1.131l-1.186,0.769l0.926,2.075l-1.973,1.455l-0.176,1.668l0.945,1.593l0.241,1.056
			l1.103,2.334l-5.16,0.01l-1.362-1.909l-1.148,0.185l0.157-1.121l-1.436-0.769l-0.964,0.797l0.195,0.889l1.195,0.445l1.038,1.51
			l-0.991,1.445l0.639,1.696l0.028,0.5l-0.296,0.713l-1.112,0.296l-0.306-5.438L59.98,269.4l-1.649-0.454l-0.593-0.306l-0.788-1.121
			l1.519-0.602l-0.305-0.658l-1.492,0.241l-0.12-1.482l-1.028,1.223l-0.482-0.538l0.861-1.778l-2.205-0.566l-1.547-1.158
			l-0.083-1.723l2,1.547h1.872l0.491-0.583l0.352-0.537l0.269-1.538l-1.232-0.176l-0.408,0.908l-1.223,0.167l-1.279-0.917
			l-0.898-0.853l1.325-1.251l0.472-1.973l-0.954-0.213l-0.14-1.797l-3.771-7.579H46.26l-1.482-2.974l-0.89-0.176l0.195-1.834
			l-2.168-0.148l0.065-2.084l-0.954-0.611l0.787-0.973l-3.512-2.149l-2.13,0.472l-0.417-0.889l1.112-0.204l-0.713-1.668l0.889-0.408
			l0.121-1.408l-0.871-0.389l-1.677-0.741l-0.76-1.325l-0.908-3.521l0.213-0.991v-0.611l1.149-0.769l-2.131-2.344l1.51-0.528
			l-2.297-2.511l0.695-0.815v-0.676l0.797-1.779l0.167-0.853l0.278-1.982l-0.538-1.51l-1.797-0.204l-0.288-1.158l0.917-1.742
			l2.076,0.055l-0.296-1.158l-1.39,0.083l-1.761-1.918l2.113,0.176l0.009-1.074l2.251-1.195l-1.77-0.26l-0.491,0.084l-2.993,0.056
			l-0.454-0.269l0.825-0.732l-2.289-0.926l-0.12-3.021l1.612-0.871l-1.205-0.371l0.13-1.622l-0.083-0.722l-0.917-0.992l0.25-2.149
			l-1.917-1.964l0.759-2.928l-1.306-0.528l0.621-1.686l-0.779-0.528l0.103-2.066l-1.798-2.251l1.205-2.057l2.242,0.5l7.587,4.827
			l3.956,1.01l2.659,2.084l4.521-2.122l1.121-1.51l1.575-0.204l4.308,1.76l0.074,2.149l1.102,1.251l2.604-0.037l1.186,1.186h2.326
			l3.076-3.706l3.966-0.676l2.001,1.213l1.473-1.213l0.389-3.697l-2.937-2.808l0.676-1.213l2.974,0.602l-0.121-1.242l0.825-0.371
			L73.229,174.187L73.229,174.187z"/>
		<path id="HR-19" fill="#CCCCCC" d="M456.507,551.406l0.908,1.325l-0.528,0.751l-0.556-1.001l-2.696-0.805l1.983-0.252
			l-0.139-0.768L456.507,551.406L456.507,551.406z M451.56,550.304l1.075,1.158l-2.011-0.416l0.279,0.666l-0.751,0.249l-2.354-1.972
			l1.372,0.361l0.89-1.483L451.56,550.304L451.56,550.304z M436.312,542.189l3.501,1.435v1.315l-3.354-1.667l-1.501-1.844
			L436.312,542.189z M438.952,541.29l1.992,0.092l5.809,4.207l0.621,0.908l-0.918,2.214l-4.54-3.642L438.952,541.29L438.952,541.29z
			 M346.62,539.326l1.158-0.62l0.315,0.908l2.046-0.623l2.817,0.492l0.695,0.547l-0.38,1.705l-3.196,3.28l-1.733,0.49l-0.389-0.389
			l-0.324-1.455l-1.074,0.036l-2.27,0.769l-0.242,1.084l-2.741-3.278l1.167,0.353l-0.01-2.669l1.158-0.547l-0.231-0.87l1.048,0.25
			l0.861-0.288L346.62,539.326L346.62,539.326z M394.871,535.434l2.5-0.102l-1.093,1.288l-1.371-0.065l0.724,0.731l5.883-0.102
			l0.834,1.057l14.129,4.438l0.259,1.093l4.142-0.138l0.695,1.093l1.797-0.881l0.268,1.409l1.418-0.463l5.865,2.565l-0.481,0.871
			l0.944,1.761l-1.398,0.026l-0.566-0.713l-1.028-0.713l-1.621,0.342l-5.531-2.519l-3.677-0.732l-1.835,0.445l-5.384-1.871
			l-2.204,0.101l-4.947-2.743l-1.4,1.131l-0.592-1.342l-2.167-0.01l-0.528-0.991l-1.983-0.537l0.103,0.972l-0.148,0.389
			l-5.513-2.391l0.314-1.5L394.871,535.434L394.871,535.434z M330.119,510.502l0.084,0.668l2.548-0.297l1.621,1.464l3.688,0.732
			l0.398,0.806l6.503,1.187l4.661-0.76l0.981-1.075l9.988-0.991l3.373-0.278l-0.252,0.899l5.458,1.594l0.76,0.342l2.474-0.611
			l0.879,0.807l1.761,2.938l-0.314,0.897l4.112,1.437l-6.836,1.158l-1.223,0.157l-6.967-2.215l-7.07-0.407l-7.578,4.086
			l-3.058,0.445l-1.557-0.549l1.141-0.713l-0.639-0.454l-7.533,0.288l-9.95-3.27l-0.64,1.759l-2.186-1.334l0.556-0.416l-0.621-0.982
			l2.872-0.834l-0.603-1.316l4.558-0.508l-0.323-0.611l-0.398-0.835l-2.743-0.026l0.326-0.77l-2.17-1.437l-0.936,1.473l-0.481-1.25
			l-1.186-0.187l1.26-0.832l0.944,0.573l2.159-0.963L330.119,510.502L330.119,510.502z M360.173,503.408l2.493,0.665l-0.166,0.52
			l3.611,1.705l9.377-0.214l12.691,2.993l6.078,2.807l2.335,1.974l5.271,1.89l0.603,3.085l2.779,1.048l1.094,1.381l2.141-0.297
			l1.63,1.214l-1.277-2.752l1.001-0.074l5.502,3.261l2.325,0.52l3.816,3.168l2.984,0.157l0.157,1.066l4.837,3.649l1.214-0.119
			l-3.8-3.05l-0.528-1.306l-0.832,0.056l-3.735-2.474l0.881-1.529l3.113-3.409l3.28,0.565l5.975,3.966l2.363-3.734l3.371,2.817
			l0.205,3.974l1.823,3.688l2.233,0.713l-0.509,3.076l1.844-0.036l3.761,1.547l2.241,2.261l2.096,0.454l1.186,2.862l3.195,0.704
			l6.171,4.614l-0.102,3.159l3.965,1.093l1.14,3.029l2.604-0.324l3.483,4.521l1.964,1.095l1.307,2.454l4.308-1.361l0.585-1.261
			l1.963-0.547l4.179,0.547l1.63,2.808l4.967,3.929l1.705,7.457l-1.01,1.778l0.185,1.947l6.523,7.448l-0.742,2.316l-5.309-6.281
			l-0.844,0.686l-1.324-0.815l-0.77-1.399l-6.299-4.456l-6.265-3.216l-5.188-4.455l-1.167-2.158l-0.065-1.066l0.715-2.168
			l-2.104-2.909l-0.87-0.25l-1.77,1.232l-5.215-3.335l-2.354,0.055l-1.14-0.491l-2.771-0.962l-0.212-1.104l0.306-0.62l1.538-0.009
			l-0.548-0.612l-2.445-1.907l-7.56-3.717l-1.149-1.842l-5.013-2.521l-2.482-2.159l-0.27-1.342L444,539.02l0.408-1.835l-2.012,1.482
			l-1.926-1.584l-0.306-1.982l-2.141,0.481l-2.417-1.02l0.259,0.871l-1.491,1.761l-1.882-2.214l-6.235-4.022l0.361,1.057
			l4.309,3.059l2.159,3.242l-0.954,2.225l-1.131-1.169l0.713-0.936l-1.084-2.418l-0.861,0.677l-2.001-1.104l-0.63,0.389
			l-2.779-1.435l-0.131-1.177l-1.88,0.538l-20.076-7.153l-1.687-0.991l0.742-1.149l1.129-0.055l0.231-1.029l-3.141-2.427
			l-1.759-0.834l-0.065,0.538l-3.53-0.038l-2.575-2.297l-8.747-3.928l-2.603-2.613l-3.688,1.048l-4.317-0.095l-3.539-1.426
			l-2.715,0.057l-2.964-2.382l-2.113-0.52l0.807-2.158l0.981-0.167l-0.473-0.807l-1.36,0.353l-0.205-1.853l-1.158-0.564
			L360.173,503.408L360.173,503.408z M405.088,488.454l15.574,9.515l2.391,6.606l4.521,8.605l-4.307,1.075l-3.326,2.132
			l-1.271-0.315l-0.537,1.158l-7.355-0.056l-6.209-6.162l0.873-1.853l-1.058-0.63l-1.027-2.298l-2.577,1.271l-1.055-1.659
			l0.647-2.456l0.565-0.805l-1.02-1.9l-0.231,2.512l-1.148,1.01l-5.8-6.865l0,0l2.474-2.771l0.056-2.669l-3.308-1.064l-0.148-1.872
			l2.011-1.01l4.873,1.205l3.308-3.095l0,0L405.088,488.454L405.088,488.454z"/>
		<path id="HR-20" fill="#CCCCCC" d="M302.029,34.152l2.427,0.028l0.853,1.816l1.946-0.454l0.62,1.232l2.586,0.473l-0.02,1.111
			l2.826,1.195l-0.473,1.083l0.723,0.528l1.158-0.556l4.216,2.408l4.196-0.361l0.51,1.019l2.492-0.167l1.048,0.861l0.556,1.075
			l4.419,7.699l1.611-1l0.464,1.732l1.945,1.094l1.723,0.074l0.807-0.982l1.14,0.065l2.611,2.576l0.974,0.25l1.77,1.677l0,0
			l-0.27,4.113l-1.36,1.659l-0.641,3.474l-2.231,0.333l-0.483-3.502l-1.36,1.77l-0.51-1.288l-1.046,0.89l-0.511-0.778l-0.11,0.75
			l0,0l-0.353,0.083l0,0l-0.982-0.083l0,0l-2.371-0.695l0.526-2.622l-3.204,2.399l-2.011-1.881l-1.437,1.251l-1.871-1.084
			l-1.954,2.02l-2.113-0.259l-4.206-3.215l-1.742,2.381l-2.732-0.148l-0.166,0.982l-2.503-1.177l-2.89,0.056l-0.611-1.732
			l-1.492,1.76l-0.871-0.583l-1.093,0.676l-1.13-1.288l-3.511-0.019l-2.974-4.919l-3.882-2.038l0,0l1.659-3.53l-3.512-4.327
			l-1.964-8.551l1.714-3.233l2.705,0.009l2.974-2.159l1.121,0.491l0.519-1.742l1.186,0.538l0.723-0.723l0.963,1.584l1.816-1.862
			L302.029,34.152z"/>
		<path id="HR-21" fill="#CCCCCC" d="M278.043,111.938l2.149,4.447l-0.676,2.131l0.833,3.344l2.334,1.075l2.937,6.791l-2.844,1.473
			l-0.473,4.549l-5.132-1.464l0.148,0.982l-1.149,1.158l-2.992,1.038l-1.779,2.529l-5.077,2.622l-1.093,3.808l-2.289,0.417
			l-0.843,5.503l-3.298,7.014l-1.945,1.612h-3.465l0.333-3.057l-3.446-3.4l-4.308-1.427l-4.244-2.641l-0.797-3.53l1.492-3.001
			l1.38-0.899l0.945,1.427l2.455-0.102l1.149,1.621l1.649-1.278l0.667-2.789l-5.021-3.316l1.937-2.391l-1.649-5.568l1.612-3.094
			l10.784-7.088l0,0l9.283-4.206l2.854-2.28l3.243-0.333l0.648-1.76L278.043,111.938z"/>
	</g>
</g>
<g id="Layer_2">
	<g transform="translate(0.000000,507.000000) scale(0.100000,-0.100000)">
		<path fill="#BB001E" d="M-2134.15-147.739c-9.99-1.582-17.002-3.75-24.521-7.51c-16.113-8.115-28.867-20.967-36.387-36.377
			c-6.621-13.75-8.301-22.158-7.607-38.086c0.586-14.531,2.168-21.25,7.607-32.324c11.768-24.121,34.316-40.439,60.811-44.004
			c22.744-2.959,46.67,4.648,63.584,20.371c18.291,17.012,26.885,38.262,25.606,62.793c-0.693,12.461-2.471,19.57-7.617,30.449
			c-12.754,26.797-37.471,43.203-67.734,45.088C-2124.756-147.046-2130.986-147.241-2134.15-147.739z M-2106.758-180.659
			c12.363-6.123,21.855-18.486,25.312-32.725c1.484-6.133,1.582-19.385,0.195-25.312c-2.861-12.168-6.924-19.59-15.029-27.197
			c-20.859-19.473-52.705-12.754-65.85,13.848c-4.746,9.492-7.021,24.424-5.244,34.111c2.676,14.531,9.395,26.094,19.385,33.223
			c8.799,6.328,15.625,8.398,25.811,8.008C-2115.264-176.997-2113.086-177.505-2106.758-180.659z"/>
		<path fill="#BB001E" d="M-1822.783-147.739c-26.807-4.15-48.652-20.059-60.42-44.004c-6.123-12.646-7.715-19.375-7.812-33.613
			c0-13.945,2.08-24.121,6.924-34.805c22.051-48.047,82.559-61.494,123.301-27.48c19.873,16.611,30.645,43.691,27.48,69.209
			c-1.484,11.865-3.359,18.193-8.496,28.184c-8.213,16.113-19.58,26.982-36.494,35.195
			C-1791.748-148.423-1809.141-145.659-1822.783-147.739z M-1794.805-180.464c31.338-15.322,36.084-64.961,8.398-87.51
			c-7.803-6.426-14.727-8.691-25.996-8.789c-8.506,0-9.99,0.293-16.123,3.164c-8.105,3.848-17.1,12.451-20.869,19.961
			c-3.848,7.422-6.514,18.984-6.514,27.598c0,18.086,8.994,35.098,23.232,43.594c7.91,4.746,13.35,6.133,23.037,5.645
			C-1802.812-177.095-1800.244-177.7-1794.805-180.464z"/>
		<path fill="#BB001E" d="M-2338.427-166.528v-13.838h23.242h23.232v-61.299v-61.309h16.807h16.806v61.309v61.299h23.242h23.232
			v13.838v13.848h-63.281h-63.281V-166.528L-2338.427-166.528z"/>
		<path fill="#BB001E" d="M-2042.783-153.071c0-0.195,12.949-20.967,28.672-45.977l28.672-45.586v-29.16v-29.18h17.305h17.305
			v28.779v28.77l11.27,17.998c6.133,9.785,19.277,30.645,29.062,46.367l17.9,28.379l-19.775-0.195l-19.766-0.293l-17.51-30.361
			c-9.59-16.611-17.695-30.557-17.998-30.752c-0.293-0.293-8.496,13.457-18.291,30.459l-17.793,31.045l-19.482,0.098
			C-2033.984-152.681-2042.783-152.876-2042.783-153.071z"/>
		<path fill="#BB001E" d="M-1722.432-166.528v-13.838h23.242h23.232v-61.299v-61.309h16.807h16.807v61.309v61.299h23.232h23.242
			v13.838v13.848h-63.281h-63.281V-166.528L-1722.432-166.528z"/>
		<path fill="#BB001E" d="M-1549.199-159.8c-15.625-37.969-48.252-116.963-58.232-140.889c-0.41-0.996,3.857-1.289,19.277-1.289
			h19.668l6.328,16.807l6.338,16.807l30.645-0.293l30.654-0.195l6.328-16.514l6.328-16.611h19.58h19.668l-0.889,2.266
			c-0.488,1.191-8.096,19.58-16.904,40.742c-8.701,21.26-22.148,53.789-29.863,72.48l-13.936,33.809h-20.967h-21.055
			L-1549.199-159.8z M-1514.795-215.864c5.439-14.336,9.893-26.201,9.893-26.396s-9.092-0.4-20.273-0.4
			c-11.172,0-20.273,0.303-20.273,0.693c0,0.498,13.545,36.191,19.287,51.025c0.4,0.986,0.889,1.582,1.084,1.387
			C-1524.873-189.751-1520.224-201.626-1514.795-215.864z"/>
		<path fill="#BDBCBC" d="M-2337.431-391.47v-14.326h645.644h645.664v14.326v14.336h-645.664h-645.644V-391.47z"/>
		<path fill="#231F20" d="M-1100.01-555.102c-22.734-3.066-37.08-20.674-37.08-45.684c0-10.176,1.484-16.699,5.732-24.814
			c3.955-7.617,9.785-13.35,17.5-17.012c7.217-3.35,12.461-4.346,22.842-4.443c12.461,0,20.469,2.568,32.334,10.283l4.648,3.066
			v17.002v17.109h-19.277h-19.277v-5.439v-5.439h13.35h13.34v-8.398v-8.408l-4.453-2.871c-13.936-8.896-34.697-7.705-45.176,2.568
			c-11.973,11.67-12.168,39.551-0.4,53.398c6.328,7.51,21.26,11.074,32.529,7.803c7.021-2.07,12.852-7.012,15.127-13.037
			c1.777-4.658,2.578-4.951,8.408-3.174c2.373,0.693,3.857,1.689,3.857,2.666c-0.098,2.09-3.369,9.395-6.035,13.154
			C-1068.271-558.061-1084.678-553.032-1100.01-555.102z"/>
		<path fill="#231F20" d="M-2332.49-601.079v-44.98h5.928h5.938v37.363c0,20.469,0.391,36.582,0.889,35.801
			c0.391-0.791,6.23-17.598,12.949-37.383l12.168-35.879l5.537,0.293l5.537,0.293l12.353,35.596l12.363,35.586l0.293-35.791
			l0.195-35.879h5.938h5.938v44.98v45.088l-8.115-0.293l-8.105-0.293l-12.949-37.773l-12.959-37.773l-12.656,38.066l-12.656,37.969
			h-9.287h-9.297V-601.079L-2332.49-601.079z"/>
		<path fill="#231F20" d="M-2203.262-557.28c-10.771-27.676-33.32-87.012-33.32-87.803c0-0.684,2.178-0.977,6.133-0.781l6.123,0.293
			l5.049,13.35l4.941,13.35l18.486,0.293l18.389,0.195l5.049-12.949c2.773-7.119,5.039-13.35,5.039-13.848
			c0-0.488,3.164-0.879,6.924-0.879c3.857,0,6.924,0.293,6.924,0.781c0,0.4-8.105,20.566-17.998,44.99l-18.096,44.199h-6.523
			C-2200.498-556.089-2202.969-556.479-2203.262-557.28z M-2191.797-579.829c2.48-6.816,5.84-16.006,7.52-20.459l2.969-8.213
			h-14.736h-14.736l2.578,6.729c4.941,12.959,11.172,31.338,11.172,33.223C-2197.031-565.483-2196.445-566.772-2191.797-579.829z"/>
		<path fill="#231F20" d="M-2159.463-561.528v-5.439h14.336h14.336l0.205-39.258l0.293-39.346l6.23-0.293l6.133-0.293v39.639v39.551
			h14.834h14.824v5.439v5.439h-35.596h-35.596V-561.528L-2159.463-561.528z"/>
		<path fill="#231F20" d="M-2076.406-601.079v-44.98h33.623h33.613v5.43v5.439h-27.686h-27.783l0.293,15.127l0.303,15.029
			l25.01,0.293l25.02,0.195l-0.293,5.244l-0.303,5.146l-24.922,0.293l-25.01,0.195v13.35v13.35h26.699h26.689v5.439v5.439h-32.627
			h-32.627V-601.079L-2076.406-601.079z"/>
		<path fill="#231F20" d="M-1992.363-601.079v-44.98h5.938h5.928v19.766v19.775h10.186c7.617,0,10.879-0.391,13.545-1.777
			c4.355-2.178,10.283-9.6,20.273-25.312l7.812-12.451h7.314c6.025,0,7.217,0.293,6.719,1.475
			c-0.293,0.791-4.346,7.314-8.896,14.541c-8.496,13.242-13.545,19.375-18.779,23.145l-2.871,2.061l3.857,0.703
			c6.621,1.074,13.35,5.537,16.709,10.869c2.373,3.965,2.959,6.133,3.262,11.865c0.293,6.23,0,7.617-2.471,12.461
			c-3.457,6.621-8.701,10.479-16.025,11.855c-2.861,0.508-15.908,0.996-28.867,0.996h-23.633V-601.079L-1992.363-601.079z
			 M-1944.209-567.456c9.492-2.764,13.154-10.684,8.994-19.082c-3.76-7.617-6.719-8.516-27.686-8.906l-17.598-0.391v14.932v14.932
			h15.625C-1953.799-565.972-1947.764-566.382-1944.209-567.456z"/>
		<path fill="#231F20" d="M-1900.41-601.079v-44.98h5.938h5.928v44.98v44.99h-5.928h-5.938V-601.079z"/>
		<path fill="#231F20" d="M-1843.955-558.266c-1.475-3.848-28.867-75.049-31.338-81.67l-2.373-6.221l6.523,0.293l6.631,0.293
			l4.941,13.545l4.941,13.643h18.496h18.486l5.244-13.838l5.234-13.838h6.719c3.76,0,6.826,0.293,6.826,0.781
			c-0.098,0.4-8.203,20.469-18.096,44.697l-18.096,44.004l-6.621,0.293C-1842.568-555.991-1843.154-556.186-1843.955-558.266z
			 M-1824.971-599.302l3.467-9.199h-14.736c-8.105,0-14.727,0.205-14.727,0.41c0,0.195,2.373,6.719,5.342,14.521
			c2.959,7.812,6.123,17.012,7.109,20.469l1.787,6.23l4.15-11.67C-1830.303-584.956-1826.943-594.35-1824.971-599.302z"/>
		<path fill="#231F20" d="M-1784.717-601.079v-44.98h28.174h28.184v5.43v5.439h-22.246h-22.256v39.551v39.551h-5.928h-5.928
			V-601.079z"/>
		<path fill="#231F20" d="M-1683.877-601.079v-44.98h5.947h5.928v21.25v21.26h23.232h23.232v-21.26v-21.25h5.938h5.928v44.98v44.99
			h-5.928h-5.938v-18.301v-18.281h-23.232h-23.232v18.281v18.301h-5.928h-5.947V-601.079z"/>
		<path fill="#231F20" d="M-1570.068-558.266c-2.959-7.51-31.143-81.074-32.324-84.141l-1.279-3.75l6.514,0.293l6.523,0.293
			l4.951,13.545l4.941,13.643h18.486h18.496l5.244-13.838l5.234-13.838h6.816c6.143,0,6.826,0.195,6.338,1.768
			c-0.303,0.898-8.506,21.074-18.193,44.697l-17.598,43.018l-6.631,0.293C-1568.682-555.991-1569.267-556.186-1570.068-558.266z
			 M-1551.084-599.302l3.467-9.199h-14.736c-8.105,0-14.727,0.205-14.727,0.508c0,0.195,1.982,5.43,4.248,11.562
			c4.453,11.475,7.91,21.748,9.102,26.992c0.586,2.666,1.182,1.68,4.941-8.896C-1556.523-584.858-1553.057-594.35-1551.084-599.302z
			"/>
		<path fill="#231F20" d="M-1510.635-600.786l0.293-44.785l5.635-0.293l5.742-0.293l0.195,34.893l0.293,34.902l23.232-34.805
			l23.232-34.795l6.24-0.098h6.123v44.98v44.99h-5.928h-5.928l-0.205-34.209l-0.303-34.209l-23.037,34.209l-23.037,34.209h-6.416
			h-6.328L-1510.635-600.786z"/>
		<path fill="#231F20" d="M-1419.873-600.981v-45.078h19.082c27.1,0,34.912,1.768,43.018,10.078
			c8.203,8.203,12.051,19.473,12.051,35.098c0,20.957-6.611,34.209-20.557,41.035l-6.631,3.271l-23.428,0.293l-23.535,0.391
			V-600.981z M-1371.123-570.22c9.092-5.342,12.754-14.053,12.852-29.863c0-17.607-4.248-27.598-13.848-32.236
			c-4.248-2.08-6.426-2.373-20.264-2.676l-15.615-0.391v34.307v34.307l16.104-0.293
			C-1376.465-567.456-1375.674-567.554-1371.123-570.22z"/>
		<path fill="#231F20" d="M-1329.892-601.079v-44.98h28.184h28.174v5.43v5.439h-22.246h-22.246v39.551v39.551h-5.938h-5.928
			V-601.079L-1329.892-601.079z"/>
		<path fill="#231F20" d="M-1257.715-601.079v-44.98h5.938h5.928v44.98v44.99h-5.928h-5.938V-601.079z"/>
		<path fill="#231F20" d="M-1225.088-601.079v-44.98h5.938h5.928l0.195,34.697l0.293,34.805l23.145-34.805l23.135-34.697h6.328h6.23
			v44.98v44.99h-5.938h-5.928v-34.805v-34.805l-23.428,34.805l-23.447,34.805h-6.221h-6.23V-601.079z"/>
	</g>
	<g>
		<g>
			<path fill="#BF2126" d="M745.097,532.21c0.137-0.98-0.185-1.9-0.595-2.735c-0.412-0.841-0.945-1.616-1.532-2.337
				c-0.594-0.716-1.239-1.38-1.933-1.977c-0.695-0.595-1.427-1.133-2.193-1.582c-0.768-0.45-1.559-0.825-2.364-1.089
				c-0.806-0.257-1.616-0.426-2.411-0.464c-0.797-0.026-1.574,0.045-2.317,0.242c-0.371,0.1-0.735,0.222-1.091,0.375
				c-0.353,0.159-0.699,0.336-1.039,0.532c-0.338,0.207-0.672,0.421-0.989,0.672l-0.121,0.091c-0.072,0.053,0.09-0.066,0.071-0.052
				l-0.01,0.008l-0.019,0.016l-0.034,0.029l-0.069,0.057l-0.141,0.118l-0.07,0.059c-0.016,0.016-0.02,0.024-0.032,0.037
				l-0.284,0.325c-0.479,0.553-0.963,1.272-1.407,2.024c-0.448,0.755-0.869,1.562-1.267,2.389c-0.399,0.828-0.786,1.671-1.151,2.53
				c-0.365,0.858-0.713,1.729-1.044,2.61c-0.336,0.879-0.663,1.763-0.972,2.652c-0.308,0.889-0.6,1.782-0.87,2.675
				c-0.27,0.892-0.533,1.782-0.741,2.637l-3.54-3.243c1.642-0.564,3.289-1.057,4.947-1.495c1.656-0.443,3.331-0.813,5.019-1.133
				c1.689-0.319,3.394-0.583,5.124-0.771c1.734-0.185,3.493-0.291,5.322-0.235c0.915,0.031,1.85,0.101,2.825,0.265l0.184,0.03
				l0.093,0.016l0.159,0.029l0.151,0.034l0.093,0.021l0.146,0.039c0.097,0.025,0.2,0.053,0.289,0.08l0.244,0.082
				c0.161,0.055,0.322,0.122,0.48,0.189c0.635,0.283,1.229,0.668,1.731,1.12c0.507,0.447,0.915,0.957,1.257,1.474
				c0.334,0.516,0.592,1.047,0.798,1.573c0.404,1.049,0.613,2.079,0.718,3.079c0.201,2.001,0.025,3.906-0.389,5.756
				c-0.436,1.845-1.104,3.642-2.175,5.344l-0.208,0.317l-0.065,0.095l-0.011,0.015l-0.023,0.031l-0.046,0.061l-0.094,0.125
				c-0.087,0.127-0.343,0.432-0.549,0.665c-0.412,0.438-0.831,0.824-1.315,1.151c-0.953,0.672-2.021,1.081-3.04,1.324
				c-2.058,0.456-3.941,0.333-5.701,0.093c-1.761-0.252-3.43-0.624-5.058-1.045c-1.631-0.419-3.227-0.852-4.811-1.278
				c-1.584-0.422-3.162-0.81-4.741-1.132c-1.583-0.312-3.168-0.553-4.76-0.617c-1.589-0.071-3.187,0.032-4.739,0.426
				c-0.771,0.201-1.537,0.462-2.271,0.813c-0.732,0.353-1.436,0.787-2.104,1.285c1.075-1.272,2.478-2.31,4.049-3.024
				c1.571-0.716,3.286-1.108,5.001-1.297c1.72-0.18,3.445-0.176,5.146-0.057c1.703,0.109,3.382,0.324,5.041,0.567
				c1.659,0.235,3.294,0.522,4.909,0.765c1.612,0.234,3.204,0.465,4.738,0.544c1.524,0.078,3.008,0.015,4.169-0.347
				c0.576-0.187,1.062-0.431,1.439-0.753c0.191-0.149,0.369-0.342,0.515-0.516c0.057-0.087,0.082-0.086,0.223-0.308l0.086-0.128
				l0.043-0.064l0.021-0.033l0.01-0.016c-0.098,0.145-0.021,0.032-0.042,0.062l0.122-0.207c0.646-1.133,1.103-2.504,1.357-3.892
				c0.263-1.387,0.332-2.827,0.151-4.116c-0.087-0.642-0.246-1.242-0.456-1.729c-0.213-0.486-0.469-0.842-0.702-1.03
				c-0.115-0.1-0.229-0.16-0.351-0.214c-0.034-0.009-0.062-0.024-0.098-0.033l-0.052-0.016c-0.01-0.002-0.008,0-0.012-0.002
				l-0.002-0.002c0.004,0-0.004-0.002-0.021-0.005l-0.038-0.008l-0.152-0.029l-0.02-0.005c-0.023-0.004,0.128,0.025,0.056,0.011
				l-0.029-0.004l-0.063-0.009l-0.122-0.017c-0.658-0.1-1.379-0.145-2.117-0.156c-1.481-0.018-3.034,0.1-4.59,0.271
				c-1.558,0.176-3.127,0.429-4.689,0.733s-3.12,0.667-4.664,1.061c-1.545,0.398-3.074,0.848-4.567,1.35l-4.798,1.617l1.26-4.86
				c0.268-1.033,0.554-2.012,0.877-2.975c0.323-0.96,0.663-1.909,1.02-2.851c0.357-0.938,0.727-1.874,1.123-2.8
				c0.398-0.925,0.817-1.844,1.259-2.755c0.881-1.829,1.852-3.625,3.058-5.389c0.615-0.881,1.258-1.758,2.137-2.606
				c0.115-0.108,0.212-0.205,0.343-0.322c0.142-0.121,0.284-0.241,0.429-0.358l0.104-0.084l0.075-0.054l0.149-0.105l0.229-0.161
				l0.184-0.112c0.481-0.304,0.997-0.571,1.521-0.816c1.054-0.488,2.201-0.824,3.372-0.979c1.172-0.161,2.365-0.118,3.5,0.104
				c1.133,0.226,2.21,0.603,3.19,1.118c0.98,0.513,1.88,1.125,2.687,1.822c0.804,0.701,1.534,1.461,2.171,2.285
				c0.637,0.826,1.2,1.696,1.657,2.62c0.462,0.919,0.825,1.888,1.035,2.895c0.1,0.502,0.154,1.018,0.146,1.528
				C745.417,531.251,745.323,531.772,745.097,532.21z"/>
			<path fill="#BF2126" d="M753.86,531.333c0,0-0.01,0.883-0.103,2.404c-0.021,0.38-0.048,0.799-0.081,1.256
				c-0.03,0.458-0.068,0.95-0.113,1.477c-0.037,0.527-0.084,1.084-0.139,1.673c-0.05,0.589-0.103,1.206-0.166,1.85
				c-0.058,0.641-0.119,1.31-0.192,1.999c-0.03,0.344-0.062,0.695-0.095,1.052c-0.035,0.354-0.072,0.715-0.108,1.08
				c-0.136,1.455-0.278,2.991-0.426,4.579c-0.074,0.791-0.13,1.594-0.194,2.403c-0.029,0.405-0.062,0.812-0.093,1.222
				c-0.024,0.407-0.046,0.818-0.07,1.229c-0.103,1.642-0.16,3.306-0.164,4.946l-0.003,0.155l0.002,0.133l0.003,0.161l0.005,0.122
				c0.005,0.149,0.02,0.334,0.034,0.494c0.039,0.323,0.077,0.631,0.146,0.888c0.062,0.26,0.148,0.468,0.229,0.613
				c0.084,0.146,0.156,0.22,0.227,0.291c0.072,0.066,0.17,0.131,0.338,0.184c0.168,0.052,0.396,0.086,0.662,0.093
				c0.536,0.024,1.201-0.066,1.867-0.23c0.672-0.153,1.362-0.363,2.037-0.609c0.678-0.241,1.352-0.5,2.002-0.778
				c1.309-0.55,2.555-1.129,3.707-1.673c1.164-0.553,2.23-1.06,3.176-1.507c0.957-0.447,1.799-0.836,2.504-1.14
				c0.705-0.303,1.27-0.528,1.661-0.665c0.392-0.139,0.606-0.195,0.606-0.195s-0.158,0.152-0.458,0.435
				c-0.293,0.286-0.723,0.704-1.271,1.235c-0.548,0.53-1.223,1.165-2.014,1.88c-0.398,0.353-0.823,0.727-1.278,1.115
				c-0.46,0.383-0.944,0.787-1.466,1.195c-1.039,0.814-2.2,1.663-3.514,2.486c-1.319,0.814-2.769,1.618-4.516,2.229
				c-0.88,0.288-1.834,0.542-2.959,0.604c-0.563,0.022-1.174-0.011-1.823-0.159c-0.645-0.148-1.336-0.433-1.944-0.871
				c-0.612-0.433-1.106-1.014-1.457-1.601c-0.351-0.591-0.579-1.188-0.733-1.755c-0.153-0.571-0.244-1.118-0.287-1.648
				c-0.023-0.27-0.038-0.514-0.044-0.795l-0.004-0.199v-0.162l0.007-0.356c0.011-1.803,0.176-3.575,0.367-5.309
				c0.058-0.432,0.112-0.861,0.171-1.288c0.064-0.424,0.128-0.847,0.19-1.267c0.135-0.839,0.293-1.663,0.45-2.468
				c0.155-0.809,0.334-1.596,0.513-2.363c0.17-0.771,0.368-1.515,0.556-2.24c0.379-1.451,0.78-2.808,1.175-4.052
				c0.394-1.245,0.785-2.376,1.147-3.374c0.362-0.996,0.696-1.86,0.985-2.568C753.481,532.129,753.86,531.333,753.86,531.333z"/>
			<path fill="#231F20" d="M715.643,561.459c0,0-0.036-0.099-0.105-0.281c-0.03-0.09-0.038-0.231-0.039-0.404
				c0.011-0.081,0.024-0.171,0.046-0.271c0.02-0.1,0.074-0.193,0.124-0.303c0.224-0.429,0.749-0.801,1.336-0.971
				c0.591-0.184,1.263-0.228,1.971-0.146c0.708,0.086,1.459,0.293,2.218,0.708c0.381,0.207,0.764,0.473,1.131,0.824
				c0.367,0.338,0.715,0.798,0.981,1.362c0.273,0.558,0.416,1.277,0.365,1.976c-0.014,0.358-0.1,0.685-0.188,1.021
				c-0.055,0.152-0.117,0.304-0.18,0.455c-0.033,0.073-0.064,0.153-0.1,0.223l-0.112,0.199c-0.075,0.132-0.152,0.264-0.234,0.396
				l-0.258,0.339c-0.175,0.239-0.357,0.42-0.546,0.608l-0.141,0.143l-0.198,0.171l-0.216,0.184l-0.11,0.09
				c-0.041,0.032-0.062,0.054-0.134,0.104l-0.371,0.254c-0.125,0.08-0.255,0.167-0.381,0.236l-0.371,0.186
				c-0.24,0.129-0.512,0.223-0.784,0.313c-0.541,0.185-1.135,0.264-1.719,0.278c-1.182-0.002-2.294-0.404-3.134-0.979
				c-0.84-0.586-1.455-1.317-1.875-2.093c-0.412-0.785-0.643-1.624-0.615-2.491c0.02-0.228,0.032-0.432,0.095-0.656
				c0.032-0.11,0.05-0.21,0.093-0.317c0.044-0.109,0.091-0.213,0.139-0.312c0.217-0.394,0.527-0.733,0.868-0.902
				c0.085-0.045,0.167-0.089,0.246-0.124c0.081-0.024,0.161-0.046,0.239-0.069c0.079-0.02,0.154-0.041,0.228-0.054
				c0.069-0.002,0.141-0.006,0.21-0.009c0.271-0.022,0.492,0.029,0.689,0.065c0.383,0.103,0.645,0.229,0.816,0.334
				c0.172,0.099,0.258,0.155,0.258,0.155s-0.1,0.033-0.285,0.096c-0.09,0.033-0.2,0.059-0.321,0.11
				c-0.123,0.057-0.261,0.104-0.398,0.177c-0.272,0.143-0.561,0.376-0.604,0.605c-0.03,0.108,0.008,0.203,0.048,0.29
				c0.043,0.09,0.102,0.203,0.183,0.331c0.163,0.265,0.446,0.586,0.778,0.869c0.344,0.278,0.747,0.512,1.134,0.647
				c0.395,0.129,0.746,0.145,1.061,0.104c0.161-0.04,0.317-0.07,0.489-0.145c0.085-0.035,0.171-0.066,0.262-0.123l0.138-0.068
				c0.04-0.022,0.065-0.048,0.1-0.068c0.034-0.02,0.069-0.037,0.105-0.054c0.012,0.001,0.061-0.044,0.096-0.069l0.111-0.089
				l0.224-0.175l0.057-0.043l0.027-0.021c0.021-0.018-0.151,0.128-0.075,0.064l0.002-0.004l0.008-0.008l0.061-0.057
				c0.081-0.076,0.18-0.149,0.23-0.214c0.031-0.032,0.066-0.065,0.099-0.097c0.019-0.028,0.04-0.054,0.064-0.08l0.036-0.036
				c0.011-0.012,0.014-0.021,0.021-0.031c0.011-0.018,0.027-0.035,0.047-0.052c0.006-0.021,0.048-0.045,0.051-0.055
				c0.035-0.025,0.083-0.048,0.081-0.146c0.023-0.191-0.153-0.598-0.453-0.943c-0.294-0.354-0.666-0.693-1.044-0.947
				c-0.375-0.262-0.754-0.458-1.085-0.575c-0.337-0.12-0.604-0.153-0.834-0.093c-0.118,0.027-0.213,0.096-0.311,0.165
				c-0.066,0.075-0.15,0.143-0.198,0.228C715.694,561.368,715.643,561.459,715.643,561.459z"/>
			<path fill="#231F20" d="M734.241,561.459c0,0-0.038-0.099-0.107-0.281c-0.029-0.09-0.037-0.231-0.039-0.403
				c0.012-0.082,0.026-0.172,0.047-0.271s0.075-0.193,0.125-0.303c0.224-0.429,0.747-0.801,1.333-0.971
				c0.593-0.184,1.264-0.228,1.973-0.146c0.708,0.086,1.458,0.293,2.219,0.708c0.381,0.207,0.764,0.473,1.128,0.824
				c0.369,0.338,0.718,0.798,0.983,1.362c0.273,0.559,0.415,1.277,0.365,1.976c-0.013,0.358-0.101,0.685-0.189,1.021
				c-0.052,0.152-0.115,0.304-0.179,0.455c-0.031,0.073-0.064,0.153-0.1,0.223l-0.111,0.199c-0.074,0.132-0.153,0.265-0.235,0.396
				l-0.257,0.339c-0.174,0.239-0.356,0.42-0.545,0.608l-0.141,0.143l-0.199,0.171l-0.217,0.184l-0.11,0.09
				c-0.039,0.032-0.06,0.054-0.133,0.104l-0.372,0.254c-0.126,0.08-0.255,0.167-0.38,0.236l-0.372,0.186
				c-0.24,0.129-0.512,0.223-0.784,0.313c-0.541,0.185-1.135,0.264-1.719,0.278c-1.182-0.002-2.294-0.404-3.133-0.979
				c-0.84-0.586-1.455-1.317-1.876-2.093c-0.41-0.785-0.642-1.624-0.616-2.491c0.022-0.228,0.034-0.432,0.098-0.656
				c0.029-0.11,0.047-0.21,0.093-0.317c0.041-0.109,0.09-0.213,0.138-0.312c0.217-0.394,0.526-0.733,0.868-0.902
				c0.084-0.045,0.168-0.089,0.247-0.124c0.081-0.024,0.161-0.046,0.239-0.069c0.077-0.02,0.153-0.041,0.225-0.054
				c0.071-0.002,0.143-0.006,0.21-0.009c0.274-0.022,0.493,0.029,0.69,0.065c0.383,0.103,0.646,0.229,0.818,0.334
				c0.172,0.099,0.256,0.155,0.256,0.155s-0.098,0.033-0.283,0.096c-0.091,0.033-0.201,0.059-0.324,0.11
				c-0.119,0.057-0.26,0.104-0.397,0.177c-0.271,0.143-0.561,0.376-0.603,0.605c-0.031,0.108,0.006,0.203,0.045,0.29
				c0.045,0.09,0.104,0.203,0.185,0.331c0.161,0.265,0.446,0.586,0.777,0.869c0.345,0.278,0.748,0.512,1.135,0.647
				c0.394,0.129,0.746,0.145,1.061,0.104c0.16-0.039,0.318-0.07,0.488-0.145c0.085-0.035,0.171-0.066,0.263-0.123l0.137-0.068
				c0.041-0.022,0.066-0.048,0.102-0.068c0.033-0.02,0.069-0.037,0.105-0.054c0.01,0.001,0.06-0.043,0.094-0.069l0.11-0.089
				l0.225-0.175l0.057-0.043l0.028-0.021c0.021-0.018-0.151,0.128-0.076,0.064l0.004-0.004l0.007-0.008l0.062-0.057
				c0.08-0.076,0.18-0.149,0.229-0.214c0.031-0.032,0.065-0.065,0.1-0.097c0.017-0.028,0.039-0.054,0.062-0.08l0.038-0.036
				c0.01-0.012,0.012-0.021,0.019-0.031c0.013-0.018,0.028-0.035,0.049-0.052c0.006-0.021,0.048-0.045,0.051-0.055
				c0.034-0.025,0.081-0.048,0.081-0.146c0.023-0.191-0.155-0.598-0.454-0.943c-0.292-0.354-0.664-0.693-1.042-0.947
				c-0.376-0.262-0.755-0.458-1.088-0.575c-0.334-0.12-0.602-0.153-0.832-0.093c-0.118,0.027-0.213,0.096-0.31,0.165
				c-0.067,0.075-0.151,0.143-0.198,0.228C734.291,561.368,734.241,561.459,734.241,561.459z"/>
		</g>
		<g>
			<g>
				<path fill="#231F20" d="M767.895,542.022c2.124,0,3.88,0.413,3.88,1.83c0,0.398-0.161,0.899-0.486,1.49
					c0-1.476-1.742-1.785-3.379-1.785c-1.283,0-2.213,0.368-2.213,1.372c0,2.435,6.433,0.045,6.433,4.721
					c0,2.184-1.829,3.261-4.338,3.261c-1.844,0-3.896-0.458-3.896-1.845c0-0.383,0.163-0.84,0.532-1.371
					c0,1.431,1.933,1.696,3.363,1.696c1.535,0,2.287-0.604,2.287-1.607c0-2.73-6.418-0.384-6.418-4.634
					C763.661,542.76,765.564,542.022,767.895,542.022z"/>
				<path fill="#231F20" d="M775.732,552.896c0,0-1.978,0-1.978-0.959v-9.886c0,0,1.978,0,1.978,0.959v3.438
					c1.505-0.31,2.479-1.564,3.54-3.468c0.429-0.781,1.167-0.959,1.698-0.959c0.367,0,0.899,0.134,0.899,0.134
					c-1.151,1.814-2.081,4.234-3.998,4.972c1.638,0.457,2.832,2.537,3.6,4.102c0.265,0.517,0.473,0.959,0.841,1.49
					c0,0-0.591,0.146-0.899,0.146c-0.517,0-1.402-0.176-1.83-0.959c-0.93-1.666-1.771-3.674-3.851-4.086V552.896z"/>
				<path fill="#231F20" d="M784.867,552.749c0,0-1.609,0-1.609-0.959v-9.738c0,0,1.979,0,1.979,0.959v8.278h3.29
					c1.254,0,1.637-0.237,1.637-0.237c0,0.768-0.205,1.697-1.106,1.697H784.867z"/>
				<path fill="#231F20" d="M798.146,546.375l1.255,3.88c0.354,1.105,0.619,1.992,0.914,2.435c0,0-0.486,0.161-0.826,0.161
					c-1.387,0-1.725-1.194-2.095-2.302l-0.251-0.781h-3.719l-0.249,0.781c-0.37,1.107-0.71,2.302-2.097,2.302
					c-0.338,0-0.825-0.161-0.825-0.161c0.294-0.442,0.561-1.329,0.915-2.435l1.253-3.88c0.988-3.04,2.643-4.368,2.862-4.516
					C795.506,542.007,797.158,543.335,798.146,546.375z M794.31,546.758l-0.457,1.535h2.862l-0.458-1.535
					c-0.367-1.239-0.974-2.493-0.974-2.493C795.048,544.633,794.679,545.519,794.31,546.758z"/>
				<path fill="#231F20" d="M802.929,552.749c-0.147,0-1.579-0.044-1.579-0.959v-9.59h4.279c2.36,0,4.588,0.781,4.588,3.629v3.29
					c0,2.848-2.228,3.63-4.588,3.63H802.929z M803.328,543.66v7.629h2.302c1.46,0,2.611-0.561,2.611-2.316v-3.011
					c0-1.756-1.151-2.302-2.611-2.302H803.328z"/>
				<path fill="#231F20" d="M812.138,542.051c0,0,1.977,0,1.977,0.959v9.886c0,0-1.977,0-1.977-0.959V542.051z"/>
				<path fill="#231F20" d="M819.973,542.022c2.123,0,3.879,0.413,3.879,1.83c0,0.398-0.161,0.899-0.486,1.49
					c0-1.476-1.741-1.785-3.378-1.785c-1.284,0-2.214,0.368-2.214,1.372c0,2.435,6.434,0.045,6.434,4.721
					c0,2.184-1.83,3.261-4.338,3.261c-1.845,0-3.896-0.458-3.896-1.845c0-0.383,0.162-0.84,0.531-1.371
					c0,1.431,1.933,1.696,3.364,1.696c1.534,0,2.287-0.604,2.287-1.607c0-2.73-6.419-0.384-6.419-4.634
					C815.738,542.76,817.641,542.022,819.973,542.022z M819.914,540.119c0,0,1.357-0.944,0.93-1.622
					c2.212,0.812,1.194,1.533-0.709,2.965h-0.442c-1.903-1.416-2.95-2.153-0.723-2.965
					C818.527,539.145,819.914,540.119,819.914,540.119z"/>
				<path fill="#231F20" d="M832.825,549.813c0,0-0.176-0.841-0.176-1.565V542.2c0,0,1.977,0,1.977,0.96v9.736
					c-2.229,0-2.686-1.062-2.686-1.062l-4.294-6.816c0,0,0.163,0.841,0.163,1.564v6.314c0,0-1.978,0-1.978-0.959V542.2
					c1.181,0,2.155,0,2.671,0.841L832.825,549.813z"/>
				<path fill="#231F20" d="M843.554,546.375l1.254,3.88c0.354,1.105,0.62,1.992,0.915,2.435c0,0-0.487,0.161-0.826,0.161
					c-1.388,0-1.727-1.194-2.096-2.302l-0.251-0.781h-3.718l-0.251,0.781c-0.368,1.107-0.708,2.302-2.095,2.302
					c-0.34,0-0.827-0.161-0.827-0.161c0.296-0.442,0.561-1.329,0.915-2.435l1.255-3.88c0.988-3.04,2.641-4.368,2.862-4.516
					C840.913,542.007,842.565,543.335,843.554,546.375z M839.717,546.758l-0.457,1.535h2.862l-0.457-1.535
					c-0.369-1.239-0.974-2.493-0.974-2.493C840.456,544.633,840.087,545.519,839.717,546.758z"/>
			</g>
		</g>
		<g>
			<g>
				<path fill="#231F20" d="M774.887,568.452c0,0-1.607,0-1.607-0.959v-9.738c0,0,1.977,0,1.977,0.959v8.278h3.29
					c1.255,0,1.639-0.236,1.639-0.236c0,0.767-0.208,1.696-1.107,1.696H774.887z"/>
				<path fill="#231F20" d="M790.042,565.132c0,2.185-1.417,3.497-4.441,3.497c-3.04,0-4.441-1.312-4.441-3.497v-3.909
					c0-2.184,1.401-3.497,4.441-3.497c3.024,0,4.441,1.313,4.441,3.497V565.132z M788.065,561.414c0-1.4-0.398-2.228-2.479-2.228
					c-2.05,0-2.448,0.827-2.448,2.228v3.527c0,1.402,0.398,2.228,2.448,2.228c2.081,0,2.479-0.825,2.479-2.228V561.414z"/>
				<path fill="#231F20" d="M791.815,561.356c0-2.687,2.08-3.63,4.44-3.63c1.977,0,4.116,0.545,4.116,2.007
					c0,0.368-0.134,0.796-0.457,1.297c-0.369-1.372-2.169-1.77-3.659-1.77c-1.445,0-2.464,0.546-2.464,2.301v3.217
					c0,1.756,1.019,2.316,2.464,2.316s2.464-0.294,2.464-2.168v-0.472h-1.696c-0.959,0-1.226-0.754-1.226-1.653
					c0,0,0.399,0.191,1.476,0.191h3.423v2.154c0,2.627-2.08,3.482-4.44,3.482s-4.44-0.944-4.44-3.629V561.356z"/>
				<path fill="#231F20" d="M802.616,557.754c0,0,1.979,0,1.979,0.959v9.886c0,0-1.979,0-1.979-0.959V557.754z"/>
				<path fill="#231F20" d="M810.452,557.726c2.124,0,3.88,0.413,3.88,1.829c0,0.398-0.161,0.9-0.487,1.49
					c0-1.476-1.74-1.785-3.377-1.785c-1.284,0-2.214,0.368-2.214,1.372c0,2.435,6.434,0.045,6.434,4.721
					c0,2.185-1.83,3.262-4.338,3.262c-1.845,0-3.896-0.458-3.896-1.845c0-0.383,0.162-0.84,0.532-1.371
					c0,1.431,1.932,1.695,3.363,1.695c1.534,0,2.286-0.604,2.286-1.607c0-2.729-6.418-0.384-6.418-4.633
					C806.217,558.463,808.121,557.726,810.452,557.726z"/>
				<path fill="#231F20" d="M820.058,559.364v9.235c0,0-1.976,0-1.976-0.959v-8.276h-1.815c-1.226,0-1.401-0.93-1.401-1.696
					c0,0,0.516,0.235,1.637,0.235h5.178c1.123,0,1.639-0.235,1.639-0.235c0,0.767-0.178,1.696-1.401,1.696H820.058z"/>
				<path fill="#231F20" d="M824.383,557.754c0,0,1.978,0,1.978,0.959v9.886c0,0-1.978,0-1.978-0.959V557.754z"/>
				<path fill="#231F20" d="M830.404,568.599c0,0-1.978,0-1.978-0.959v-9.886c0,0,1.978,0,1.978,0.959v3.439
					c1.505-0.311,2.478-1.565,3.541-3.469c0.428-0.781,1.165-0.958,1.696-0.958c0.369,0,0.899,0.133,0.899,0.133
					c-1.149,1.813-2.079,4.234-3.997,4.972c1.638,0.457,2.832,2.538,3.599,4.102c0.267,0.517,0.473,0.959,0.841,1.49
					c0,0-0.589,0.147-0.899,0.147c-0.516,0-1.402-0.177-1.83-0.959c-0.93-1.666-1.769-3.674-3.85-4.086V568.599z"/>
				<path fill="#231F20" d="M844.791,562.079l1.254,3.881c0.354,1.105,0.62,1.991,0.915,2.434c0,0-0.487,0.162-0.826,0.162
					c-1.387,0-1.726-1.195-2.096-2.302l-0.25-0.781h-3.719l-0.25,0.781c-0.369,1.106-0.709,2.302-2.096,2.302
					c-0.339,0-0.825-0.162-0.825-0.162c0.294-0.442,0.561-1.328,0.914-2.434l1.254-3.881c0.988-3.039,2.642-4.367,2.862-4.515
					C842.15,557.711,843.802,559.04,844.791,562.079z M840.955,562.461l-0.458,1.535h2.862l-0.457-1.535
					c-0.368-1.238-0.974-2.492-0.974-2.492C841.693,560.337,841.323,561.223,840.955,562.461z"/>
			</g>
		</g>
	</g>
</g>
<g id="Layer_3">
	<path fill="#BB001E" d="M101.245,163.423c-5.829,0-10.581,4.708-10.581,10.582c0,0.313,0,0.627,0.045,0.986
		c0,0.09,0,0.18,0.045,0.27c0.896,8.25,10.491,17.979,10.491,17.979s9.55-9.729,10.491-17.979c0-0.09,0-0.18,0.045-0.27
		c0.045-0.313,0.045-0.627,0.045-0.986C111.781,168.13,107.074,163.423,101.245,163.423z M101.2,179.922
		c-3.184,0-5.784-2.601-5.784-5.784c0-3.184,2.601-5.784,5.784-5.784s5.784,2.601,5.784,5.784
		C106.984,177.367,104.383,179.922,101.2,179.922z"/>
	<g>
		<path d="M78.449,150.1v4.105h-2.485v-12.244h4.753c2.791,0,4.321,1.242,4.321,4.033c0,1.692-0.685,2.827-1.801,3.529l1.747,4.682
			h-2.719l-1.422-4.105H78.449z M80.718,144.086h-2.269v3.889h2.305c1.242,0,1.746-0.864,1.746-1.944
			C82.5,144.861,81.906,144.086,80.718,144.086z"/>
		<path d="M87.124,141.962h2.485v12.244h-2.485V141.962z"/>
		<path d="M95.135,152.135c0,2.701-1.152,3.331-3.853,3.331v-2.161c0.9,0,1.368-0.252,1.368-1.278v-10.065h2.467L95.135,152.135z"/>
		<path d="M97.708,141.962h7.922v2.161h-5.438v2.863h4.357v2.125h-4.357v2.935h5.438v2.161h-7.922V141.962z"/>
		<path d="M111.821,149.326l-1.657,0.18v4.699h-2.484v-12.244h2.484v5.384l1.657-0.18l2.017-5.204h2.827l-2.665,6.14l2.737,6.104
			h-2.863L111.821,149.326z"/>
		<path d="M120.082,141.962h4.717l2.755,12.244h-2.485l-0.486-2.215h-4.285l-0.486,2.215h-2.485L120.082,141.962z M120.766,149.83
			h3.349l-1.243-5.815h-0.864L120.766,149.83z"/>
	</g>
	<path fill="#BB001E" d="M271.769,103.423c-5.829,0-10.581,4.708-10.581,10.582c0,0.313,0,0.627,0.045,0.986
		c0,0.09,0,0.18,0.045,0.27c0.896,8.25,10.491,17.979,10.491,17.979s9.55-9.729,10.491-17.979c0-0.09,0-0.18,0.045-0.27
		c0.045-0.313,0.045-0.627,0.045-0.986C282.305,108.13,277.598,103.423,271.769,103.423z M271.724,119.922
		c-3.184,0-5.784-2.601-5.784-5.784c0-3.184,2.601-5.784,5.784-5.784s5.784,2.601,5.784,5.784
		C277.508,117.367,274.908,119.922,271.724,119.922z"/>
	<g>
		<path d="M240.846,81.962h8.103v2.161l-5.114,7.598v0.324h5.114v2.161h-8.103v-2.143l5.113-7.616v-0.324h-5.113V81.962z"/>
		<path d="M252.745,81.962h4.717l2.755,12.244h-2.485l-0.486-2.215h-4.286l-0.486,2.215h-2.485L252.745,81.962z M253.429,89.83
			h3.349l-1.243-5.815h-0.864L253.429,89.83z"/>
		<path d="M266.767,87.652h3.565v6.355c0,0-2.575,0.414-4.177,0.414c-3.998,0-5.006-2.232-5.006-6.338
			c0-4.465,1.296-6.338,4.916-6.338c1.891,0,4.268,0.504,4.268,0.504l-0.072,1.927c0,0-2.161-0.234-3.799-0.234
			c-2.125,0-2.754,0.702-2.754,4.141c0,3.259,0.45,4.178,2.683,4.178c0.738,0,1.495-0.072,1.495-0.072v-2.377h-1.117V87.652z"/>
		<path d="M275.154,90.1v4.105h-2.485V81.962h4.753c2.791,0,4.321,1.242,4.321,4.033c0,1.692-0.685,2.827-1.801,3.529l1.747,4.682
			h-2.719l-1.422-4.105H275.154z M277.423,84.086h-2.269v3.889h2.305c1.242,0,1.746-0.864,1.746-1.944
			C279.205,84.861,278.611,84.086,277.423,84.086z"/>
		<path d="M283.83,81.962h7.922v2.161h-5.438v2.863h4.357v2.125h-4.357v2.935h5.438v2.161h-7.922V81.962z"/>
		<path d="M298.608,81.962c2.467,0,3.817,0.9,3.817,3.241c0,1.387-0.378,2.089-1.351,2.701c1.044,0.45,1.584,1.206,1.584,2.791
			c0,2.449-1.53,3.511-3.979,3.511h-4.879V81.962H298.608z M296.286,84.086v2.917h2.214c0.972,0,1.404-0.504,1.404-1.477
			c0-1.008-0.486-1.44-1.422-1.44H296.286z M296.286,89.092v2.989h2.269c1.026,0,1.584-0.306,1.584-1.513
			c0-1.008-0.594-1.476-1.584-1.476H296.286z"/>
	</g>
	<path fill="#BB001E" d="M295.372,37.423c-5.829,0-10.581,4.708-10.581,10.582c0,0.313,0,0.627,0.045,0.986
		c0,0.09,0,0.18,0.045,0.27c0.896,8.25,10.491,17.979,10.491,17.979s9.55-9.729,10.492-17.979c0-0.09,0-0.18,0.045-0.27
		c0.045-0.313,0.045-0.627,0.045-0.986C305.909,42.13,301.201,37.423,295.372,37.423z M295.327,53.922
		c-3.184,0-5.784-2.601-5.784-5.784c0-3.184,2.601-5.784,5.784-5.784s5.784,2.601,5.784,5.784
		C301.111,51.367,298.511,53.922,295.327,53.922z"/>
	<g>
		<path d="M265.073,15.962l-2.845,12.244h-4.591l-2.845-12.244h2.611l2.125,10.083h0.811l2.125-10.083H265.073z"/>
		<path d="M267.933,15.962h4.717l2.755,12.244h-2.485l-0.486-2.215h-4.286l-0.486,2.215h-2.485L267.933,15.962z M268.617,23.83
			h3.349l-1.243-5.815h-0.864L268.617,23.83z"/>
		<path d="M279.525,24.1v4.105h-2.485V15.962h4.753c2.791,0,4.321,1.242,4.321,4.033c0,1.692-0.685,2.827-1.801,3.529l1.747,4.682
			h-2.719l-1.422-4.105H279.525z M281.793,18.086h-2.269v3.889h2.305c1.242,0,1.746-0.864,1.746-1.944
			C283.576,18.861,282.982,18.086,281.793,18.086z"/>
		<path d="M289.784,15.962h4.717l2.755,12.244h-2.485l-0.486-2.215H290l-0.486,2.215h-2.485L289.784,15.962z M290.468,23.83h3.349
			l-1.243-5.815h-0.864L290.468,23.83z"/>
		<path d="M298.297,15.962h8.103v2.161l-5.114,7.598v0.324h5.114v2.161h-8.103v-2.143l5.113-7.616v-0.324h-5.113V15.962z
			 M298.927,11.749h2.557l0.936,1.008l0.882-1.008h2.557l-2.413,2.683h-2.106L298.927,11.749z"/>
		<path d="M308.467,28.206V15.962h4.123c4.268,0,5.204,1.818,5.204,5.888c0,4.177-0.81,6.356-5.204,6.356H308.467z M312.59,18.123
			h-1.638v7.922h1.638c2.413,0,2.647-1.477,2.647-4.195C315.238,19.167,315.003,18.123,312.59,18.123z"/>
		<path d="M319.952,15.962h2.484v12.244h-2.484V15.962z"/>
		<path d="M325.099,15.962h4.195l2.952,10.083h0.181V15.962h2.485v12.244h-4.088l-3.061-10.083h-0.181v10.083h-2.484V15.962z"/>
	</g>
	<path fill="#BB001E" d="M524.46,146.09c-5.829,0-10.581,4.708-10.581,10.582c0,0.313,0,0.627,0.045,0.986c0,0.09,0,0.18,0.045,0.27
		c0.896,8.25,10.491,17.979,10.491,17.979s9.55-9.729,10.491-17.979c0-0.09,0-0.18,0.045-0.27c0.045-0.313,0.045-0.627,0.045-0.986
		C534.997,150.797,530.29,146.09,524.46,146.09z M524.416,162.589c-3.184,0-5.784-2.601-5.784-5.784
		c0-3.184,2.601-5.784,5.784-5.784s5.784,2.601,5.784,5.784C530.2,160.034,527.599,162.589,524.416,162.589z"/>
	<g>
		<path d="M498.874,130.823c0-4.141,1.225-6.41,5.078-6.41s5.078,2.269,5.078,6.41s-1.225,6.266-5.078,6.266
			S498.874,134.964,498.874,130.823z M506.473,130.823c0-2.827-0.505-4.249-2.521-4.249s-2.521,1.422-2.521,4.249
			s0.504,4.105,2.521,4.105S506.473,133.649,506.473,130.823z"/>
		<path d="M518.497,126.862c0,0-2.539-0.288-3.583-0.288c-1.333,0-1.963,0.486-1.963,1.296c0,0.774,0.486,1.044,2.539,1.693
			c2.646,0.846,3.457,1.584,3.457,3.619c0,2.665-1.819,3.907-4.231,3.907c-1.674,0-4.088-0.558-4.088-0.558l0.253-1.926
			c0,0,2.413,0.324,3.69,0.324c1.333,0,1.909-0.63,1.909-1.585c0-0.756-0.433-1.098-2.196-1.602c-2.756-0.792-3.8-1.729-3.8-3.691
			c0-2.539,1.692-3.637,4.177-3.637c1.639,0,4.033,0.486,4.033,0.486L518.497,126.862z"/>
		<path d="M520.942,124.629h2.484v12.244h-2.484V124.629z"/>
		<path d="M528.954,134.802c0,2.701-1.152,3.331-3.854,3.331v-2.161c0.9,0,1.368-0.252,1.368-1.278v-10.065h2.467L528.954,134.802z"
			/>
		<path d="M531.526,124.629h7.922v2.161h-5.438v2.863h4.357v2.125h-4.357v2.935h5.438v2.161h-7.922V124.629z"/>
		<path d="M545.639,131.993l-1.656,0.18v4.699h-2.485v-12.244h2.485v5.384l1.656-0.18l2.016-5.204h2.827l-2.665,6.14l2.737,6.104
			h-2.862L545.639,131.993z"/>
	</g>
	<path fill="#BB001E" d="M296.813,409.424c-5.829,0-10.581,4.707-10.581,10.581c0,0.313,0,0.628,0.045,0.985
		c0,0.09,0,0.18,0.045,0.27c0.896,8.25,10.491,17.979,10.491,17.979s9.55-9.729,10.491-17.979c0-0.09,0-0.18,0.045-0.27
		c0.045-0.312,0.045-0.627,0.045-0.985C307.349,414.131,302.643,409.424,296.813,409.424z M296.769,425.923
		c-3.184,0-5.784-2.601-5.784-5.784s2.601-5.783,5.784-5.783s5.784,2.6,5.784,5.783
		C302.553,423.368,299.952,425.923,296.769,425.923z"/>
	<g>
		<path d="M283.74,390.196c0,0-2.539-0.288-3.583-0.288c-1.333,0-1.963,0.485-1.963,1.296c0,0.774,0.486,1.045,2.539,1.693
			c2.646,0.846,3.457,1.584,3.457,3.619c0,2.664-1.819,3.906-4.231,3.906c-1.674,0-4.087-0.559-4.087-0.559l0.252-1.926
			c0,0,2.413,0.324,3.691,0.324c1.333,0,1.909-0.631,1.909-1.585c0-0.756-0.432-1.099-2.197-1.603
			c-2.755-0.792-3.799-1.729-3.799-3.691c0-2.538,1.693-3.637,4.177-3.637c1.639,0,4.033,0.486,4.033,0.486L283.74,390.196z"/>
		<path d="M288.67,396.641v3.565h-2.485v-12.243h4.501c2.881,0,4.357,1.404,4.357,4.249s-1.476,4.429-4.357,4.429H288.67z
			 M290.669,394.517c1.242,0,1.854-0.757,1.854-2.305c0-1.53-0.612-2.125-1.854-2.125h-1.999v4.43H290.669z"/>
		<path d="M296.787,400.207v-12.243h2.485v10.047h4.483v2.196H296.787z"/>
		<path d="M305.283,387.963h2.484v12.243h-2.484V387.963z"/>
		<path d="M309.333,387.963h9.002v2.196h-3.24v10.047h-2.484V390.16h-3.277V387.963z"/>
	</g>
</g>
</svg>
