<?xml version="1.0" encoding="utf-8"?>
<!-- Generator: Adobe Illustrator 16.0.0, SVG Export Plug-In . SVG Version: 6.00 Build 0)  -->
<!DOCTYPE svg PUBLIC "-//W3C//DTD SVG 1.1//EN" "http://www.w3.org/Graphics/SVG/1.1/DTD/svg11.dtd">
<svg version="1.1" id="Layer_1" xmlns="http://www.w3.org/2000/svg" xmlns:xlink="http://www.w3.org/1999/xlink" x="0px" y="0px"
	 width="290px" height="100px" viewBox="-4.583 0 290 100" enable-background="new -4.583 0 290 100" xml:space="preserve">
<g id="Layer_2_1_" display="none">
	<rect x="-40.5" y="-35.5" display="inline" fill="#9C0000" stroke="#FFFFFF" stroke-miterlimit="10" width="426" height="212"/>
</g>
<g id="Layer_2" display="none">
	
		<rect x="-29.833" y="-14.833" display="inline" fill="#A71730" stroke="#000000" stroke-miterlimit="10" width="392.667" height="161"/>
</g>
<g id="Layer_3">
</g>
<g>
	<g>
		<path fill="#FFFFFF" d="M220.388,33.47c-3.388,0-6.134,2.745-6.134,6.134c0,3.39,2.744,6.136,6.134,6.136
			c3.391,0,6.137-2.746,6.137-6.136C226.523,36.215,223.778,33.47,220.388,33.47 M220.388,43.489c-1.888,0-3.423-1.738-3.423-3.885
			c0-2.146,1.535-3.885,3.423-3.885c1.896,0,3.428,1.739,3.428,3.885C223.815,41.751,222.282,43.489,220.388,43.489"/>
	</g>
	<polygon fill="#FFFFFF" points="237.09,33.891 227.295,33.891 227.295,36.023 230.911,36.023 230.901,36.023 230.901,45.46 
		233.485,45.46 233.485,36.023 233.497,36.023 237.09,36.023 	"/>
	<path fill="#FFFFFF" d="M244.195,33.891h-1.606h-1.61l-4.772,11.569h3.018l0.994-2.6l0.003-0.003h2.368h2.365l0.004,0.003
		l0.994,2.6h3.018L244.195,33.891z M240.959,40.905l1.615-4.234h0.023l1.613,4.234h-1.625H240.959z"/>
	<polygon fill="#FFFFFF" points="189.441,33.891 179.646,33.891 179.646,36.023 183.261,36.023 183.25,36.023 183.25,45.46 
		185.833,45.46 185.833,36.023 185.845,36.023 189.441,36.023 	"/>
	<g>
		<path fill="#FFFFFF" d="M196.241,33.47c-3.392,0-6.135,2.745-6.135,6.134c0,3.39,2.743,6.136,6.135,6.136
			c3.389,0,6.133-2.746,6.133-6.136C202.374,36.215,199.629,33.47,196.241,33.47 M196.241,43.489c-1.895,0-3.427-1.738-3.427-3.885
			c0-2.146,1.532-3.885,3.427-3.885c1.889,0,3.424,1.739,3.424,3.885C199.665,41.751,198.129,43.489,196.241,43.489"/>
	</g>
	<polygon fill="#FFFFFF" points="214.135,33.891 211.118,33.891 208.314,38.755 205.513,33.891 202.493,33.891 207.004,41.069 
		207.004,41.122 207.004,45.46 208.314,45.46 209.622,45.46 209.622,41.122 209.622,41.069 	"/>
	<rect x="179.646" y="51.246" fill="#FFFFFF" width="100.062" height="2.314"/>
	<g>
		<path fill="#FFFFFF" d="M180.133,72.074v-6.943h1.382l1.646,4.916c0.149,0.459,0.262,0.799,0.33,1.025
			c0.081-0.252,0.204-0.623,0.371-1.113l1.665-4.83h1.233v6.943h-0.889V66.26l-2.014,5.812h-0.829l-2.009-5.912v5.912h-0.887V72.074
			L180.133,72.074z"/>
		<path fill="#FFFFFF" d="M187.479,72.074l2.666-6.943h0.988l2.842,6.943h-1.044l-0.812-2.105h-2.902l-0.762,2.105H187.479z
			 M189.484,69.221h2.351l-0.723-1.922c-0.221-0.584-0.385-1.068-0.492-1.441c-0.089,0.447-0.216,0.888-0.375,1.326L189.484,69.221z
			"/>
		<path fill="#FFFFFF" d="M195.768,72.074v-6.125h-2.288v-0.818h5.506v0.818h-2.295v6.125H195.768z"/>
		<path fill="#FFFFFF" d="M199.947,72.074v-6.943h5.021v0.818h-4.102v2.125h3.842v0.814h-3.842v2.364h4.26v0.82L199.947,72.074
			L199.947,72.074z"/>
		<path fill="#FFFFFF" d="M206.411,72.074v-6.943h3.08c0.615,0,1.09,0.061,1.41,0.186c0.322,0.125,0.58,0.349,0.771,0.662
			c0.191,0.314,0.289,0.662,0.289,1.045c0,0.494-0.162,0.906-0.479,1.248c-0.319,0.338-0.812,0.552-1.479,0.644
			c0.246,0.117,0.43,0.233,0.555,0.346c0.271,0.248,0.525,0.554,0.763,0.925l1.206,1.891h-1.152l-0.918-1.445
			c-0.27-0.416-0.488-0.736-0.664-0.957c-0.174-0.221-0.328-0.379-0.465-0.467c-0.14-0.086-0.279-0.148-0.418-0.184
			c-0.105-0.021-0.279-0.031-0.512-0.031h-1.066v3.084h-0.92V72.074z M207.331,68.193h1.975c0.422,0,0.749-0.045,0.986-0.133
			c0.233-0.082,0.418-0.224,0.539-0.416c0.125-0.189,0.184-0.398,0.184-0.621c0-0.326-0.116-0.597-0.355-0.812
			c-0.24-0.213-0.617-0.315-1.13-0.315h-2.196v2.297H207.331z"/>
		<path fill="#FFFFFF" d="M213.558,72.074v-6.943h0.919v6.943H213.558z"/>
		<path fill="#FFFFFF" d="M215.334,72.074L218,65.131h0.987l2.845,6.943h-1.049l-0.809-2.105h-2.903l-0.764,2.105H215.334z
			 M217.338,69.221h2.353l-0.726-1.922c-0.219-0.584-0.387-1.068-0.492-1.441c-0.086,0.447-0.213,0.888-0.375,1.326L217.338,69.221z
			"/>
		<path fill="#FFFFFF" d="M222.53,72.074v-6.943h0.915v6.123h3.421v0.82H222.53z"/>
		<path fill="#FFFFFF" d="M230.327,72.074v-6.943h0.914v2.848h3.611v-2.848h0.918v6.943h-0.918v-3.273h-3.611v3.273H230.327z"/>
		<path fill="#FFFFFF" d="M236.54,72.074l2.666-6.943h0.987l2.845,6.943h-1.051l-0.808-2.105h-2.902l-0.765,2.105H236.54z
			 M238.54,69.221h2.355l-0.727-1.922c-0.221-0.584-0.381-1.068-0.492-1.441c-0.088,0.447-0.213,0.888-0.375,1.326L238.54,69.221z"
			/>
		<path fill="#FFFFFF" d="M243.758,72.074v-6.943h0.945l3.647,5.449v-5.449h0.879v6.943h-0.94l-3.646-5.459v5.459H243.758z"/>
		<path fill="#FFFFFF" d="M250.775,72.074v-6.943h2.392c0.541,0,0.949,0.029,1.235,0.1c0.399,0.093,0.736,0.256,1.019,0.496
			c0.365,0.312,0.642,0.707,0.82,1.185c0.184,0.481,0.272,1.032,0.272,1.651c0,0.527-0.062,0.994-0.185,1.4
			c-0.121,0.408-0.283,0.748-0.473,1.012c-0.193,0.269-0.404,0.479-0.634,0.633c-0.229,0.15-0.505,0.267-0.825,0.347
			c-0.326,0.078-0.697,0.121-1.118,0.121L250.775,72.074L250.775,72.074z M251.693,71.252h1.481c0.459,0,0.816-0.045,1.078-0.131
			c0.261-0.082,0.471-0.201,0.621-0.354c0.219-0.22,0.389-0.515,0.51-0.884c0.123-0.366,0.185-0.812,0.185-1.336
			c0-0.728-0.121-1.287-0.358-1.674c-0.24-0.392-0.527-0.649-0.871-0.783c-0.246-0.094-0.642-0.143-1.187-0.143h-1.459V71.252
			L251.693,71.252z"/>
		<path fill="#FFFFFF" d="M257.743,72.074v-6.943h0.916v6.123h3.418v0.82H257.743z"/>
		<path fill="#FFFFFF" d="M263.329,72.074v-6.943h0.918v6.943H263.329z"/>
		<path fill="#FFFFFF" d="M265.858,72.074v-6.943h0.941l3.648,5.449v-5.449h0.877v6.943h-0.941l-3.645-5.459v5.459H265.858z"/>
		<path fill="#FFFFFF" d="M276.122,69.348v-0.813l2.939-0.007v2.578c-0.449,0.359-0.917,0.634-1.395,0.812
			c-0.483,0.182-0.977,0.273-1.48,0.273c-0.682,0-1.303-0.146-1.857-0.438c-0.557-0.293-0.977-0.715-1.262-1.271
			c-0.285-0.551-0.426-1.168-0.426-1.85c0-0.676,0.141-1.305,0.423-1.893c0.283-0.582,0.688-1.021,1.222-1.305
			c0.529-0.283,1.139-0.429,1.83-0.429c0.502,0,0.959,0.084,1.362,0.25c0.405,0.158,0.728,0.386,0.953,0.677
			c0.229,0.289,0.407,0.67,0.526,1.139l-0.828,0.227c-0.105-0.354-0.237-0.631-0.389-0.834c-0.154-0.205-0.378-0.365-0.666-0.486
			c-0.285-0.121-0.604-0.184-0.955-0.184c-0.416,0-0.783,0.062-1.088,0.193c-0.307,0.129-0.556,0.295-0.74,0.504
			c-0.188,0.209-0.336,0.438-0.441,0.689c-0.176,0.428-0.264,0.893-0.264,1.393c0,0.619,0.107,1.141,0.32,1.557
			s0.523,0.723,0.93,0.926c0.408,0.203,0.838,0.303,1.3,0.303c0.396,0,0.786-0.073,1.163-0.229c0.38-0.152,0.664-0.316,0.861-0.49
			v-1.295h-2.039V69.348z"/>
	</g>
</g>
<g>
	<g>
		<path fill="#FFFFFF" d="M30.69,42.91c0.109-0.783-0.148-1.521-0.476-2.189c-0.33-0.673-0.758-1.292-1.226-1.87
			c-0.477-0.574-0.992-1.106-1.548-1.583s-1.142-0.908-1.756-1.267c-0.614-0.359-1.248-0.659-1.893-0.87
			c-0.646-0.208-1.294-0.343-1.932-0.372c-0.638-0.021-1.259,0.034-1.854,0.193c-0.298,0.079-0.589,0.179-0.873,0.301
			c-0.283,0.127-0.561,0.268-0.833,0.426c-0.27,0.165-0.538,0.337-0.792,0.537l-0.096,0.075c-0.058,0.042,0.072-0.053,0.054-0.042
			l-0.007,0.006l-0.013,0.013l-0.029,0.023l-0.057,0.047l-0.111,0.094l-0.056,0.047c-0.013,0.013-0.016,0.02-0.025,0.03l-0.229,0.26
			c-0.382,0.441-0.771,1.019-1.127,1.62c-0.359,0.606-0.697,1.251-1.013,1.913c-0.319,0.663-0.631,1.338-0.922,2.027
			c-0.292,0.688-0.572,1.386-0.836,2.09c-0.269,0.705-0.531,1.411-0.777,2.124c-0.247,0.712-0.481,1.427-0.699,2.142
			c-0.214,0.716-0.428,1.427-0.594,2.112L8.137,48.2c1.313-0.451,2.632-0.846,3.96-1.198c1.328-0.355,2.666-0.649,4.02-0.907
			c1.351-0.254,2.716-0.466,4.102-0.616c1.39-0.15,2.797-0.234,4.26-0.188c0.734,0.025,1.482,0.083,2.264,0.212l0.146,0.023
			l0.075,0.013l0.126,0.024l0.122,0.027l0.074,0.017l0.117,0.031c0.077,0.019,0.16,0.041,0.231,0.062l0.196,0.066
			c0.129,0.044,0.258,0.098,0.384,0.152c0.509,0.227,0.984,0.535,1.386,0.898c0.406,0.358,0.734,0.766,1.006,1.179
			c0.268,0.414,0.475,0.839,0.64,1.258c0.324,0.841,0.491,1.667,0.576,2.466c0.162,1.602,0.02,3.129-0.312,4.61
			c-0.349,1.478-0.882,2.916-1.742,4.274L29.6,60.859l-0.051,0.074l-0.01,0.014L29.52,60.97l-0.031,0.052l-0.074,0.098
			c-0.071,0.104-0.275,0.348-0.441,0.533c-0.33,0.35-0.666,0.658-1.053,0.924c-0.763,0.537-1.617,0.863-2.436,1.061
			c-1.646,0.363-3.155,0.266-4.564,0.074c-1.411-0.203-2.746-0.502-4.051-0.836c-1.304-0.336-2.582-0.684-3.851-1.023
			c-1.269-0.338-2.532-0.651-3.798-0.908c-1.265-0.248-2.536-0.44-3.811-0.491c-1.272-0.06-2.551,0.026-3.793,0.336
			C1,60.951,0.386,61.16-0.201,61.441c-0.587,0.281-1.15,0.631-1.685,1.028c0.86-1.02,1.984-1.848,3.241-2.42
			c1.259-0.575,2.632-0.889,4.006-1.041C6.737,58.866,8.12,58.87,9.48,58.96c1.364,0.09,2.708,0.263,4.036,0.455
			c1.33,0.19,2.638,0.42,3.931,0.615c1.292,0.188,2.567,0.37,3.795,0.436c1.221,0.062,2.407,0.013,3.338-0.278
			c0.46-0.148,0.85-0.347,1.151-0.603c0.153-0.119,0.297-0.274,0.413-0.412c0.044-0.071,0.065-0.071,0.178-0.25l0.069-0.103
			l0.035-0.051l0.016-0.026l0.009-0.013c-0.08,0.115-0.019,0.027-0.035,0.052l0.099-0.168c0.516-0.906,0.882-2.005,1.086-3.115
			c0.21-1.108,0.267-2.265,0.123-3.297c-0.07-0.513-0.197-0.992-0.366-1.384c-0.169-0.389-0.374-0.673-0.561-0.823
			c-0.094-0.079-0.184-0.129-0.282-0.173c-0.027-0.007-0.049-0.021-0.078-0.024l-0.041-0.014c-0.008-0.001-0.006,0-0.009-0.001
			l-0.002-0.002c0.003,0-0.004-0.001-0.017-0.004l-0.03-0.006l-0.123-0.023L26.2,49.743c-0.019-0.004,0.101,0.02,0.044,0.009
			L26.22,49.75l-0.05-0.008l-0.099-0.012c-0.526-0.079-1.104-0.117-1.696-0.125c-1.185-0.014-2.429,0.08-3.675,0.217
			c-1.248,0.141-2.504,0.344-3.754,0.586c-1.252,0.244-2.498,0.533-3.734,0.85c-1.236,0.32-2.462,0.68-3.657,1.082l-3.842,1.293
			l1.009-3.893c0.214-0.824,0.442-1.608,0.703-2.379c0.258-0.77,0.531-1.529,0.816-2.282c0.287-0.752,0.582-1.501,0.899-2.244
			c0.32-0.74,0.655-1.475,1.008-2.206c0.704-1.463,1.483-2.903,2.448-4.313c0.491-0.704,1.005-1.408,1.711-2.087
			c0.091-0.086,0.17-0.165,0.274-0.258c0.112-0.098,0.227-0.192,0.343-0.286l0.084-0.067l0.061-0.044l0.118-0.083l0.184-0.13
			l0.147-0.089c0.384-0.244,0.799-0.457,1.218-0.654c0.844-0.391,1.764-0.66,2.701-0.783c0.937-0.128,1.894-0.093,2.802,0.084
			c0.908,0.181,1.77,0.482,2.557,0.894c0.782,0.413,1.502,0.903,2.149,1.461c0.645,0.56,1.229,1.168,1.739,1.83
			c0.509,0.66,0.96,1.358,1.326,2.098c0.371,0.734,0.662,1.512,0.829,2.316c0.081,0.404,0.124,0.815,0.116,1.225
			C30.947,42.141,30.87,42.559,30.69,42.91z"/>
		<path fill="#FFFFFF" d="M37.707,42.209c0,0-0.008,0.706-0.083,1.924c-0.017,0.306-0.04,0.642-0.065,1.006
			c-0.023,0.368-0.053,0.762-0.089,1.182c-0.031,0.422-0.069,0.869-0.112,1.339c-0.04,0.473-0.083,0.966-0.133,1.48
			c-0.045,0.515-0.095,1.049-0.152,1.602c-0.025,0.275-0.05,0.557-0.078,0.843c-0.028,0.282-0.056,0.573-0.087,0.864
			c-0.108,1.167-0.222,2.395-0.34,3.667c-0.06,0.632-0.104,1.276-0.155,1.925c-0.026,0.322-0.05,0.65-0.073,0.979
			c-0.021,0.324-0.039,0.652-0.057,0.982c-0.082,1.314-0.128,2.648-0.132,3.963l-0.001,0.121l0.001,0.109l0.001,0.127l0.004,0.1
			c0.003,0.119,0.017,0.268,0.027,0.396c0.031,0.258,0.061,0.506,0.116,0.709c0.051,0.209,0.119,0.375,0.184,0.492
			c0.067,0.116,0.125,0.176,0.18,0.233c0.06,0.052,0.137,0.101,0.272,0.146c0.133,0.041,0.316,0.067,0.529,0.076
			c0.43,0.02,0.962-0.056,1.495-0.185c0.539-0.123,1.092-0.291,1.631-0.49c0.543-0.19,1.082-0.399,1.604-0.62
			c1.048-0.441,2.045-0.902,2.969-1.343c0.931-0.442,1.785-0.846,2.542-1.207c0.766-0.354,1.439-0.67,2.004-0.912
			c0.564-0.239,1.016-0.424,1.33-0.53c0.314-0.111,0.486-0.156,0.486-0.156s-0.127,0.121-0.367,0.35
			c-0.234,0.227-0.579,0.562-1.019,0.986c-0.438,0.424-0.978,0.934-1.611,1.508c-0.321,0.281-0.661,0.58-1.026,0.893
			c-0.368,0.306-0.756,0.629-1.173,0.959c-0.833,0.648-1.762,1.33-2.813,1.986c-1.056,0.654-2.218,1.297-3.615,1.787
			c-0.705,0.23-1.468,0.432-2.372,0.482c-0.451,0.018-0.939-0.008-1.458-0.129c-0.518-0.117-1.07-0.347-1.556-0.695
			c-0.492-0.348-0.888-0.812-1.168-1.281c-0.281-0.475-0.463-0.949-0.587-1.41c-0.123-0.455-0.196-0.889-0.23-1.314
			c-0.017-0.217-0.031-0.411-0.034-0.637l-0.003-0.16v-0.129l0.004-0.287c0.011-1.44,0.142-2.862,0.297-4.246
			c0.045-0.348,0.09-0.688,0.135-1.032c0.052-0.338,0.104-0.681,0.154-1.019c0.107-0.67,0.233-1.328,0.36-1.977
			c0.123-0.645,0.268-1.273,0.409-1.889c0.137-0.617,0.296-1.213,0.446-1.795c0.302-1.16,0.626-2.248,0.942-3.245
			c0.314-0.996,0.626-1.903,0.917-2.7c0.29-0.8,0.557-1.491,0.789-2.056C37.404,42.846,37.707,42.209,37.707,42.209z"/>
		<path fill="#FFFFFF" d="M7.106,66.33c0,0-0.03-0.076-0.083-0.225c-0.025-0.072-0.032-0.187-0.033-0.324
			c0.01-0.064,0.02-0.137,0.037-0.217c0.015-0.082,0.06-0.152,0.1-0.24c0.178-0.346,0.599-0.641,1.068-0.779
			c0.474-0.145,1.011-0.184,1.579-0.119c0.566,0.068,1.167,0.238,1.776,0.572c0.306,0.162,0.611,0.377,0.905,0.658
			c0.296,0.27,0.573,0.639,0.787,1.088c0.218,0.449,0.333,1.023,0.292,1.58c-0.01,0.291-0.081,0.551-0.151,0.82
			c-0.043,0.125-0.093,0.244-0.144,0.364c-0.025,0.06-0.051,0.123-0.08,0.179L13.07,69.85c-0.06,0.105-0.122,0.211-0.188,0.314
			l-0.206,0.273c-0.139,0.19-0.286,0.334-0.437,0.481l-0.114,0.117l-0.159,0.137l-0.174,0.146l-0.087,0.072
			c-0.034,0.025-0.048,0.043-0.107,0.082l-0.297,0.207c-0.1,0.062-0.205,0.131-0.305,0.188L10.7,72.016
			c-0.192,0.105-0.409,0.185-0.628,0.252c-0.432,0.146-0.908,0.213-1.375,0.226c-0.946-0.002-1.837-0.322-2.508-0.785
			c-0.673-0.469-1.164-1.058-1.502-1.679c-0.329-0.625-0.515-1.301-0.492-1.995c0.017-0.183,0.027-0.345,0.077-0.523
			c0.025-0.086,0.038-0.166,0.073-0.254c0.034-0.086,0.073-0.168,0.111-0.25c0.172-0.313,0.421-0.584,0.696-0.721
			c0.068-0.035,0.134-0.072,0.197-0.103c0.065-0.018,0.129-0.035,0.193-0.055c0.062-0.016,0.122-0.029,0.181-0.045
			c0.057,0,0.113-0.004,0.168-0.006c0.218-0.018,0.394,0.025,0.552,0.055C6.75,66.215,6.96,66.316,7.097,66.4
			c0.137,0.078,0.205,0.123,0.205,0.123S7.223,66.553,7.074,66.6c-0.072,0.025-0.16,0.049-0.257,0.088
			c-0.098,0.047-0.209,0.084-0.318,0.142c-0.218,0.116-0.449,0.301-0.484,0.487c-0.023,0.082,0.006,0.162,0.038,0.232
			c0.035,0.07,0.081,0.158,0.147,0.262c0.13,0.213,0.357,0.472,0.623,0.697c0.275,0.221,0.599,0.408,0.909,0.518
			c0.316,0.105,0.597,0.117,0.849,0.084c0.128-0.03,0.252-0.055,0.39-0.116c0.068-0.029,0.138-0.054,0.211-0.097l0.11-0.057
			c0.033-0.016,0.051-0.037,0.08-0.055c0.027-0.016,0.056-0.027,0.084-0.043c0.008,0,0.048-0.035,0.076-0.055l0.089-0.07l0.18-0.141
			l0.044-0.035l0.022-0.019c0.017-0.016-0.12,0.104-0.062,0.056l0.002-0.004l0.007-0.009l0.049-0.047
			c0.064-0.062,0.143-0.119,0.184-0.17c0.023-0.026,0.051-0.054,0.079-0.078c0.013-0.022,0.032-0.043,0.05-0.062l0.03-0.029
			c0.009-0.012,0.012-0.02,0.017-0.027c0.009-0.014,0.022-0.027,0.038-0.039c0.005-0.018,0.039-0.037,0.04-0.043
			c0.028-0.021,0.066-0.043,0.065-0.119c0.018-0.149-0.125-0.479-0.364-0.756c-0.234-0.281-0.531-0.553-0.834-0.76
			C8.87,66.131,8.565,65.975,8.3,65.879c-0.27-0.094-0.483-0.121-0.667-0.074c-0.095,0.021-0.17,0.078-0.248,0.133
			c-0.054,0.062-0.12,0.115-0.159,0.185C7.146,66.258,7.106,66.33,7.106,66.33z"/>
		<path fill="#FFFFFF" d="M21.997,66.33c0,0-0.029-0.076-0.085-0.225c-0.024-0.072-0.031-0.187-0.032-0.324
			c0.009-0.064,0.021-0.137,0.038-0.217c0.016-0.082,0.06-0.152,0.101-0.24c0.179-0.346,0.598-0.641,1.067-0.779
			c0.476-0.145,1.014-0.184,1.582-0.119c0.566,0.068,1.167,0.238,1.776,0.572c0.304,0.162,0.612,0.377,0.903,0.658
			c0.294,0.27,0.575,0.639,0.788,1.09c0.218,0.447,0.333,1.021,0.292,1.58c-0.012,0.293-0.083,0.549-0.152,0.818
			c-0.042,0.125-0.093,0.244-0.143,0.364c-0.026,0.06-0.052,0.125-0.08,0.181l-0.089,0.16c-0.061,0.104-0.124,0.213-0.19,0.313
			l-0.205,0.274c-0.14,0.189-0.286,0.332-0.436,0.482l-0.113,0.117l-0.159,0.135l-0.175,0.148l-0.088,0.072
			c-0.032,0.022-0.048,0.041-0.105,0.082l-0.299,0.205c-0.099,0.062-0.203,0.131-0.304,0.188l-0.297,0.148
			c-0.194,0.104-0.411,0.182-0.628,0.25c-0.433,0.147-0.91,0.213-1.377,0.225c-0.946-0.002-1.837-0.322-2.509-0.783
			c-0.671-0.471-1.165-1.059-1.502-1.678c-0.33-0.627-0.513-1.301-0.492-1.996c0.018-0.182,0.027-0.344,0.076-0.523
			c0.024-0.088,0.041-0.168,0.075-0.254c0.034-0.086,0.072-0.17,0.111-0.252c0.172-0.312,0.421-0.582,0.694-0.721
			c0.067-0.035,0.134-0.072,0.198-0.102c0.064-0.017,0.129-0.035,0.193-0.056c0.061-0.015,0.123-0.026,0.18-0.043
			c0.059,0,0.112-0.004,0.168-0.006c0.219-0.019,0.396,0.024,0.553,0.053c0.306,0.082,0.515,0.185,0.654,0.269
			c0.136,0.078,0.205,0.125,0.205,0.125s-0.079,0.026-0.227,0.076c-0.074,0.022-0.162,0.047-0.259,0.086
			c-0.098,0.047-0.207,0.086-0.319,0.141c-0.216,0.117-0.448,0.301-0.483,0.488c-0.025,0.084,0.006,0.162,0.039,0.231
			c0.036,0.072,0.08,0.16,0.146,0.263c0.13,0.213,0.357,0.473,0.623,0.696c0.276,0.224,0.599,0.41,0.91,0.521
			c0.316,0.104,0.597,0.115,0.849,0.082c0.128-0.031,0.254-0.056,0.391-0.115c0.067-0.029,0.137-0.053,0.21-0.098l0.109-0.058
			c0.033-0.016,0.053-0.035,0.082-0.053c0.026-0.017,0.055-0.029,0.083-0.043c0.007,0,0.048-0.035,0.073-0.058l0.091-0.067
			l0.179-0.144l0.047-0.035l0.022-0.018c0.016-0.016-0.121,0.105-0.062,0.055l0.003-0.004l0.006-0.008l0.048-0.045
			c0.064-0.061,0.144-0.119,0.185-0.172c0.026-0.027,0.052-0.053,0.079-0.076c0.016-0.023,0.032-0.045,0.051-0.062l0.029-0.028
			c0.008-0.013,0.009-0.019,0.014-0.027c0.009-0.014,0.023-0.024,0.039-0.038c0.005-0.019,0.039-0.037,0.042-0.043
			c0.027-0.021,0.066-0.041,0.064-0.119c0.018-0.15-0.124-0.479-0.363-0.754c-0.236-0.283-0.533-0.556-0.836-0.761
			c-0.302-0.209-0.604-0.364-0.87-0.461c-0.269-0.094-0.482-0.121-0.667-0.074c-0.094,0.021-0.172,0.078-0.249,0.134
			c-0.055,0.061-0.121,0.114-0.16,0.184C22.037,66.258,21.997,66.33,21.997,66.33z"/>
	</g>
	<g>
		<g>
			<g>
				<path fill="#FFFFFF" d="M48.475,32.739c3.152,0,5.756,0.614,5.756,2.715c0,0.591-0.239,1.336-0.721,2.211
					c0-2.188-2.583-2.648-5.014-2.648c-1.904,0-3.284,0.547-3.284,2.036c0,3.613,9.546,0.066,9.546,7.005
					c0,3.244-2.715,4.839-6.436,4.839c-2.738,0-5.781-0.678-5.781-2.736c0-0.57,0.24-1.248,0.788-2.035
					c0,2.122,2.868,2.516,4.992,2.516c2.277,0,3.393-0.897,3.393-2.386c0-4.049-9.524-0.569-9.524-6.874
					C42.191,33.834,45.016,32.739,48.475,32.739z"/>
				<path fill="#FFFFFF" d="M60.098,48.874c0,0-2.934,0-2.934-1.423V32.783c0,0,2.934,0,2.934,1.423v5.1
					c2.232-0.457,3.679-2.317,5.255-5.143c0.633-1.161,1.729-1.424,2.518-1.424c0.544,0,1.334,0.198,1.334,0.198
					c-1.707,2.692-3.087,6.284-5.931,7.377c2.43,0.678,4.204,3.766,5.341,6.087c0.394,0.767,0.701,1.423,1.249,2.21
					c0,0-0.875,0.218-1.335,0.218c-0.766,0-2.08-0.261-2.715-1.422c-1.378-2.475-2.626-5.451-5.712-6.065L60.098,48.874
					L60.098,48.874z"/>
				<path fill="#FFFFFF" d="M73.649,48.656c0,0-2.389,0-2.389-1.424V32.783c0,0,2.935,0,2.935,1.423v12.28h4.883
					c1.861,0,2.43-0.349,2.43-0.349c0,1.138-0.307,2.518-1.641,2.518L73.649,48.656L73.649,48.656z"/>
				<path fill="#FFFFFF" d="M93.352,39.197l1.861,5.759c0.526,1.642,0.92,2.955,1.356,3.613c0,0-0.724,0.239-1.225,0.239
					c-2.058,0-2.564-1.772-3.11-3.414l-0.371-1.159h-5.517l-0.375,1.159c-0.548,1.643-1.051,3.414-3.107,3.414
					c-0.505,0-1.227-0.239-1.227-0.239c0.436-0.658,0.831-1.973,1.355-3.613l1.862-5.759c1.467-4.508,3.917-6.479,4.247-6.698
					C89.432,32.718,91.885,34.688,93.352,39.197z M87.66,39.766l-0.678,2.278h4.247l-0.679-2.278
					c-0.548-1.84-1.444-3.699-1.444-3.699C88.754,36.614,88.208,37.926,87.66,39.766z"/>
				<path fill="#FFFFFF" d="M100.444,48.656c-0.22,0-2.343-0.066-2.343-1.424v-14.23h6.35c3.502,0,6.809,1.161,6.809,5.385v4.882
					c0,4.226-3.306,5.387-6.809,5.387H100.444L100.444,48.656z M101.034,35.169v11.318h3.417c2.168,0,3.874-0.833,3.874-3.438
					v-4.467c0-2.604-1.706-3.415-3.874-3.415h-3.417V35.169z"/>
				<path fill="#FFFFFF" d="M114.104,32.783c0,0,2.934,0,2.934,1.423v14.667c0,0-2.934,0-2.934-1.423V32.783z"/>
				<path fill="#FFFFFF" d="M125.727,32.739c3.153,0,5.759,0.614,5.759,2.715c0,0.591-0.241,1.336-0.721,2.211
					c0-2.188-2.583-2.648-5.014-2.648c-1.905,0-3.283,0.547-3.283,2.036c0,3.613,9.542,0.066,9.542,7.005
					c0,3.244-2.713,4.839-6.437,4.839c-2.735,0-5.777-0.678-5.777-2.736c0-0.57,0.239-1.248,0.789-2.035
					c0,2.122,2.866,2.516,4.988,2.516c2.277,0,3.396-0.897,3.396-2.386c0-4.049-9.524-0.569-9.524-6.874
					C119.445,33.834,122.267,32.739,125.727,32.739z M125.64,29.917c0,0,2.015-1.403,1.381-2.41c3.284,1.205,1.773,2.277-1.053,4.4
					h-0.657c-2.822-2.101-4.377-3.195-1.072-4.4C123.58,28.47,125.64,29.917,125.64,29.917z"/>
				<path fill="#FFFFFF" d="M144.795,44.299c0,0-0.262-1.249-0.262-2.323v-8.973c0,0,2.934,0,2.934,1.423v14.448
					c-3.307,0-3.987-1.573-3.987-1.573l-6.368-10.116c0,0,0.242,1.248,0.242,2.319v9.371c0,0-2.934,0-2.934-1.424V33.002
					c1.75,0,3.196,0,3.961,1.248L144.795,44.299z"/>
				<path fill="#FFFFFF" d="M160.711,39.197l1.858,5.759c0.524,1.642,0.921,2.955,1.356,3.613c0,0-0.723,0.239-1.225,0.239
					c-2.059,0-2.562-1.772-3.109-3.414l-0.372-1.159h-5.519l-0.371,1.159c-0.547,1.643-1.05,3.414-3.111,3.414
					c-0.504,0-1.225-0.239-1.225-0.239c0.438-0.658,0.832-1.973,1.355-3.613l1.861-5.759c1.468-4.508,3.916-6.479,4.246-6.698
					C156.792,32.718,159.243,34.688,160.711,39.197z M155.019,39.766l-0.679,2.278h4.244l-0.676-2.278
					c-0.55-1.84-1.447-3.699-1.447-3.699C156.112,36.614,155.565,37.926,155.019,39.766z"/>
			</g>
		</g>
		<g>
			<g>
				<path fill="#FFFFFF" d="M58.846,71.951c0,0-2.386,0-2.386-1.426V56.078c0,0,2.933,0,2.933,1.422v12.281h4.881
					c1.862,0,2.431-0.348,2.431-0.348c0,1.135-0.306,2.516-1.643,2.516h-6.216V71.951z"/>
				<path fill="#FFFFFF" d="M81.328,67.023c0,3.237-2.102,5.188-6.589,5.188c-4.508,0-6.589-1.951-6.589-5.188V61.22
					c0-3.239,2.081-5.188,6.589-5.188c4.487,0,6.589,1.949,6.589,5.188V67.023z M78.396,61.51c0-2.08-0.592-3.309-3.679-3.309
					c-3.043,0-3.634,1.227-3.634,3.309v5.23c0,2.078,0.591,3.305,3.634,3.305c3.087,0,3.679-1.227,3.679-3.305V61.51z"/>
				<path fill="#FFFFFF" d="M83.956,61.42c0-3.984,3.085-5.388,6.588-5.388c2.933,0,6.109,0.812,6.109,2.979
					c0,0.55-0.197,1.183-0.68,1.927c-0.548-2.033-3.218-2.623-5.429-2.623c-2.146,0-3.656,0.807-3.656,3.412v4.774
					c0,2.604,1.51,3.438,3.656,3.438S94.2,69.5,94.2,66.718v-0.696h-2.518c-1.421,0-1.816-1.119-1.816-2.453
					c0,0,0.591,0.281,2.189,0.281h5.081v3.198c0,3.896-3.087,5.168-6.59,5.168c-3.502,0-6.588-1.401-6.588-5.387v-5.41L83.956,61.42
					L83.956,61.42z"/>
				<path fill="#FFFFFF" d="M99.977,56.078c0,0,2.938,0,2.938,1.422v14.668c0,0-2.938,0-2.938-1.422V56.078z"/>
				<path fill="#FFFFFF" d="M111.604,56.036c3.149,0,5.756,0.612,5.756,2.712c0,0.594-0.242,1.338-0.719,2.213
					c0-2.189-2.585-2.652-5.013-2.652c-1.908,0-3.287,0.551-3.287,2.039c0,3.611,9.543,0.066,9.543,7.006
					c0,3.238-2.712,4.836-6.437,4.836c-2.735,0-5.777-0.678-5.777-2.733c0-0.567,0.24-1.248,0.787-2.035
					c0,2.121,2.869,2.517,4.99,2.517c2.278,0,3.394-0.896,3.394-2.388c0-4.049-9.524-0.567-9.524-6.873
					C105.32,57.131,108.144,56.036,111.604,56.036z"/>
				<path fill="#FFFFFF" d="M125.855,58.465v13.703c0,0-2.936,0-2.936-1.422V58.465h-2.692c-1.818,0-2.08-1.381-2.08-2.518
					c0,0,0.769,0.348,2.431,0.348h7.684c1.663,0,2.428-0.348,2.428-0.348c0,1.139-0.261,2.518-2.079,2.518H125.855z"/>
				<path fill="#FFFFFF" d="M132.268,56.078c0,0,2.934,0,2.934,1.422v14.668c0,0-2.934,0-2.934-1.422V56.078z"/>
				<path fill="#FFFFFF" d="M141.2,72.168c0,0-2.936,0-2.936-1.422V56.078c0,0,2.936,0,2.936,1.422v5.102
					c2.231-0.457,3.676-2.317,5.256-5.143c0.635-1.162,1.727-1.423,2.517-1.423c0.547,0,1.335,0.196,1.335,0.196
					c-1.708,2.69-3.086,6.281-5.932,7.377c2.428,0.678,4.203,3.766,5.34,6.086c0.393,0.768,0.703,1.424,1.248,2.209
					c0,0-0.877,0.221-1.334,0.221c-0.767,0-2.082-0.264-2.719-1.426c-1.375-2.473-2.623-5.449-5.709-6.064L141.2,72.168
					L141.2,72.168z"/>
				<path fill="#FFFFFF" d="M162.543,62.494l1.863,5.756c0.522,1.641,0.916,2.955,1.354,3.611c0,0-0.721,0.242-1.225,0.242
					c-2.059,0-2.561-1.771-3.109-3.416l-0.373-1.16h-5.516l-0.371,1.16c-0.549,1.646-1.051,3.416-3.112,3.416
					c-0.505,0-1.222-0.242-1.222-0.242c0.435-0.656,0.828-1.971,1.354-3.611l1.861-5.756c1.467-4.51,3.92-6.48,4.246-6.701
					C158.627,56.014,161.079,57.984,162.543,62.494z M156.851,63.061l-0.677,2.277h4.244l-0.678-2.277
					c-0.549-1.84-1.447-3.699-1.447-3.699C157.947,59.908,157.401,61.223,156.851,63.061z"/>
			</g>
		</g>
	</g>
</g>
</svg>
