<?xml version="1.0" encoding="utf-8"?>
<!-- Generator: Adobe Illustrator 16.0.0, SVG Export Plug-In . SVG Version: 6.00 Build 0)  -->
<!DOCTYPE svg PUBLIC "-//W3C//DTD SVG 1.1//EN" "http://www.w3.org/Graphics/SVG/1.1/DTD/svg11.dtd">
<svg version="1.1" id="Layer_1" xmlns="http://www.w3.org/2000/svg" xmlns:xlink="http://www.w3.org/1999/xlink" x="0px" y="0px"
	 width="302px" height="100px" viewBox="-3.167 0 302 100" enable-background="new -3.167 0 302 100" xml:space="preserve">
<g id="Layer_2_1_" display="none">
	<rect x="-40.5" y="-35.5" display="inline" fill="#9C0000" stroke="#FFFFFF" stroke-miterlimit="10" width="426" height="212"/>
</g>
<g id="Layer_2" display="none">
	
		<rect x="-29.833" y="-14.833" display="inline" fill="#A71730" stroke="#000000" stroke-miterlimit="10" width="392.667" height="161"/>
</g>
<g id="Layer_3">
</g>
<g>
	<g>
		<path fill="#C00E22" d="M229.515,33.47c-3.732,0-6.756,3.023-6.756,6.755c0,3.733,3.021,6.757,6.756,6.757
			c3.733,0,6.758-3.024,6.758-6.757C236.271,36.493,233.246,33.47,229.515,33.47 M229.515,44.504c-2.08,0-3.771-1.915-3.771-4.279
			c0-2.363,1.69-4.279,3.771-4.279c2.087,0,3.773,1.916,3.773,4.279C233.287,42.589,231.599,44.504,229.515,44.504"/>
	</g>
	<polygon fill="#C00E22" points="247.906,33.934 237.119,33.934 237.119,36.282 241.102,36.282 241.09,36.282 241.09,46.674 
		243.936,46.674 243.936,36.282 243.95,36.282 247.906,36.282 	"/>
	<path fill="#C00E22" d="M255.731,33.934h-1.77h-1.772l-5.255,12.74h3.322l1.096-2.863l0.004-0.003h2.606h2.604l0.005,0.003
		l1.095,2.863h3.323L255.731,33.934z M252.167,41.658l1.778-4.663h0.026l1.775,4.663h-1.789H252.167z"/>
	<polygon fill="#C00E22" points="195.434,33.934 184.646,33.934 184.646,36.282 188.628,36.282 188.614,36.282 188.614,46.674 
		191.46,46.674 191.46,36.282 191.474,36.282 195.434,36.282 	"/>
	<g>
		<path fill="#C00E22" d="M202.922,33.47c-3.735,0-6.757,3.023-6.757,6.755c0,3.733,3.021,6.757,6.757,6.757
			c3.731,0,6.754-3.024,6.754-6.757C209.676,36.493,206.652,33.47,202.922,33.47 M202.922,44.504c-2.088,0-3.774-1.915-3.774-4.279
			c0-2.363,1.687-4.279,3.774-4.279c2.08,0,3.77,1.916,3.77,4.279C206.691,42.589,205.001,44.504,202.922,44.504"/>
	</g>
	<polygon fill="#C00E22" points="222.627,33.934 219.305,33.934 216.218,39.29 213.133,33.934 209.807,33.934 214.773,41.838 
		214.773,41.897 214.773,46.674 216.218,46.674 217.657,46.674 217.657,41.897 217.657,41.838 	"/>
	<rect x="184.646" y="53.046" fill="#727272" width="110.193" height="2.549"/>
	<g>
		<path d="M185.182,71.578v-7.646h1.523l1.812,5.414c0.165,0.505,0.289,0.88,0.363,1.129c0.09-0.277,0.226-0.686,0.408-1.227
			l1.835-5.318h1.356v7.646h-0.979v-6.401l-2.217,6.401h-0.914l-2.212-6.511v6.511h-0.978L185.182,71.578L185.182,71.578z"/>
		<path d="M193.271,71.578l2.937-7.646h1.088l3.129,7.646h-1.147l-0.896-2.319h-3.195l-0.84,2.319H193.271z M195.48,68.436h2.589
			l-0.798-2.116c-0.242-0.644-0.423-1.177-0.54-1.588c-0.098,0.492-0.237,0.979-0.413,1.461L195.48,68.436z"/>
		<path d="M202.399,71.578v-6.746h-2.519v-0.9h6.063v0.9h-2.526v6.746H202.399z"/>
		<path d="M207.003,71.578v-7.646h5.528v0.9h-4.517v2.342h4.231v0.896h-4.231v2.602h4.691v0.904L207.003,71.578L207.003,71.578z"/>
		<path d="M214.121,71.578v-7.646h3.393c0.676,0,1.2,0.067,1.551,0.204c0.355,0.139,0.64,0.385,0.851,0.729
			c0.21,0.347,0.318,0.729,0.318,1.151c0,0.544-0.179,0.997-0.527,1.374c-0.352,0.372-0.895,0.608-1.629,0.71
			c0.271,0.129,0.474,0.256,0.611,0.381c0.298,0.273,0.578,0.61,0.839,1.02l1.33,2.082h-1.27l-1.012-1.592
			c-0.296-0.459-0.537-0.812-0.73-1.055c-0.192-0.242-0.362-0.417-0.513-0.514c-0.154-0.095-0.307-0.163-0.459-0.202
			c-0.116-0.023-0.309-0.034-0.564-0.034h-1.174v3.396h-1.014L214.121,71.578L214.121,71.578z M215.135,67.304h2.176
			c0.464,0,0.823-0.049,1.085-0.146c0.257-0.091,0.46-0.248,0.594-0.459c0.137-0.208,0.202-0.438,0.202-0.683
			c0-0.36-0.129-0.659-0.392-0.896c-0.264-0.234-0.679-0.346-1.245-0.346h-2.417v2.528H215.135z"/>
		<path d="M221.993,71.578v-7.646h1.01v7.646H221.993z"/>
		<path d="M223.947,71.578l2.937-7.646h1.086l3.135,7.646h-1.155l-0.892-2.319h-3.197l-0.842,2.319H223.947z M226.154,68.436h2.592
			l-0.801-2.116c-0.24-0.644-0.426-1.177-0.542-1.588c-0.094,0.492-0.233,0.979-0.412,1.461L226.154,68.436z"/>
		<path d="M231.871,71.578v-7.646h1.009v6.743h3.768v0.903H231.871z"/>
		<path d="M240.459,71.578v-7.646h1.006v3.136h3.977v-3.136h1.011v7.646h-1.011v-3.604h-3.977v3.604H240.459z"/>
		<path d="M247.301,71.578l2.936-7.646h1.088l3.133,7.646h-1.158l-0.888-2.319h-3.197l-0.843,2.319H247.301z M249.504,68.436h2.592
			l-0.8-2.116c-0.243-0.644-0.419-1.177-0.542-1.588c-0.097,0.492-0.234,0.979-0.412,1.461L249.504,68.436z"/>
		<path d="M255.249,71.578v-7.646h1.041l4.017,6.001v-6.001h0.968v7.646h-1.035l-4.015-6.012v6.012H255.249z"/>
		<path d="M262.978,71.578v-7.646h2.634c0.596,0,1.045,0.032,1.36,0.109c0.438,0.104,0.812,0.282,1.122,0.547
			c0.401,0.345,0.707,0.778,0.903,1.306c0.202,0.528,0.3,1.136,0.3,1.817c0,0.581-0.068,1.095-0.205,1.542
			c-0.133,0.449-0.312,0.823-0.52,1.114c-0.213,0.297-0.445,0.527-0.699,0.696c-0.252,0.166-0.556,0.296-0.908,0.384
			c-0.358,0.086-0.767,0.134-1.232,0.134L262.978,71.578L262.978,71.578z M263.988,70.672h1.631c0.505,0,0.899-0.049,1.187-0.144
			c0.289-0.09,0.52-0.222,0.685-0.39c0.24-0.242,0.428-0.566,0.562-0.974c0.136-0.402,0.204-0.896,0.204-1.472
			c0-0.802-0.134-1.417-0.395-1.843c-0.264-0.433-0.579-0.714-0.959-0.862c-0.271-0.104-0.707-0.157-1.307-0.157h-1.607V70.672
			L263.988,70.672z"/>
		<path d="M270.651,71.578v-7.646h1.008v6.743h3.765v0.903H270.651z"/>
		<path d="M276.803,71.578v-7.646h1.01v7.646H276.803z"/>
		<path d="M279.587,71.578v-7.646h1.037l4.018,6.001v-6.001h0.965v7.646h-1.036l-4.014-6.012v6.012H279.587z"/>
		<path d="M290.891,68.575v-0.895l3.236-0.009v2.839c-0.495,0.396-1.009,0.699-1.536,0.896c-0.531,0.199-1.075,0.301-1.63,0.301
			c-0.751,0-1.435-0.161-2.044-0.483c-0.614-0.322-1.077-0.786-1.392-1.398c-0.312-0.606-0.469-1.286-0.469-2.038
			c0-0.744,0.156-1.437,0.467-2.084c0.312-0.642,0.757-1.125,1.346-1.438c0.582-0.312,1.254-0.473,2.016-0.473
			c0.552,0,1.056,0.093,1.5,0.275c0.445,0.174,0.801,0.425,1.05,0.745c0.251,0.318,0.447,0.737,0.578,1.254l-0.912,0.251
			c-0.116-0.391-0.26-0.695-0.428-0.919c-0.17-0.226-0.418-0.401-0.733-0.534c-0.314-0.134-0.665-0.203-1.052-0.203
			c-0.458,0-0.863,0.067-1.198,0.212c-0.337,0.143-0.612,0.326-0.815,0.557c-0.206,0.229-0.37,0.482-0.486,0.758
			c-0.193,0.471-0.289,0.984-0.289,1.534c0,0.681,0.118,1.256,0.352,1.714c0.235,0.459,0.577,0.797,1.023,1.021
			c0.45,0.223,0.924,0.334,1.434,0.334c0.434,0,0.864-0.08,1.28-0.253c0.419-0.166,0.73-0.348,0.947-0.538v-1.428h-2.244V68.575
			L290.891,68.575z"/>
	</g>
</g>
<g>
	<g>
		<path fill="#C00E22" d="M30.69,42.91c0.109-0.783-0.148-1.521-0.476-2.189c-0.33-0.673-0.758-1.292-1.226-1.87
			c-0.477-0.574-0.992-1.106-1.548-1.583s-1.142-0.908-1.756-1.267c-0.614-0.359-1.248-0.659-1.893-0.87
			c-0.646-0.208-1.294-0.343-1.932-0.372c-0.638-0.021-1.259,0.034-1.854,0.193c-0.298,0.079-0.589,0.179-0.873,0.301
			c-0.283,0.127-0.561,0.268-0.833,0.426c-0.27,0.165-0.538,0.337-0.792,0.537l-0.096,0.075c-0.058,0.042,0.072-0.053,0.054-0.042
			l-0.007,0.006l-0.013,0.013l-0.029,0.023l-0.057,0.047l-0.111,0.094l-0.056,0.047c-0.013,0.013-0.016,0.02-0.025,0.03l-0.229,0.26
			c-0.382,0.441-0.771,1.019-1.127,1.62c-0.359,0.606-0.697,1.251-1.013,1.913c-0.319,0.663-0.631,1.338-0.922,2.027
			c-0.292,0.688-0.572,1.386-0.836,2.09c-0.269,0.705-0.531,1.411-0.777,2.124c-0.247,0.712-0.481,1.427-0.699,2.142
			c-0.214,0.716-0.428,1.427-0.594,2.112L8.137,48.2c1.313-0.451,2.632-0.846,3.96-1.198c1.328-0.355,2.666-0.649,4.02-0.907
			c1.351-0.254,2.716-0.466,4.102-0.616c1.39-0.15,2.797-0.234,4.26-0.188c0.734,0.025,1.482,0.083,2.264,0.212l0.146,0.023
			l0.075,0.013l0.126,0.024l0.122,0.027l0.074,0.017l0.117,0.031c0.077,0.019,0.16,0.041,0.231,0.062l0.196,0.066
			c0.129,0.044,0.258,0.098,0.384,0.152c0.509,0.227,0.984,0.535,1.386,0.898c0.406,0.358,0.734,0.766,1.006,1.179
			c0.268,0.414,0.475,0.839,0.64,1.258c0.324,0.841,0.491,1.667,0.576,2.466c0.162,1.602,0.02,3.129-0.312,4.61
			c-0.349,1.478-0.882,2.916-1.742,4.274L29.6,60.859l-0.051,0.074l-0.01,0.014L29.52,60.97l-0.031,0.052l-0.074,0.099
			c-0.071,0.104-0.275,0.348-0.441,0.532c-0.33,0.351-0.666,0.658-1.053,0.925c-0.763,0.537-1.617,0.862-2.436,1.062
			c-1.646,0.362-3.155,0.266-4.564,0.073c-1.411-0.203-2.746-0.502-4.051-0.836c-1.304-0.336-2.582-0.685-3.851-1.022
			s-2.532-0.651-3.798-0.908c-1.265-0.248-2.536-0.44-3.811-0.491c-1.272-0.06-2.551,0.026-3.793,0.336
			C1,60.951,0.386,61.16-0.201,61.441c-0.587,0.281-1.15,0.631-1.685,1.027c0.86-1.02,1.984-1.848,3.241-2.42
			c1.259-0.574,2.632-0.889,4.006-1.041C6.737,58.866,8.12,58.87,9.48,58.96c1.364,0.09,2.708,0.263,4.036,0.455
			c1.33,0.19,2.638,0.42,3.931,0.615c1.292,0.188,2.567,0.37,3.795,0.436c1.221,0.062,2.407,0.013,3.338-0.278
			c0.46-0.147,0.85-0.347,1.151-0.603c0.153-0.119,0.297-0.274,0.413-0.412c0.044-0.071,0.065-0.071,0.178-0.25l0.069-0.103
			l0.035-0.051l0.016-0.026l0.009-0.013c-0.08,0.115-0.019,0.026-0.035,0.052l0.099-0.168c0.516-0.906,0.882-2.005,1.086-3.115
			c0.21-1.108,0.267-2.265,0.123-3.297c-0.07-0.513-0.197-0.992-0.366-1.384c-0.169-0.389-0.374-0.673-0.561-0.823
			c-0.094-0.079-0.184-0.129-0.282-0.173c-0.027-0.007-0.049-0.021-0.078-0.024l-0.041-0.014c-0.008-0.001-0.006,0-0.009-0.001
			l-0.002-0.002c0.003,0-0.004-0.001-0.017-0.004l-0.03-0.006l-0.123-0.023L26.2,49.743c-0.019-0.004,0.101,0.02,0.044,0.009
			L26.22,49.75l-0.05-0.008l-0.099-0.012c-0.526-0.079-1.104-0.117-1.696-0.125c-1.185-0.014-2.429,0.08-3.675,0.217
			c-1.248,0.141-2.504,0.344-3.754,0.586c-1.252,0.244-2.498,0.533-3.734,0.85c-1.236,0.32-2.462,0.68-3.657,1.082l-3.842,1.293
			l1.009-3.893c0.214-0.824,0.442-1.608,0.703-2.379c0.258-0.77,0.531-1.529,0.816-2.282c0.287-0.752,0.582-1.501,0.899-2.244
			c0.32-0.74,0.655-1.475,1.008-2.206c0.704-1.463,1.483-2.903,2.448-4.313c0.491-0.704,1.005-1.408,1.711-2.087
			c0.091-0.086,0.17-0.165,0.274-0.258c0.112-0.098,0.227-0.192,0.343-0.286l0.084-0.067l0.061-0.044l0.118-0.083l0.184-0.13
			l0.147-0.089c0.384-0.244,0.799-0.457,1.218-0.654c0.844-0.391,1.764-0.66,2.701-0.783c0.937-0.128,1.894-0.093,2.802,0.084
			c0.908,0.181,1.77,0.482,2.557,0.894c0.782,0.413,1.502,0.903,2.149,1.461c0.645,0.56,1.229,1.168,1.739,1.83
			c0.509,0.66,0.96,1.358,1.326,2.098c0.371,0.734,0.662,1.512,0.829,2.316c0.081,0.404,0.124,0.815,0.116,1.225
			C30.947,42.141,30.87,42.559,30.69,42.91z"/>
		<path fill="#C00E22" d="M37.707,42.209c0,0-0.008,0.706-0.083,1.924c-0.017,0.306-0.04,0.642-0.065,1.006
			c-0.023,0.368-0.053,0.762-0.089,1.182c-0.031,0.422-0.069,0.869-0.112,1.339c-0.04,0.473-0.083,0.966-0.133,1.48
			c-0.045,0.515-0.095,1.049-0.152,1.602c-0.025,0.275-0.05,0.557-0.078,0.843c-0.028,0.282-0.056,0.573-0.087,0.864
			c-0.108,1.167-0.222,2.395-0.34,3.667c-0.06,0.632-0.104,1.276-0.155,1.925c-0.026,0.322-0.05,0.65-0.073,0.979
			c-0.021,0.324-0.039,0.652-0.057,0.982c-0.082,1.314-0.128,2.648-0.132,3.963l-0.001,0.121l0.001,0.109l0.001,0.127l0.004,0.1
			c0.003,0.119,0.017,0.268,0.027,0.396c0.031,0.258,0.061,0.506,0.116,0.709c0.051,0.209,0.119,0.375,0.184,0.492
			c0.067,0.115,0.125,0.176,0.18,0.232c0.06,0.053,0.137,0.102,0.272,0.146c0.133,0.041,0.316,0.066,0.529,0.076
			c0.43,0.02,0.962-0.057,1.495-0.186c0.539-0.123,1.092-0.291,1.631-0.49c0.543-0.189,1.082-0.398,1.604-0.619
			c1.048-0.441,2.045-0.902,2.969-1.344c0.931-0.441,1.785-0.846,2.542-1.207c0.766-0.354,1.439-0.67,2.004-0.912
			c0.564-0.238,1.016-0.424,1.33-0.529c0.314-0.111,0.486-0.156,0.486-0.156s-0.127,0.121-0.367,0.35
			c-0.234,0.227-0.579,0.562-1.019,0.986c-0.438,0.424-0.978,0.934-1.611,1.508c-0.321,0.281-0.661,0.58-1.026,0.893
			c-0.368,0.307-0.756,0.629-1.173,0.959c-0.833,0.648-1.762,1.33-2.813,1.986c-1.056,0.654-2.218,1.297-3.615,1.787
			c-0.705,0.23-1.468,0.432-2.372,0.482c-0.451,0.018-0.939-0.008-1.458-0.129c-0.518-0.117-1.07-0.348-1.556-0.695
			c-0.492-0.348-0.888-0.812-1.168-1.281c-0.281-0.475-0.463-0.949-0.587-1.41c-0.123-0.455-0.196-0.889-0.23-1.314
			c-0.017-0.217-0.031-0.41-0.034-0.637l-0.003-0.16v-0.129l0.004-0.287c0.011-1.439,0.142-2.861,0.297-4.246
			c0.045-0.348,0.09-0.688,0.135-1.031c0.052-0.338,0.104-0.682,0.154-1.02c0.107-0.67,0.233-1.328,0.36-1.977
			c0.123-0.645,0.268-1.273,0.409-1.889c0.137-0.617,0.296-1.213,0.446-1.795c0.302-1.16,0.626-2.249,0.942-3.246
			c0.314-0.996,0.626-1.903,0.917-2.7c0.29-0.8,0.557-1.491,0.789-2.056C37.404,42.846,37.707,42.209,37.707,42.209z"/>
		<path fill="#231F20" d="M7.106,66.33c0,0-0.03-0.076-0.083-0.225c-0.025-0.072-0.032-0.188-0.033-0.324
			c0.01-0.064,0.02-0.137,0.037-0.217c0.015-0.082,0.06-0.152,0.1-0.24c0.178-0.346,0.599-0.641,1.068-0.779
			c0.474-0.145,1.011-0.184,1.579-0.119c0.566,0.068,1.167,0.238,1.776,0.572c0.306,0.162,0.611,0.377,0.905,0.658
			c0.296,0.27,0.573,0.639,0.787,1.088c0.218,0.449,0.333,1.023,0.292,1.58c-0.01,0.291-0.081,0.551-0.151,0.82
			c-0.043,0.125-0.093,0.244-0.144,0.363c-0.025,0.061-0.051,0.123-0.08,0.18L13.07,69.85c-0.06,0.105-0.122,0.211-0.188,0.314
			l-0.206,0.273c-0.139,0.189-0.286,0.334-0.437,0.48l-0.114,0.117l-0.159,0.137l-0.174,0.146l-0.087,0.072
			c-0.034,0.024-0.048,0.043-0.107,0.082l-0.297,0.207c-0.1,0.062-0.205,0.131-0.305,0.188L10.7,72.016
			c-0.192,0.105-0.409,0.186-0.628,0.252c-0.432,0.146-0.908,0.213-1.375,0.227c-0.946-0.002-1.837-0.322-2.508-0.785
			c-0.673-0.469-1.164-1.059-1.502-1.68c-0.329-0.625-0.515-1.301-0.492-1.994c0.017-0.184,0.027-0.346,0.077-0.523
			c0.025-0.086,0.038-0.166,0.073-0.254c0.034-0.086,0.073-0.168,0.111-0.25c0.172-0.312,0.421-0.584,0.696-0.721
			c0.068-0.035,0.134-0.072,0.197-0.104c0.065-0.018,0.129-0.035,0.193-0.055c0.062-0.016,0.122-0.029,0.181-0.045
			c0.057,0,0.113-0.004,0.168-0.006c0.218-0.018,0.394,0.025,0.552,0.055C6.75,66.215,6.96,66.316,7.097,66.4
			c0.137,0.078,0.205,0.123,0.205,0.123S7.223,66.553,7.074,66.6c-0.072,0.025-0.16,0.049-0.257,0.088
			c-0.098,0.047-0.209,0.084-0.318,0.143c-0.218,0.115-0.449,0.301-0.484,0.486c-0.023,0.082,0.006,0.162,0.038,0.232
			c0.035,0.07,0.081,0.158,0.147,0.262c0.13,0.213,0.357,0.473,0.623,0.697c0.275,0.221,0.599,0.408,0.909,0.518
			c0.316,0.105,0.597,0.117,0.849,0.084c0.128-0.029,0.252-0.055,0.39-0.115c0.068-0.029,0.138-0.055,0.211-0.098l0.11-0.057
			c0.033-0.016,0.051-0.037,0.08-0.055c0.027-0.016,0.056-0.027,0.084-0.043c0.008,0,0.048-0.035,0.076-0.055l0.089-0.07l0.18-0.141
			l0.044-0.035l0.022-0.02c0.017-0.016-0.12,0.104-0.062,0.057l0.002-0.004l0.007-0.01l0.049-0.047
			c0.064-0.062,0.143-0.119,0.184-0.17c0.023-0.025,0.051-0.055,0.079-0.078c0.013-0.021,0.032-0.043,0.05-0.062l0.03-0.028
			c0.009-0.013,0.012-0.021,0.017-0.027c0.009-0.014,0.022-0.026,0.038-0.038c0.005-0.019,0.039-0.037,0.04-0.044
			c0.028-0.021,0.066-0.043,0.065-0.118c0.018-0.149-0.125-0.479-0.364-0.757c-0.234-0.28-0.531-0.553-0.834-0.76
			c-0.298-0.204-0.603-0.36-0.868-0.456c-0.27-0.094-0.483-0.121-0.667-0.074c-0.095,0.021-0.17,0.078-0.248,0.133
			C7.331,66,7.265,66.053,7.226,66.123C7.146,66.258,7.106,66.33,7.106,66.33z"/>
		<path fill="#231F20" d="M21.997,66.33c0,0-0.029-0.076-0.085-0.225c-0.024-0.072-0.031-0.188-0.032-0.324
			c0.009-0.064,0.021-0.137,0.038-0.217c0.016-0.082,0.06-0.152,0.101-0.24c0.179-0.346,0.598-0.641,1.067-0.779
			c0.476-0.145,1.014-0.184,1.582-0.119c0.566,0.068,1.167,0.238,1.776,0.572c0.304,0.162,0.612,0.377,0.903,0.658
			c0.294,0.27,0.575,0.639,0.788,1.09c0.218,0.447,0.333,1.021,0.292,1.58c-0.012,0.293-0.083,0.549-0.152,0.818
			c-0.042,0.125-0.093,0.244-0.143,0.363c-0.026,0.061-0.052,0.125-0.08,0.182l-0.089,0.16c-0.061,0.104-0.124,0.213-0.19,0.312
			l-0.205,0.273c-0.14,0.189-0.286,0.332-0.436,0.482l-0.113,0.117L26.86,71.17l-0.175,0.148l-0.088,0.072
			c-0.032,0.021-0.048,0.041-0.105,0.082l-0.299,0.204c-0.099,0.062-0.203,0.132-0.304,0.188l-0.297,0.148
			c-0.194,0.104-0.411,0.182-0.628,0.25c-0.433,0.146-0.91,0.213-1.377,0.225c-0.946-0.002-1.837-0.322-2.509-0.783
			c-0.671-0.471-1.165-1.059-1.502-1.678c-0.33-0.627-0.513-1.301-0.492-1.996c0.018-0.182,0.027-0.344,0.076-0.523
			c0.024-0.088,0.041-0.168,0.075-0.254c0.034-0.086,0.072-0.17,0.111-0.252c0.172-0.312,0.421-0.582,0.694-0.721
			c0.067-0.035,0.134-0.072,0.198-0.102c0.064-0.018,0.129-0.035,0.193-0.057c0.061-0.016,0.123-0.025,0.18-0.043
			c0.059,0,0.112-0.004,0.168-0.006c0.219-0.02,0.396,0.023,0.553,0.053c0.306,0.082,0.515,0.186,0.654,0.27
			c0.136,0.078,0.205,0.125,0.205,0.125s-0.079,0.025-0.227,0.076c-0.074,0.021-0.162,0.047-0.259,0.086
			c-0.098,0.047-0.207,0.086-0.319,0.141c-0.216,0.117-0.448,0.301-0.483,0.488c-0.025,0.084,0.006,0.162,0.039,0.23
			c0.036,0.072,0.08,0.16,0.146,0.264c0.13,0.213,0.357,0.473,0.623,0.695c0.276,0.225,0.599,0.41,0.91,0.521
			c0.316,0.104,0.597,0.115,0.849,0.082c0.128-0.031,0.254-0.057,0.391-0.115c0.067-0.029,0.137-0.053,0.21-0.098l0.109-0.059
			c0.033-0.016,0.053-0.035,0.082-0.053c0.026-0.018,0.055-0.029,0.083-0.043c0.007,0,0.048-0.035,0.073-0.059l0.091-0.066
			l0.179-0.145l0.047-0.035l0.022-0.018c0.016-0.016-0.121,0.105-0.062,0.055l0.003-0.004l0.006-0.008l0.048-0.045
			c0.064-0.061,0.144-0.119,0.185-0.172c0.026-0.027,0.052-0.053,0.079-0.076c0.016-0.023,0.032-0.045,0.051-0.062l0.029-0.027
			c0.008-0.014,0.009-0.02,0.014-0.027c0.009-0.014,0.023-0.023,0.039-0.037c0.005-0.02,0.039-0.037,0.042-0.044
			c0.027-0.021,0.066-0.041,0.064-0.118c0.018-0.15-0.124-0.479-0.363-0.754c-0.236-0.283-0.533-0.557-0.836-0.762
			c-0.302-0.209-0.604-0.363-0.87-0.461c-0.269-0.094-0.482-0.121-0.667-0.074c-0.094,0.021-0.172,0.078-0.249,0.135
			c-0.055,0.061-0.121,0.113-0.16,0.184C22.037,66.258,21.997,66.33,21.997,66.33z"/>
	</g>
	<g>
		<g>
			<g>
				<path fill="#C00E22" d="M48.475,32.739c3.152,0,5.756,0.614,5.756,2.715c0,0.591-0.239,1.336-0.721,2.211
					c0-2.188-2.583-2.648-5.014-2.648c-1.904,0-3.284,0.547-3.284,2.036c0,3.613,9.546,0.066,9.546,7.005
					c0,3.244-2.715,4.839-6.436,4.839c-2.738,0-5.781-0.678-5.781-2.736c0-0.57,0.24-1.248,0.788-2.035
					c0,2.122,2.868,2.516,4.992,2.516c2.277,0,3.393-0.897,3.393-2.386c0-4.049-9.524-0.569-9.524-6.874
					C42.191,33.834,45.016,32.739,48.475,32.739z"/>
				<path fill="#C00E22" d="M60.098,48.874c0,0-2.934,0-2.934-1.423V32.783c0,0,2.934,0,2.934,1.423v5.1
					c2.232-0.457,3.679-2.317,5.255-5.143c0.633-1.161,1.729-1.424,2.518-1.424c0.544,0,1.334,0.198,1.334,0.198
					c-1.707,2.692-3.087,6.284-5.931,7.377c2.43,0.678,4.204,3.766,5.341,6.087c0.394,0.767,0.701,1.423,1.249,2.21
					c0,0-0.875,0.218-1.335,0.218c-0.766,0-2.08-0.261-2.715-1.422c-1.378-2.475-2.626-5.451-5.712-6.065L60.098,48.874
					L60.098,48.874z"/>
				<path fill="#C00E22" d="M73.649,48.656c0,0-2.389,0-2.389-1.424V32.783c0,0,2.935,0,2.935,1.423v12.28h4.883
					c1.861,0,2.43-0.349,2.43-0.349c0,1.138-0.307,2.518-1.641,2.518L73.649,48.656L73.649,48.656z"/>
				<path fill="#C00E22" d="M93.352,39.197l1.861,5.759c0.526,1.642,0.92,2.955,1.356,3.613c0,0-0.724,0.239-1.225,0.239
					c-2.058,0-2.564-1.772-3.11-3.414l-0.371-1.159h-5.517l-0.375,1.159c-0.548,1.643-1.051,3.414-3.107,3.414
					c-0.505,0-1.227-0.239-1.227-0.239c0.436-0.658,0.831-1.973,1.355-3.613l1.862-5.759c1.467-4.508,3.917-6.479,4.247-6.698
					C89.432,32.718,91.885,34.688,93.352,39.197z M87.66,39.766l-0.678,2.278h4.247l-0.679-2.278
					c-0.548-1.84-1.444-3.699-1.444-3.699C88.754,36.614,88.208,37.926,87.66,39.766z"/>
				<path fill="#C00E22" d="M100.444,48.656c-0.22,0-2.343-0.066-2.343-1.424v-14.23h6.35c3.502,0,6.809,1.161,6.809,5.385v4.882
					c0,4.226-3.306,5.387-6.809,5.387H100.444L100.444,48.656z M101.034,35.169v11.318h3.417c2.168,0,3.874-0.833,3.874-3.438
					v-4.467c0-2.604-1.706-3.415-3.874-3.415h-3.417V35.169z"/>
				<path fill="#C00E22" d="M114.104,32.783c0,0,2.934,0,2.934,1.423v14.667c0,0-2.934,0-2.934-1.423V32.783z"/>
				<path fill="#C00E22" d="M125.727,32.739c3.153,0,5.759,0.614,5.759,2.715c0,0.591-0.241,1.336-0.721,2.211
					c0-2.188-2.583-2.648-5.014-2.648c-1.905,0-3.283,0.547-3.283,2.036c0,3.613,9.542,0.066,9.542,7.005
					c0,3.244-2.713,4.839-6.437,4.839c-2.735,0-5.777-0.678-5.777-2.736c0-0.57,0.239-1.248,0.789-2.035
					c0,2.122,2.866,2.516,4.988,2.516c2.277,0,3.396-0.897,3.396-2.386c0-4.049-9.524-0.569-9.524-6.874
					C119.445,33.834,122.267,32.739,125.727,32.739z M125.64,29.917c0,0,2.015-1.403,1.381-2.41c3.284,1.205,1.773,2.277-1.053,4.4
					h-0.657c-2.822-2.101-4.377-3.195-1.072-4.4C123.58,28.47,125.64,29.917,125.64,29.917z"/>
				<path fill="#C00E22" d="M144.795,44.299c0,0-0.262-1.249-0.262-2.323v-8.973c0,0,2.934,0,2.934,1.423v14.448
					c-3.307,0-3.987-1.573-3.987-1.573l-6.368-10.116c0,0,0.242,1.248,0.242,2.319v9.371c0,0-2.934,0-2.934-1.424V33.002
					c1.75,0,3.196,0,3.961,1.248L144.795,44.299z"/>
				<path fill="#C00E22" d="M160.711,39.197l1.857,5.759c0.524,1.642,0.922,2.955,1.356,3.613c0,0-0.723,0.239-1.225,0.239
					c-2.06,0-2.562-1.772-3.109-3.414l-0.372-1.159H153.7l-0.371,1.159c-0.547,1.643-1.05,3.414-3.11,3.414
					c-0.505,0-1.226-0.239-1.226-0.239c0.438-0.658,0.832-1.973,1.354-3.613l1.861-5.759c1.469-4.508,3.916-6.479,4.246-6.698
					C156.792,32.718,159.243,34.688,160.711,39.197z M155.02,39.766l-0.68,2.278h4.244l-0.676-2.278
					c-0.551-1.84-1.447-3.699-1.447-3.699C156.111,36.614,155.564,37.926,155.02,39.766z"/>
			</g>
		</g>
		<g>
			<g>
				<path d="M58.846,71.951c0,0-2.386,0-2.386-1.426V56.078c0,0,2.933,0,2.933,1.422v12.281h4.881c1.862,0,2.431-0.348,2.431-0.348
					c0,1.135-0.306,2.516-1.643,2.516h-6.216V71.951z"/>
				<path d="M81.328,67.023c0,3.236-2.102,5.188-6.589,5.188c-4.508,0-6.589-1.951-6.589-5.188V61.22
					c0-3.239,2.081-5.188,6.589-5.188c4.487,0,6.589,1.948,6.589,5.188V67.023z M78.396,61.51c0-2.08-0.592-3.309-3.679-3.309
					c-3.043,0-3.634,1.227-3.634,3.309v5.23c0,2.078,0.591,3.305,3.634,3.305c3.087,0,3.679-1.227,3.679-3.305V61.51z"/>
				<path d="M83.956,61.42c0-3.984,3.085-5.388,6.588-5.388c2.933,0,6.109,0.812,6.109,2.979c0,0.55-0.197,1.183-0.68,1.927
					c-0.548-2.033-3.218-2.623-5.429-2.623c-2.146,0-3.656,0.808-3.656,3.412v4.774c0,2.604,1.51,3.438,3.656,3.438
					S94.2,69.5,94.2,66.718v-0.696h-2.518c-1.421,0-1.816-1.119-1.816-2.453c0,0,0.591,0.281,2.189,0.281h5.081v3.198
					c0,3.896-3.087,5.168-6.59,5.168c-3.502,0-6.588-1.401-6.588-5.387v-5.41L83.956,61.42L83.956,61.42z"/>
				<path d="M99.977,56.078c0,0,2.938,0,2.938,1.422v14.668c0,0-2.938,0-2.938-1.422V56.078z"/>
				<path d="M111.604,56.036c3.149,0,5.756,0.612,5.756,2.712c0,0.594-0.242,1.338-0.719,2.213c0-2.189-2.585-2.652-5.013-2.652
					c-1.908,0-3.287,0.551-3.287,2.039c0,3.611,9.543,0.066,9.543,7.006c0,3.238-2.712,4.836-6.437,4.836
					c-2.735,0-5.777-0.678-5.777-2.732c0-0.566,0.24-1.248,0.787-2.035c0,2.121,2.869,2.518,4.99,2.518
					c2.278,0,3.394-0.896,3.394-2.389c0-4.049-9.524-0.566-9.524-6.873C105.32,57.131,108.144,56.036,111.604,56.036z"/>
				<path d="M125.855,58.465v13.703c0,0-2.936,0-2.936-1.422V58.465h-2.692c-1.818,0-2.08-1.381-2.08-2.518
					c0,0,0.769,0.348,2.431,0.348h7.684c1.663,0,2.428-0.348,2.428-0.348c0,1.139-0.261,2.518-2.079,2.518H125.855z"/>
				<path d="M132.268,56.078c0,0,2.934,0,2.934,1.422v14.668c0,0-2.934,0-2.934-1.422V56.078z"/>
				<path d="M141.2,72.168c0,0-2.936,0-2.936-1.422V56.078c0,0,2.936,0,2.936,1.422v5.102c2.231-0.457,3.676-2.316,5.256-5.143
					c0.635-1.162,1.728-1.423,2.517-1.423c0.547,0,1.336,0.196,1.336,0.196c-1.709,2.689-3.086,6.281-5.933,7.377
					c2.429,0.678,4.203,3.766,5.34,6.086c0.394,0.768,0.703,1.424,1.248,2.209c0,0-0.877,0.221-1.334,0.221
					c-0.767,0-2.082-0.264-2.719-1.426c-1.375-2.473-2.623-5.449-5.709-6.064L141.2,72.168L141.2,72.168z"/>
				<path d="M162.543,62.494l1.863,5.756c0.521,1.641,0.916,2.955,1.354,3.611c0,0-0.721,0.242-1.225,0.242
					c-2.059,0-2.561-1.771-3.109-3.416l-0.373-1.16h-5.516l-0.371,1.16c-0.549,1.646-1.051,3.416-3.111,3.416
					c-0.506,0-1.223-0.242-1.223-0.242c0.436-0.656,0.828-1.971,1.354-3.611l1.861-5.756c1.467-4.51,3.92-6.48,4.246-6.701
					C158.627,56.014,161.079,57.984,162.543,62.494z M156.852,63.061l-0.678,2.277h4.244l-0.678-2.277
					c-0.549-1.84-1.447-3.699-1.447-3.699C157.947,59.908,157.4,61.223,156.852,63.061z"/>
			</g>
		</g>
	</g>
</g>
</svg>
